<svg width="310" height="129" viewBox="0 0 310 129" fill="none" xmlns="http://www.w3.org/2000/svg">
<g filter="url(#filter0_d_1371_286)">
<rect x="11.6" y="11.6" width="286.734" height="105" rx="20" fill="white" shape-rendering="crispEdges"/>
<path d="M28.52 45.6L33.56 34.4H35.608L40.664 45.6H38.488L34.152 35.504H34.984L30.664 45.6H28.52ZM30.84 43.008L31.4 41.376H37.448L38.008 43.008H30.84ZM41.8964 45.6V33.728H43.8964V45.6H41.8964ZM46.5214 45.6V33.728H48.5214V45.6H46.5214ZM55.7603 45.6V34.4H57.4723L64.4963 43.024H63.6483V34.4H65.7123V45.6H64.0003L56.9763 36.976H57.8243V45.6H55.7603ZM72.3614 45.712C71.4867 45.712 70.708 45.5253 70.0254 45.152C69.3427 44.768 68.804 44.2453 68.4094 43.584C68.0147 42.9226 67.8174 42.1706 67.8174 41.328C67.8174 40.4746 68.0147 39.7226 68.4094 39.072C68.804 38.4106 69.3427 37.8933 70.0254 37.52C70.708 37.1466 71.4867 36.96 72.3614 36.96C73.2467 36.96 74.0307 37.1466 74.7134 37.52C75.4067 37.8933 75.9454 38.4053 76.3294 39.056C76.724 39.7066 76.9214 40.464 76.9214 41.328C76.9214 42.1706 76.724 42.9226 76.3294 43.584C75.9454 44.2453 75.4067 44.768 74.7134 45.152C74.0307 45.5253 73.2467 45.712 72.3614 45.712ZM72.3614 44C72.852 44 73.2894 43.8933 73.6734 43.68C74.0574 43.4666 74.356 43.1573 74.5694 42.752C74.7934 42.3466 74.9054 41.872 74.9054 41.328C74.9054 40.7733 74.7934 40.2986 74.5694 39.904C74.356 39.4986 74.0574 39.1893 73.6734 38.976C73.2894 38.7626 72.8574 38.656 72.3774 38.656C71.8867 38.656 71.4494 38.7626 71.0654 38.976C70.692 39.1893 70.3934 39.4986 70.1694 39.904C69.9454 40.2986 69.8334 40.7733 69.8334 41.328C69.8334 41.872 69.9454 42.3466 70.1694 42.752C70.3934 43.1573 70.692 43.4666 71.0654 43.68C71.4494 43.8933 71.8814 44 72.3614 44ZM82.0499 45.712C81.1112 45.712 80.3859 45.472 79.8739 44.992C79.3619 44.5013 79.1059 43.7813 79.1059 42.832V35.168H81.1059V42.784C81.1059 43.1893 81.2072 43.504 81.4099 43.728C81.6232 43.952 81.9165 44.064 82.2899 44.064C82.7379 44.064 83.1112 43.9466 83.4099 43.712L83.9699 45.136C83.7352 45.328 83.4472 45.472 83.1059 45.568C82.7645 45.664 82.4125 45.712 82.0499 45.712ZM77.6979 38.656V37.056H83.3939V38.656H77.6979ZM89.3499 45.712C88.4005 45.712 87.5685 45.5253 86.8539 45.152C86.1499 44.768 85.6005 44.2453 85.2059 43.584C84.8219 42.9226 84.6299 42.1706 84.6299 41.328C84.6299 40.4746 84.8165 39.7226 85.1899 39.072C85.5739 38.4106 86.0965 37.8933 86.7579 37.52C87.4299 37.1466 88.1925 36.96 89.0459 36.96C89.8779 36.96 90.6192 37.1413 91.2699 37.504C91.9205 37.8666 92.4325 38.3786 92.8059 39.04C93.1792 39.7013 93.3659 40.48 93.3659 41.376C93.3659 41.4613 93.3605 41.5573 93.3499 41.664C93.3499 41.7706 93.3445 41.872 93.3339 41.968H86.2139V40.64H92.2779L91.4939 41.056C91.5045 40.5653 91.4032 40.1333 91.1899 39.76C90.9765 39.3866 90.6832 39.0933 90.3099 38.88C89.9472 38.6666 89.5259 38.56 89.0459 38.56C88.5552 38.56 88.1232 38.6666 87.7499 38.88C87.3872 39.0933 87.0992 39.392 86.8859 39.776C86.6832 40.1493 86.5819 40.592 86.5819 41.104V41.424C86.5819 41.936 86.6992 42.3893 86.9339 42.784C87.1685 43.1786 87.4992 43.4826 87.9259 43.696C88.3525 43.9093 88.8432 44.016 89.3979 44.016C89.8779 44.016 90.3099 43.9413 90.6939 43.792C91.0779 43.6426 91.4192 43.408 91.7179 43.088L92.7899 44.32C92.4059 44.768 91.9205 45.1146 91.3339 45.36C90.7579 45.5946 90.0965 45.712 89.3499 45.712ZM97.927 45.712C97.2123 45.712 96.5243 45.6213 95.863 45.44C95.2123 45.248 94.695 45.0186 94.311 44.752L95.079 43.232C95.463 43.4773 95.9217 43.68 96.455 43.84C96.9883 44 97.5217 44.08 98.055 44.08C98.6843 44.08 99.1377 43.9946 99.415 43.824C99.703 43.6533 99.847 43.424 99.847 43.136C99.847 42.9013 99.751 42.7253 99.559 42.608C99.367 42.48 99.1163 42.384 98.807 42.32C98.4977 42.256 98.151 42.1973 97.767 42.144C97.3937 42.0906 97.015 42.0213 96.631 41.936C96.2577 41.84 95.9163 41.7066 95.607 41.536C95.2977 41.3546 95.047 41.1146 94.855 40.816C94.663 40.5173 94.567 40.1226 94.567 39.632C94.567 39.088 94.7217 38.6186 95.031 38.224C95.3403 37.8186 95.7723 37.5093 96.327 37.296C96.8923 37.072 97.559 36.96 98.327 36.96C98.903 36.96 99.4843 37.024 100.071 37.152C100.658 37.28 101.143 37.4613 101.527 37.696L100.759 39.216C100.354 38.9706 99.943 38.8053 99.527 38.72C99.1217 38.624 98.7163 38.576 98.311 38.576C97.703 38.576 97.2497 38.6666 96.951 38.848C96.663 39.0293 96.519 39.2586 96.519 39.536C96.519 39.792 96.615 39.984 96.807 40.112C96.999 40.24 97.2497 40.3413 97.559 40.416C97.8683 40.4906 98.2097 40.5546 98.583 40.608C98.967 40.6506 99.3457 40.72 99.719 40.816C100.092 40.912 100.434 41.0453 100.743 41.216C101.063 41.376 101.319 41.6053 101.511 41.904C101.703 42.2026 101.799 42.592 101.799 43.072C101.799 43.6053 101.639 44.0693 101.319 44.464C101.01 44.8586 100.567 45.168 99.991 45.392C99.415 45.6053 98.727 45.712 97.927 45.712Z" fill="#1F1F1F"/>
<path d="M29.965 72.6666V63.5666H33.8C34.7707 63.5666 35.6243 63.7573 36.361 64.1386C37.1063 64.52 37.6827 65.053 38.09 65.7376C38.506 66.4223 38.714 67.2153 38.714 68.1166C38.714 69.018 38.506 69.811 38.09 70.4956C37.6827 71.1803 37.1063 71.7133 36.361 72.0946C35.6243 72.476 34.7707 72.6666 33.8 72.6666H29.965ZM31.265 71.5356H33.722C34.476 71.5356 35.126 71.3926 35.672 71.1066C36.2267 70.8206 36.6557 70.422 36.959 69.9106C37.2623 69.3906 37.414 68.7926 37.414 68.1166C37.414 67.432 37.2623 66.834 36.959 66.3226C36.6557 65.8113 36.2267 65.4126 35.672 65.1266C35.126 64.8406 34.476 64.6976 33.722 64.6976H31.265V71.5356ZM40.5232 72.6666V65.7766H41.7712V72.6666H40.5232ZM41.1472 64.4506C40.9046 64.4506 40.7009 64.3726 40.5362 64.2166C40.3802 64.0606 40.3022 63.87 40.3022 63.6446C40.3022 63.4106 40.3802 63.2156 40.5362 63.0596C40.7009 62.9036 40.9046 62.8256 41.1472 62.8256C41.3899 62.8256 41.5892 62.9036 41.7452 63.0596C41.9099 63.207 41.9922 63.3933 41.9922 63.6186C41.9922 63.8526 41.9142 64.052 41.7582 64.2166C41.6022 64.3726 41.3986 64.4506 41.1472 64.4506ZM46.1301 72.7446C45.5581 72.7446 45.0121 72.6666 44.4921 72.5106C43.9808 72.3546 43.5778 72.164 43.2831 71.9386L43.8031 70.9506C44.0978 71.15 44.4618 71.319 44.8951 71.4576C45.3284 71.5963 45.7704 71.6656 46.2211 71.6656C46.8018 71.6656 47.2178 71.5833 47.4691 71.4186C47.7291 71.254 47.8591 71.0243 47.8591 70.7296C47.8591 70.513 47.7811 70.344 47.6251 70.2226C47.4691 70.1013 47.2611 70.0103 47.0011 69.9496C46.7498 69.889 46.4681 69.837 46.1561 69.7936C45.8441 69.7416 45.5321 69.681 45.2201 69.6116C44.9081 69.5336 44.6221 69.4296 44.3621 69.2996C44.1021 69.161 43.8941 68.9746 43.7381 68.7406C43.5821 68.498 43.5041 68.1773 43.5041 67.7786C43.5041 67.3626 43.6211 66.9986 43.8551 66.6866C44.0891 66.3746 44.4184 66.1363 44.8431 65.9716C45.2764 65.7983 45.7878 65.7116 46.3771 65.7116C46.8278 65.7116 47.2828 65.768 47.7421 65.8806C48.2101 65.9846 48.5914 66.1363 48.8861 66.3356L48.3531 67.3236C48.0411 67.1156 47.7161 66.9726 47.3781 66.8946C47.0401 66.8166 46.7021 66.7776 46.3641 66.7776C45.8181 66.7776 45.4108 66.8686 45.1421 67.0506C44.8734 67.224 44.7391 67.4493 44.7391 67.7266C44.7391 67.9606 44.8171 68.1426 44.9731 68.2726C45.1378 68.394 45.3458 68.4893 45.5971 68.5586C45.8571 68.628 46.1431 68.6886 46.4551 68.7406C46.7671 68.784 47.0791 68.8446 47.3911 68.9226C47.7031 68.992 47.9848 69.0916 48.2361 69.2216C48.4961 69.3516 48.7041 69.5336 48.8601 69.7676C49.0248 70.0016 49.1071 70.3136 49.1071 70.7036C49.1071 71.1196 48.9858 71.4793 48.7431 71.7826C48.5004 72.086 48.1581 72.3243 47.7161 72.4976C47.2741 72.6623 46.7454 72.7446 46.1301 72.7446ZM53.6698 72.7446C52.9678 72.7446 52.3395 72.593 51.7848 72.2896C51.2388 71.9863 50.8098 71.5703 50.4978 71.0416C50.1858 70.513 50.0298 69.9063 50.0298 69.2216C50.0298 68.537 50.1858 67.9303 50.4978 67.4016C50.8098 66.873 51.2388 66.4613 51.7848 66.1666C52.3395 65.8633 52.9678 65.7116 53.6698 65.7116C54.2938 65.7116 54.8485 65.8373 55.3338 66.0886C55.8278 66.3313 56.2091 66.6953 56.4778 67.1806L55.5288 67.7916C55.3035 67.4536 55.0261 67.2066 54.6968 67.0506C54.3761 66.886 54.0295 66.8036 53.6568 66.8036C53.2061 66.8036 52.8031 66.9033 52.4478 67.1026C52.0925 67.302 51.8108 67.5836 51.6028 67.9476C51.3948 68.303 51.2908 68.7276 51.2908 69.2216C51.2908 69.7156 51.3948 70.1446 51.6028 70.5086C51.8108 70.8726 52.0925 71.1543 52.4478 71.3536C52.8031 71.553 53.2061 71.6526 53.6568 71.6526C54.0295 71.6526 54.3761 71.5746 54.6968 71.4186C55.0261 71.254 55.3035 71.0026 55.5288 70.6646L56.4778 71.2626C56.2091 71.7393 55.8278 72.1076 55.3338 72.3676C54.8485 72.619 54.2938 72.7446 53.6698 72.7446ZM60.943 72.7446C60.2497 72.7446 59.6343 72.593 59.097 72.2896C58.5597 71.9863 58.135 71.5703 57.823 71.0416C57.511 70.5043 57.355 69.8976 57.355 69.2216C57.355 68.537 57.511 67.9303 57.823 67.4016C58.135 66.873 58.5597 66.4613 59.097 66.1666C59.6343 65.8633 60.2497 65.7116 60.943 65.7116C61.6277 65.7116 62.2387 65.8633 62.776 66.1666C63.322 66.4613 63.7467 66.873 64.05 67.4016C64.362 67.9216 64.518 68.5283 64.518 69.2216C64.518 69.9063 64.362 70.513 64.05 71.0416C63.7467 71.5703 63.322 71.9863 62.776 72.2896C62.2387 72.593 61.6277 72.7446 60.943 72.7446ZM60.943 71.6526C61.385 71.6526 61.7793 71.553 62.126 71.3536C62.4813 71.1543 62.7587 70.8726 62.958 70.5086C63.1573 70.136 63.257 69.707 63.257 69.2216C63.257 68.7276 63.1573 68.303 62.958 67.9476C62.7587 67.5836 62.4813 67.302 62.126 67.1026C61.7793 66.9033 61.385 66.8036 60.943 66.8036C60.501 66.8036 60.1067 66.9033 59.76 67.1026C59.4133 67.302 59.136 67.5836 58.928 67.9476C58.72 68.303 58.616 68.7276 58.616 69.2216C58.616 69.707 58.72 70.136 58.928 70.5086C59.136 70.8726 59.4133 71.1543 59.76 71.3536C60.1067 71.553 60.501 71.6526 60.943 71.6526ZM67.8605 72.6666L64.8445 65.7766H66.1445L68.8225 72.0166H68.1985L70.9285 65.7766H72.1505L69.1345 72.6666H67.8605ZM76.1928 72.7446C75.4561 72.7446 74.8061 72.593 74.2428 72.2896C73.6881 71.9863 73.2548 71.5703 72.9428 71.0416C72.6395 70.513 72.4878 69.9063 72.4878 69.2216C72.4878 68.537 72.6351 67.9303 72.9298 67.4016C73.2331 66.873 73.6448 66.4613 74.1648 66.1666C74.6935 65.8633 75.2871 65.7116 75.9458 65.7116C76.6131 65.7116 77.2025 65.859 77.7138 66.1536C78.2251 66.4483 78.6238 66.8643 78.9098 67.4016C79.2045 67.9303 79.3518 68.55 79.3518 69.2606C79.3518 69.3126 79.3475 69.3733 79.3388 69.4426C79.3388 69.512 79.3345 69.577 79.3258 69.6376H73.4628V68.7406H78.6758L78.1688 69.0526C78.1775 68.6106 78.0865 68.2163 77.8958 67.8696C77.7051 67.523 77.4408 67.2543 77.1028 67.0636C76.7735 66.8643 76.3878 66.7646 75.9458 66.7646C75.5125 66.7646 75.1268 66.8643 74.7888 67.0636C74.4508 67.2543 74.1865 67.5273 73.9958 67.8826C73.8051 68.2293 73.7098 68.628 73.7098 69.0786V69.2866C73.7098 69.746 73.8138 70.1576 74.0218 70.5216C74.2385 70.877 74.5375 71.1543 74.9188 71.3536C75.3001 71.553 75.7378 71.6526 76.2318 71.6526C76.6391 71.6526 77.0075 71.5833 77.3368 71.4446C77.6748 71.306 77.9695 71.098 78.2208 70.8206L78.9098 71.6266C78.5978 71.9906 78.2078 72.268 77.7398 72.4586C77.2805 72.6493 76.7648 72.7446 76.1928 72.7446ZM81.0848 72.6666V65.7766H82.2808V67.6486L82.1638 67.1806C82.3544 66.704 82.6751 66.34 83.1258 66.0886C83.5764 65.8373 84.1311 65.7116 84.7898 65.7116V66.9206C84.7378 66.912 84.6858 66.9076 84.6338 66.9076C84.5904 66.9076 84.5471 66.9076 84.5038 66.9076C83.8364 66.9076 83.3078 67.107 82.9178 67.5056C82.5278 67.9043 82.3328 68.4806 82.3328 69.2346V72.6666H81.0848ZM89.908 72.6666V65.7766H91.104V67.6356L90.909 67.1416C91.1343 66.691 91.481 66.34 91.949 66.0886C92.417 65.8373 92.963 65.7116 93.587 65.7116C94.1503 65.7116 94.6443 65.82 95.069 66.0366C95.5023 66.2533 95.8403 66.5826 96.083 67.0246C96.3257 67.4666 96.447 68.0256 96.447 68.7016V72.6666H95.199V68.8446C95.199 68.1773 95.0343 67.6746 94.705 67.3366C94.3843 66.9986 93.9293 66.8296 93.34 66.8296C92.898 66.8296 92.5123 66.9163 92.183 67.0896C91.8537 67.263 91.598 67.5186 91.416 67.8566C91.2427 68.1946 91.156 68.615 91.156 69.1176V72.6666H89.908ZM101.708 72.7446C101.014 72.7446 100.399 72.593 99.8616 72.2896C99.3243 71.9863 98.8996 71.5703 98.5876 71.0416C98.2756 70.5043 98.1196 69.8976 98.1196 69.2216C98.1196 68.537 98.2756 67.9303 98.5876 67.4016C98.8996 66.873 99.3243 66.4613 99.8616 66.1666C100.399 65.8633 101.014 65.7116 101.708 65.7116C102.392 65.7116 103.003 65.8633 103.541 66.1666C104.087 66.4613 104.511 66.873 104.815 67.4016C105.127 67.9216 105.283 68.5283 105.283 69.2216C105.283 69.9063 105.127 70.513 104.815 71.0416C104.511 71.5703 104.087 71.9863 103.541 72.2896C103.003 72.593 102.392 72.7446 101.708 72.7446ZM101.708 71.6526C102.15 71.6526 102.544 71.553 102.891 71.3536C103.246 71.1543 103.523 70.8726 103.723 70.5086C103.922 70.136 104.022 69.707 104.022 69.2216C104.022 68.7276 103.922 68.303 103.723 67.9476C103.523 67.5836 103.246 67.302 102.891 67.1026C102.544 66.9033 102.15 66.8036 101.708 66.8036C101.266 66.8036 100.871 66.9033 100.525 67.1026C100.178 67.302 99.9006 67.5836 99.6926 67.9476C99.4846 68.303 99.3806 68.7276 99.3806 69.2216C99.3806 69.707 99.4846 70.136 99.6926 70.5086C99.9006 70.8726 100.178 71.1543 100.525 71.3536C100.871 71.553 101.266 71.6526 101.708 71.6526ZM109.375 72.7446C108.681 72.7446 108.144 72.5583 107.763 72.1856C107.381 71.813 107.191 71.28 107.191 70.5866V64.2686H108.439V70.5346C108.439 70.9073 108.53 71.1933 108.712 71.3926C108.902 71.592 109.171 71.6916 109.518 71.6916C109.908 71.6916 110.233 71.5833 110.493 71.3666L110.883 72.2636C110.692 72.4283 110.462 72.5496 110.194 72.6276C109.934 72.7056 109.661 72.7446 109.375 72.7446ZM106.021 66.8036V65.7766H110.415V66.8036H106.021ZM115.231 72.7446C114.494 72.7446 113.844 72.593 113.281 72.2896C112.726 71.9863 112.293 71.5703 111.981 71.0416C111.678 70.513 111.526 69.9063 111.526 69.2216C111.526 68.537 111.673 67.9303 111.968 67.4016C112.271 66.873 112.683 66.4613 113.203 66.1666C113.732 65.8633 114.325 65.7116 114.984 65.7116C115.651 65.7116 116.241 65.859 116.752 66.1536C117.263 66.4483 117.662 66.8643 117.948 67.4016C118.243 67.9303 118.39 68.55 118.39 69.2606C118.39 69.3126 118.386 69.3733 118.377 69.4426C118.377 69.512 118.373 69.577 118.364 69.6376H112.501V68.7406H117.714L117.207 69.0526C117.216 68.6106 117.125 68.2163 116.934 67.8696C116.743 67.523 116.479 67.2543 116.141 67.0636C115.812 66.8643 115.426 66.7646 114.984 66.7646C114.551 66.7646 114.165 66.8643 113.827 67.0636C113.489 67.2543 113.225 67.5273 113.034 67.8826C112.843 68.2293 112.748 68.628 112.748 69.0786V69.2866C112.748 69.746 112.852 70.1576 113.06 70.5216C113.277 70.877 113.576 71.1543 113.957 71.3536C114.338 71.553 114.776 71.6526 115.27 71.6526C115.677 71.6526 116.046 71.5833 116.375 71.4446C116.713 71.306 117.008 71.098 117.259 70.8206L117.948 71.6266C117.636 71.9906 117.246 72.268 116.778 72.4586C116.319 72.6493 115.803 72.7446 115.231 72.7446ZM122.099 72.7446C121.527 72.7446 120.981 72.6666 120.461 72.5106C119.95 72.3546 119.547 72.164 119.252 71.9386L119.772 70.9506C120.067 71.15 120.431 71.319 120.864 71.4576C121.297 71.5963 121.739 71.6656 122.19 71.6656C122.771 71.6656 123.187 71.5833 123.438 71.4186C123.698 71.254 123.828 71.0243 123.828 70.7296C123.828 70.513 123.75 70.344 123.594 70.2226C123.438 70.1013 123.23 70.0103 122.97 69.9496C122.719 69.889 122.437 69.837 122.125 69.7936C121.813 69.7416 121.501 69.681 121.189 69.6116C120.877 69.5336 120.591 69.4296 120.331 69.2996C120.071 69.161 119.863 68.9746 119.707 68.7406C119.551 68.498 119.473 68.1773 119.473 67.7786C119.473 67.3626 119.59 66.9986 119.824 66.6866C120.058 66.3746 120.387 66.1363 120.812 65.9716C121.245 65.7983 121.757 65.7116 122.346 65.7116C122.797 65.7116 123.252 65.768 123.711 65.8806C124.179 65.9846 124.56 66.1363 124.855 66.3356L124.322 67.3236C124.01 67.1156 123.685 66.9726 123.347 66.8946C123.009 66.8166 122.671 66.7776 122.333 66.7776C121.787 66.7776 121.38 66.8686 121.111 67.0506C120.842 67.224 120.708 67.4493 120.708 67.7266C120.708 67.9606 120.786 68.1426 120.942 68.2726C121.107 68.394 121.315 68.4893 121.566 68.5586C121.826 68.628 122.112 68.6886 122.424 68.7406C122.736 68.784 123.048 68.8446 123.36 68.9226C123.672 68.992 123.954 69.0916 124.205 69.2216C124.465 69.3516 124.673 69.5336 124.829 69.7676C124.994 70.0016 125.076 70.3136 125.076 70.7036C125.076 71.1196 124.955 71.4793 124.712 71.7826C124.469 72.086 124.127 72.3243 123.685 72.4976C123.243 72.6623 122.714 72.7446 122.099 72.7446ZM130.309 72.6666V65.1656C130.309 64.4896 130.504 63.9523 130.894 63.5536C131.292 63.1463 131.856 62.9426 132.584 62.9426C132.852 62.9426 133.108 62.9773 133.351 63.0466C133.602 63.1073 133.814 63.207 133.988 63.3456L133.611 64.2946C133.481 64.1906 133.333 64.1126 133.169 64.0606C133.004 64 132.831 63.9696 132.649 63.9696C132.285 63.9696 132.007 64.0736 131.817 64.2816C131.626 64.481 131.531 64.78 131.531 65.1786V66.1016L131.557 66.6736V72.6666H130.309ZM129.139 66.8036V65.7766H133.533V66.8036H129.139ZM134.71 72.6666V65.7766H135.906V67.6486L135.789 67.1806C135.979 66.704 136.3 66.34 136.751 66.0886C137.201 65.8373 137.756 65.7116 138.415 65.7116V66.9206C138.363 66.912 138.311 66.9076 138.259 66.9076C138.215 66.9076 138.172 66.9076 138.129 66.9076C137.461 66.9076 136.933 67.107 136.543 67.5056C136.153 67.9043 135.958 68.4806 135.958 69.2346V72.6666H134.71ZM142.84 72.7446C142.147 72.7446 141.532 72.593 140.994 72.2896C140.457 71.9863 140.032 71.5703 139.72 71.0416C139.408 70.5043 139.252 69.8976 139.252 69.2216C139.252 68.537 139.408 67.9303 139.72 67.4016C140.032 66.873 140.457 66.4613 140.994 66.1666C141.532 65.8633 142.147 65.7116 142.84 65.7116C143.525 65.7116 144.136 65.8633 144.673 66.1666C145.219 66.4613 145.644 66.873 145.947 67.4016C146.259 67.9216 146.415 68.5283 146.415 69.2216C146.415 69.9063 146.259 70.513 145.947 71.0416C145.644 71.5703 145.219 71.9863 144.673 72.2896C144.136 72.593 143.525 72.7446 142.84 72.7446ZM142.84 71.6526C143.282 71.6526 143.677 71.553 144.023 71.3536C144.379 71.1543 144.656 70.8726 144.855 70.5086C145.055 70.136 145.154 69.707 145.154 69.2216C145.154 68.7276 145.055 68.303 144.855 67.9476C144.656 67.5836 144.379 67.302 144.023 67.1026C143.677 66.9033 143.282 66.8036 142.84 66.8036C142.398 66.8036 142.004 66.9033 141.657 67.1026C141.311 67.302 141.033 67.5836 140.825 67.9476C140.617 68.303 140.513 68.7276 140.513 69.2216C140.513 69.707 140.617 70.136 140.825 70.5086C141.033 70.8726 141.311 71.1543 141.657 71.3536C142.004 71.553 142.398 71.6526 142.84 71.6526ZM148.141 72.6666V65.7766H149.337V67.6096L149.142 67.1416C149.359 66.691 149.693 66.34 150.143 66.0886C150.594 65.8373 151.118 65.7116 151.716 65.7116C152.375 65.7116 152.943 65.8763 153.419 66.2056C153.896 66.5263 154.208 67.016 154.355 67.6746L153.848 67.4666C154.056 66.938 154.42 66.5133 154.94 66.1926C155.46 65.872 156.067 65.7116 156.76 65.7116C157.315 65.7116 157.805 65.82 158.229 66.0366C158.654 66.2533 158.983 66.5826 159.217 67.0246C159.46 67.4666 159.581 68.0256 159.581 68.7016V72.6666H158.333V68.8446C158.333 68.1773 158.177 67.6746 157.865 67.3366C157.553 66.9986 157.116 66.8296 156.552 66.8296C156.136 66.8296 155.772 66.9163 155.46 67.0896C155.148 67.263 154.906 67.5186 154.732 67.8566C154.568 68.1946 154.485 68.615 154.485 69.1176V72.6666H153.237V68.8446C153.237 68.1773 153.081 67.6746 152.769 67.3366C152.466 66.9986 152.028 66.8296 151.456 66.8296C151.049 66.8296 150.689 66.9163 150.377 67.0896C150.065 67.263 149.823 67.5186 149.649 67.8566C149.476 68.1946 149.389 68.615 149.389 69.1176V72.6666H148.141ZM167.345 72.7446C166.773 72.7446 166.227 72.6666 165.707 72.5106C165.196 72.3546 164.793 72.164 164.498 71.9386L165.018 70.9506C165.313 71.15 165.677 71.319 166.11 71.4576C166.543 71.5963 166.985 71.6656 167.436 71.6656C168.017 71.6656 168.433 71.5833 168.684 71.4186C168.944 71.254 169.074 71.0243 169.074 70.7296C169.074 70.513 168.996 70.344 168.84 70.2226C168.684 70.1013 168.476 70.0103 168.216 69.9496C167.965 69.889 167.683 69.837 167.371 69.7936C167.059 69.7416 166.747 69.681 166.435 69.6116C166.123 69.5336 165.837 69.4296 165.577 69.2996C165.317 69.161 165.109 68.9746 164.953 68.7406C164.797 68.498 164.719 68.1773 164.719 67.7786C164.719 67.3626 164.836 66.9986 165.07 66.6866C165.304 66.3746 165.633 66.1363 166.058 65.9716C166.491 65.7983 167.003 65.7116 167.592 65.7116C168.043 65.7116 168.498 65.768 168.957 65.8806C169.425 65.9846 169.806 66.1363 170.101 66.3356L169.568 67.3236C169.256 67.1156 168.931 66.9726 168.593 66.8946C168.255 66.8166 167.917 66.7776 167.579 66.7776C167.033 66.7776 166.626 66.8686 166.357 67.0506C166.088 67.224 165.954 67.4493 165.954 67.7266C165.954 67.9606 166.032 68.1426 166.188 68.2726C166.353 68.394 166.561 68.4893 166.812 68.5586C167.072 68.628 167.358 68.6886 167.67 68.7406C167.982 68.784 168.294 68.8446 168.606 68.9226C168.918 68.992 169.2 69.0916 169.451 69.2216C169.711 69.3516 169.919 69.5336 170.075 69.7676C170.24 70.0016 170.322 70.3136 170.322 70.7036C170.322 71.1196 170.201 71.4793 169.958 71.7826C169.715 72.086 169.373 72.3243 168.931 72.4976C168.489 72.6623 167.96 72.7446 167.345 72.7446ZM174.248 72.7446C173.554 72.7446 173.017 72.5583 172.636 72.1856C172.254 71.813 172.064 71.28 172.064 70.5866V64.2686H173.312V70.5346C173.312 70.9073 173.403 71.1933 173.585 71.3926C173.775 71.592 174.044 71.6916 174.391 71.6916C174.781 71.6916 175.106 71.5833 175.366 71.3666L175.756 72.2636C175.565 72.4283 175.335 72.5496 175.067 72.6276C174.807 72.7056 174.534 72.7446 174.248 72.7446ZM170.894 66.8036V65.7766H175.288V66.8036H170.894ZM180.163 72.7446C179.574 72.7446 179.054 72.6363 178.603 72.4196C178.161 72.203 177.815 71.8736 177.563 71.4316C177.321 70.981 177.199 70.4176 177.199 69.7416V65.7766H178.447V69.5986C178.447 70.2746 178.608 70.7816 178.928 71.1196C179.258 71.4576 179.717 71.6266 180.306 71.6266C180.74 71.6266 181.117 71.54 181.437 71.3666C181.758 71.1846 182.005 70.9246 182.178 70.5866C182.352 70.24 182.438 69.824 182.438 69.3386V65.7766H183.686V72.6666H182.503V70.8076L182.698 71.3016C182.473 71.761 182.135 72.1163 181.684 72.3676C181.234 72.619 180.727 72.7446 180.163 72.7446ZM188.909 72.7446C188.242 72.7446 187.644 72.5973 187.115 72.3026C186.595 72.008 186.184 71.5963 185.88 71.0676C185.577 70.539 185.425 69.9236 185.425 69.2216C185.425 68.5196 185.577 67.9086 185.88 67.3886C186.184 66.86 186.595 66.4483 187.115 66.1536C187.644 65.859 188.242 65.7116 188.909 65.7116C189.49 65.7116 190.014 65.8416 190.482 66.1016C190.95 66.3616 191.323 66.7516 191.6 67.2716C191.886 67.7916 192.029 68.4416 192.029 69.2216C192.029 70.0016 191.891 70.6516 191.613 71.1716C191.345 71.6916 190.976 72.086 190.508 72.3546C190.04 72.6146 189.507 72.7446 188.909 72.7446ZM189.013 71.6526C189.447 71.6526 189.837 71.553 190.183 71.3536C190.539 71.1543 190.816 70.8726 191.015 70.5086C191.223 70.136 191.327 69.707 191.327 69.2216C191.327 68.7276 191.223 68.303 191.015 67.9476C190.816 67.5836 190.539 67.302 190.183 67.1026C189.837 66.9033 189.447 66.8036 189.013 66.8036C188.571 66.8036 188.177 66.9033 187.83 67.1026C187.484 67.302 187.206 67.5836 186.998 67.9476C186.79 68.303 186.686 68.7276 186.686 69.2216C186.686 69.707 186.79 70.136 186.998 70.5086C187.206 70.8726 187.484 71.1543 187.83 71.3536C188.177 71.553 188.571 71.6526 189.013 71.6526ZM191.366 72.6666V70.8076L191.444 69.2086L191.314 67.6096V63.0206H192.562V72.6666H191.366ZM197.992 72.7446C197.255 72.7446 196.605 72.593 196.042 72.2896C195.487 71.9863 195.054 71.5703 194.742 71.0416C194.438 70.513 194.287 69.9063 194.287 69.2216C194.287 68.537 194.434 67.9303 194.729 67.4016C195.032 66.873 195.444 66.4613 195.964 66.1666C196.492 65.8633 197.086 65.7116 197.745 65.7116C198.412 65.7116 199.001 65.859 199.513 66.1536C200.024 66.4483 200.423 66.8643 200.709 67.4016C201.003 67.9303 201.151 68.55 201.151 69.2606C201.151 69.3126 201.146 69.3733 201.138 69.4426C201.138 69.512 201.133 69.577 201.125 69.6376H195.262V68.7406H200.475L199.968 69.0526C199.976 68.6106 199.885 68.2163 199.695 67.8696C199.504 67.523 199.24 67.2543 198.902 67.0636C198.572 66.8643 198.187 66.7646 197.745 66.7646C197.311 66.7646 196.926 66.8643 196.588 67.0636C196.25 67.2543 195.985 67.5273 195.795 67.8826C195.604 68.2293 195.509 68.628 195.509 69.0786V69.2866C195.509 69.746 195.613 70.1576 195.821 70.5216C196.037 70.877 196.336 71.1543 196.718 71.3536C197.099 71.553 197.537 71.6526 198.031 71.6526C198.438 71.6526 198.806 71.5833 199.136 71.4446C199.474 71.306 199.768 71.098 200.02 70.8206L200.709 71.6266C200.397 71.9906 200.007 72.268 199.539 72.4586C199.079 72.6493 198.564 72.7446 197.992 72.7446ZM202.884 72.6666V65.7766H204.08V67.6356L203.885 67.1416C204.11 66.691 204.457 66.34 204.925 66.0886C205.393 65.8373 205.939 65.7116 206.563 65.7116C207.126 65.7116 207.62 65.82 208.045 66.0366C208.478 66.2533 208.816 66.5826 209.059 67.0246C209.301 67.4666 209.423 68.0256 209.423 68.7016V72.6666H208.175V68.8446C208.175 68.1773 208.01 67.6746 207.681 67.3366C207.36 66.9986 206.905 66.8296 206.316 66.8296C205.874 66.8296 205.488 66.9163 205.159 67.0896C204.829 67.263 204.574 67.5186 204.392 67.8566C204.218 68.1946 204.132 68.615 204.132 69.1176V72.6666H202.884ZM214.098 72.7446C213.405 72.7446 212.868 72.5583 212.486 72.1856C212.105 71.813 211.914 71.28 211.914 70.5866V64.2686H213.162V70.5346C213.162 70.9073 213.253 71.1933 213.435 71.3926C213.626 71.592 213.895 71.6916 214.241 71.6916C214.631 71.6916 214.956 71.5833 215.216 71.3666L215.606 72.2636C215.416 72.4283 215.186 72.5496 214.917 72.6276C214.657 72.7056 214.384 72.7446 214.098 72.7446ZM210.744 66.8036V65.7766H215.138V66.8036H210.744ZM219.091 72.7446C218.519 72.7446 217.973 72.6666 217.453 72.5106C216.942 72.3546 216.539 72.164 216.244 71.9386L216.764 70.9506C217.059 71.15 217.423 71.319 217.856 71.4576C218.289 71.5963 218.731 71.6656 219.182 71.6656C219.763 71.6656 220.179 71.5833 220.43 71.4186C220.69 71.254 220.82 71.0243 220.82 70.7296C220.82 70.513 220.742 70.344 220.586 70.2226C220.43 70.1013 220.222 70.0103 219.962 69.9496C219.711 69.889 219.429 69.837 219.117 69.7936C218.805 69.7416 218.493 69.681 218.181 69.6116C217.869 69.5336 217.583 69.4296 217.323 69.2996C217.063 69.161 216.855 68.9746 216.699 68.7406C216.543 68.498 216.465 68.1773 216.465 67.7786C216.465 67.3626 216.582 66.9986 216.816 66.6866C217.05 66.3746 217.379 66.1363 217.804 65.9716C218.237 65.7983 218.749 65.7116 219.338 65.7116C219.789 65.7116 220.244 65.768 220.703 65.8806C221.171 65.9846 221.552 66.1363 221.847 66.3356L221.314 67.3236C221.002 67.1156 220.677 66.9726 220.339 66.8946C220.001 66.8166 219.663 66.7776 219.325 66.7776C218.779 66.7776 218.372 66.8686 218.103 67.0506C217.834 67.224 217.7 67.4493 217.7 67.7266C217.7 67.9606 217.778 68.1426 217.934 68.2726C218.099 68.394 218.307 68.4893 218.558 68.5586C218.818 68.628 219.104 68.6886 219.416 68.7406C219.728 68.784 220.04 68.8446 220.352 68.9226C220.664 68.992 220.946 69.0916 221.197 69.2216C221.457 69.3516 221.665 69.5336 221.821 69.7676C221.986 70.0016 222.068 70.3136 222.068 70.7036C222.068 71.1196 221.947 71.4793 221.704 71.7826C221.461 72.086 221.119 72.3243 220.677 72.4976C220.235 72.6623 219.706 72.7446 219.091 72.7446ZM229.485 72.7446C228.792 72.7446 228.254 72.5583 227.873 72.1856C227.492 71.813 227.301 71.28 227.301 70.5866V64.2686H228.549V70.5346C228.549 70.9073 228.64 71.1933 228.822 71.3926C229.013 71.592 229.281 71.6916 229.628 71.6916C230.018 71.6916 230.343 71.5833 230.603 71.3666L230.993 72.2636C230.802 72.4283 230.573 72.5496 230.304 72.6276C230.044 72.7056 229.771 72.7446 229.485 72.7446ZM226.131 66.8036V65.7766H230.525V66.8036H226.131ZM235.224 72.7446C234.531 72.7446 233.916 72.593 233.378 72.2896C232.841 71.9863 232.416 71.5703 232.104 71.0416C231.792 70.5043 231.636 69.8976 231.636 69.2216C231.636 68.537 231.792 67.9303 232.104 67.4016C232.416 66.873 232.841 66.4613 233.378 66.1666C233.916 65.8633 234.531 65.7116 235.224 65.7116C235.909 65.7116 236.52 65.8633 237.057 66.1666C237.603 66.4613 238.028 66.873 238.331 67.4016C238.643 67.9216 238.799 68.5283 238.799 69.2216C238.799 69.9063 238.643 70.513 238.331 71.0416C238.028 71.5703 237.603 71.9863 237.057 72.2896C236.52 72.593 235.909 72.7446 235.224 72.7446ZM235.224 71.6526C235.666 71.6526 236.061 71.553 236.407 71.3536C236.763 71.1543 237.04 70.8726 237.239 70.5086C237.439 70.136 237.538 69.707 237.538 69.2216C237.538 68.7276 237.439 68.303 237.239 67.9476C237.04 67.5836 236.763 67.302 236.407 67.1026C236.061 66.9033 235.666 66.8036 235.224 66.8036C234.782 66.8036 234.388 66.9033 234.041 67.1026C233.695 67.302 233.417 67.5836 233.209 67.9476C233.001 68.303 232.897 68.7276 232.897 69.2216C232.897 69.707 233.001 70.136 233.209 70.5086C233.417 70.8726 233.695 71.1543 234.041 71.3536C234.388 71.553 234.782 71.6526 235.224 71.6526ZM244.016 72.6666V63.0206H245.264V67.6356L245.017 67.1416C245.243 66.691 245.589 66.34 246.057 66.0886C246.525 65.8373 247.071 65.7116 247.695 65.7116C248.259 65.7116 248.753 65.82 249.177 66.0366C249.611 66.2533 249.949 66.5826 250.191 67.0246C250.434 67.4666 250.555 68.0256 250.555 68.7016V72.6666H249.307V68.8446C249.307 68.1773 249.143 67.6746 248.813 67.3366C248.493 66.9986 248.038 66.8296 247.448 66.8296C247.006 66.8296 246.621 66.9163 246.291 67.0896C245.962 67.263 245.706 67.5186 245.524 67.8566C245.351 68.1946 245.264 68.615 245.264 69.1176V72.6666H244.016ZM255.933 72.7446C255.196 72.7446 254.546 72.593 253.983 72.2896C253.428 71.9863 252.995 71.5703 252.683 71.0416C252.38 70.513 252.228 69.9063 252.228 69.2216C252.228 68.537 252.375 67.9303 252.67 67.4016C252.973 66.873 253.385 66.4613 253.905 66.1666C254.434 65.8633 255.027 65.7116 255.686 65.7116C256.353 65.7116 256.943 65.859 257.454 66.1536C257.965 66.4483 258.364 66.8643 258.65 67.4016C258.945 67.9303 259.092 68.55 259.092 69.2606C259.092 69.3126 259.088 69.3733 259.079 69.4426C259.079 69.512 259.075 69.577 259.066 69.6376H253.203V68.7406H258.416L257.909 69.0526C257.918 68.6106 257.827 68.2163 257.636 67.8696C257.445 67.523 257.181 67.2543 256.843 67.0636C256.514 66.8643 256.128 66.7646 255.686 66.7646C255.253 66.7646 254.867 66.8643 254.529 67.0636C254.191 67.2543 253.927 67.5273 253.736 67.8826C253.545 68.2293 253.45 68.628 253.45 69.0786V69.2866C253.45 69.746 253.554 70.1576 253.762 70.5216C253.979 70.877 254.278 71.1543 254.659 71.3536C255.04 71.553 255.478 71.6526 255.972 71.6526C256.379 71.6526 256.748 71.5833 257.077 71.4446C257.415 71.306 257.71 71.098 257.961 70.8206L258.65 71.6266C258.338 71.9906 257.948 72.268 257.48 72.4586C257.021 72.6493 256.505 72.7446 255.933 72.7446ZM260.825 72.6666V63.0206H262.073V72.6666H260.825ZM268.109 72.7446C267.537 72.7446 267.013 72.6146 266.536 72.3546C266.068 72.086 265.691 71.6916 265.405 71.1716C265.128 70.6516 264.989 70.0016 264.989 69.2216C264.989 68.4416 265.123 67.7916 265.392 67.2716C265.669 66.7516 266.042 66.3616 266.51 66.1016C266.987 65.8416 267.52 65.7116 268.109 65.7116C268.785 65.7116 269.383 65.859 269.903 66.1536C270.423 66.4483 270.835 66.86 271.138 67.3886C271.441 67.9086 271.593 68.5196 271.593 69.2216C271.593 69.9236 271.441 70.539 271.138 71.0676C270.835 71.5963 270.423 72.008 269.903 72.3026C269.383 72.5973 268.785 72.7446 268.109 72.7446ZM264.456 75.1886V65.7766H265.652V67.6356L265.574 69.2346L265.704 70.8336V75.1886H264.456ZM268.005 71.6526C268.447 71.6526 268.841 71.553 269.188 71.3536C269.543 71.1543 269.821 70.8726 270.02 70.5086C270.228 70.136 270.332 69.707 270.332 69.2216C270.332 68.7276 270.228 68.303 270.02 67.9476C269.821 67.5836 269.543 67.302 269.188 67.1026C268.841 66.9033 268.447 66.8036 268.005 66.8036C267.572 66.8036 267.177 66.9033 266.822 67.1026C266.475 67.302 266.198 67.5836 265.99 67.9476C265.791 68.303 265.691 68.7276 265.691 69.2216C265.691 69.707 265.791 70.136 265.99 70.5086C266.198 70.8726 266.475 71.1543 266.822 71.3536C267.177 71.553 267.572 71.6526 268.005 71.6526ZM30.082 95.2666C29.7527 95.2666 29.432 95.2103 29.12 95.0976C28.808 94.9936 28.5393 94.8376 28.314 94.6296L28.847 93.6936C29.0203 93.8583 29.211 93.984 29.419 94.0706C29.627 94.1573 29.848 94.2006 30.082 94.2006C30.3853 94.2006 30.6367 94.1226 30.836 93.9666C31.0353 93.8106 31.2217 93.5333 31.395 93.1346L31.824 92.1856L31.954 92.0296L34.658 85.7766H35.88L32.539 93.3556C32.3397 93.841 32.1143 94.2223 31.863 94.4996C31.6203 94.777 31.3517 94.972 31.057 95.0846C30.7623 95.206 30.4373 95.2666 30.082 95.2666ZM31.72 92.8876L28.574 85.7766H29.874L32.552 91.9126L31.72 92.8876ZM39.8053 92.7446C39.112 92.7446 38.4966 92.593 37.9593 92.2896C37.422 91.9863 36.9973 91.5703 36.6853 91.0416C36.3733 90.5043 36.2173 89.8976 36.2173 89.2216C36.2173 88.537 36.3733 87.9303 36.6853 87.4016C36.9973 86.873 37.422 86.4613 37.9593 86.1666C38.4966 85.8633 39.112 85.7116 39.8053 85.7116C40.49 85.7116 41.101 85.8633 41.6383 86.1666C42.1843 86.4613 42.609 86.873 42.9123 87.4016C43.2243 87.9216 43.3803 88.5283 43.3803 89.2216C43.3803 89.9063 43.2243 90.513 42.9123 91.0416C42.609 91.5703 42.1843 91.9863 41.6383 92.2896C41.101 92.593 40.49 92.7446 39.8053 92.7446ZM39.8053 91.6526C40.2473 91.6526 40.6416 91.553 40.9883 91.3536C41.3436 91.1543 41.621 90.8726 41.8203 90.5086C42.0196 90.136 42.1193 89.707 42.1193 89.2216C42.1193 88.7276 42.0196 88.303 41.8203 87.9476C41.621 87.5836 41.3436 87.302 40.9883 87.1026C40.6416 86.9033 40.2473 86.8036 39.8053 86.8036C39.3633 86.8036 38.969 86.9033 38.6223 87.1026C38.2756 87.302 37.9983 87.5836 37.7903 87.9476C37.5823 88.303 37.4783 88.7276 37.4783 89.2216C37.4783 89.707 37.5823 90.136 37.7903 90.5086C37.9983 90.8726 38.2756 91.1543 38.6223 91.3536C38.969 91.553 39.3633 91.6526 39.8053 91.6526ZM48.0052 92.7446C47.4159 92.7446 46.8959 92.6363 46.4452 92.4196C46.0032 92.203 45.6566 91.8736 45.4052 91.4316C45.1626 90.981 45.0412 90.4176 45.0412 89.7416V85.7766H46.2892V89.5986C46.2892 90.2746 46.4496 90.7816 46.7702 91.1196C47.0996 91.4576 47.5589 91.6266 48.1482 91.6266C48.5816 91.6266 48.9586 91.54 49.2792 91.3666C49.5999 91.1846 49.8469 90.9246 50.0202 90.5866C50.1936 90.24 50.2802 89.824 50.2802 89.3386V85.7766H51.5282V92.6666H50.3452V90.8076L50.5402 91.3016C50.3149 91.761 49.9769 92.1163 49.5262 92.3676C49.0756 92.619 48.5686 92.7446 48.0052 92.7446ZM59.3713 92.7446C58.7993 92.7446 58.2533 92.6666 57.7333 92.5106C57.222 92.3546 56.819 92.164 56.5243 91.9386L57.0443 90.9506C57.339 91.15 57.703 91.319 58.1363 91.4576C58.5696 91.5963 59.0116 91.6656 59.4623 91.6656C60.043 91.6656 60.459 91.5833 60.7103 91.4186C60.9703 91.254 61.1003 91.0243 61.1003 90.7296C61.1003 90.513 61.0223 90.344 60.8663 90.2226C60.7103 90.1013 60.5023 90.0103 60.2423 89.9496C59.991 89.889 59.7093 89.837 59.3973 89.7936C59.0853 89.7416 58.7733 89.681 58.4613 89.6116C58.1493 89.5336 57.8633 89.4296 57.6033 89.2996C57.3433 89.161 57.1353 88.9746 56.9793 88.7406C56.8233 88.498 56.7453 88.1773 56.7453 87.7786C56.7453 87.3626 56.8623 86.9986 57.0963 86.6866C57.3303 86.3746 57.6596 86.1363 58.0843 85.9716C58.5176 85.7983 59.029 85.7116 59.6183 85.7116C60.069 85.7116 60.524 85.768 60.9833 85.8806C61.4513 85.9846 61.8326 86.1363 62.1273 86.3356L61.5943 87.3236C61.2823 87.1156 60.9573 86.9726 60.6193 86.8946C60.2813 86.8166 59.9433 86.7776 59.6053 86.7776C59.0593 86.7776 58.652 86.8686 58.3833 87.0506C58.1146 87.224 57.9803 87.4493 57.9803 87.7266C57.9803 87.9606 58.0583 88.1426 58.2143 88.2726C58.379 88.394 58.587 88.4893 58.8383 88.5586C59.0983 88.628 59.3843 88.6886 59.6963 88.7406C60.0083 88.784 60.3203 88.8446 60.6323 88.9226C60.9443 88.992 61.226 89.0916 61.4773 89.2216C61.7373 89.3516 61.9453 89.5336 62.1013 89.7676C62.266 90.0016 62.3483 90.3136 62.3483 90.7036C62.3483 91.1196 62.227 91.4793 61.9843 91.7826C61.7416 92.086 61.3993 92.3243 60.9573 92.4976C60.5153 92.6623 59.9866 92.7446 59.3713 92.7446ZM66.274 92.7446C65.5807 92.7446 65.0433 92.5583 64.662 92.1856C64.2807 91.813 64.09 91.28 64.09 90.5866V84.2686H65.338V90.5346C65.338 90.9073 65.429 91.1933 65.611 91.3926C65.8017 91.592 66.0703 91.6916 66.417 91.6916C66.807 91.6916 67.132 91.5833 67.392 91.3666L67.782 92.2636C67.5913 92.4283 67.3617 92.5496 67.093 92.6276C66.833 92.7056 66.56 92.7446 66.274 92.7446ZM62.92 86.8036V85.7766H67.314V86.8036H62.92ZM72.1898 92.7446C71.6005 92.7446 71.0805 92.6363 70.6298 92.4196C70.1878 92.203 69.8412 91.8736 69.5898 91.4316C69.3472 90.981 69.2258 90.4176 69.2258 89.7416V85.7766H70.4738V89.5986C70.4738 90.2746 70.6342 90.7816 70.9548 91.1196C71.2842 91.4576 71.7435 91.6266 72.3328 91.6266C72.7662 91.6266 73.1432 91.54 73.4638 91.3666C73.7845 91.1846 74.0315 90.9246 74.2048 90.5866C74.3782 90.24 74.4648 89.824 74.4648 89.3386V85.7766H75.7128V92.6666H74.5298V90.8076L74.7248 91.3016C74.4995 91.761 74.1615 92.1163 73.7108 92.3676C73.2602 92.619 72.7532 92.7446 72.1898 92.7446ZM80.9357 92.7446C80.2683 92.7446 79.6703 92.5973 79.1417 92.3026C78.6217 92.008 78.21 91.5963 77.9067 91.0676C77.6033 90.539 77.4517 89.9236 77.4517 89.2216C77.4517 88.5196 77.6033 87.9086 77.9067 87.3886C78.21 86.86 78.6217 86.4483 79.1417 86.1536C79.6703 85.859 80.2683 85.7116 80.9357 85.7116C81.5163 85.7116 82.0407 85.8416 82.5087 86.1016C82.9767 86.3616 83.3493 86.7516 83.6267 87.2716C83.9127 87.7916 84.0557 88.4416 84.0557 89.2216C84.0557 90.0016 83.917 90.6516 83.6397 91.1716C83.371 91.6916 83.0027 92.086 82.5347 92.3546C82.0667 92.6146 81.5337 92.7446 80.9357 92.7446ZM81.0397 91.6526C81.473 91.6526 81.863 91.553 82.2097 91.3536C82.565 91.1543 82.8423 90.8726 83.0417 90.5086C83.2497 90.136 83.3537 89.707 83.3537 89.2216C83.3537 88.7276 83.2497 88.303 83.0417 87.9476C82.8423 87.5836 82.565 87.302 82.2097 87.1026C81.863 86.9033 81.473 86.8036 81.0397 86.8036C80.5977 86.8036 80.2033 86.9033 79.8567 87.1026C79.51 87.302 79.2327 87.5836 79.0247 87.9476C78.8167 88.303 78.7127 88.7276 78.7127 89.2216C78.7127 89.707 78.8167 90.136 79.0247 90.5086C79.2327 90.8726 79.51 91.1543 79.8567 91.3536C80.2033 91.553 80.5977 91.6526 81.0397 91.6526ZM83.3927 92.6666V90.8076L83.4707 89.2086L83.3407 87.6096V83.0206H84.5887V92.6666H83.3927ZM87.2363 95.2666C86.907 95.2666 86.5863 95.2103 86.2743 95.0976C85.9623 94.9936 85.6936 94.8376 85.4683 94.6296L86.0013 93.6936C86.1746 93.8583 86.3653 93.984 86.5733 94.0706C86.7813 94.1573 87.0023 94.2006 87.2363 94.2006C87.5396 94.2006 87.791 94.1226 87.9903 93.9666C88.1896 93.8106 88.376 93.5333 88.5493 93.1346L88.9783 92.1856L89.1083 92.0296L91.8123 85.7766H93.0343L89.6933 93.3556C89.494 93.841 89.2686 94.2223 89.0173 94.4996C88.7746 94.777 88.506 94.972 88.2113 95.0846C87.9166 95.206 87.5916 95.2666 87.2363 95.2666ZM88.8743 92.8876L85.7283 85.7766H87.0283L89.7063 91.9126L88.8743 92.8876ZM101.343 92.7446C100.754 92.7446 100.221 92.6146 99.7442 92.3546C99.2762 92.086 98.9036 91.6916 98.6262 91.1716C98.3576 90.6516 98.2232 90.0016 98.2232 89.2216C98.2232 88.4416 98.3619 87.7916 98.6392 87.2716C98.9252 86.7516 99.3022 86.3616 99.7702 86.1016C100.247 85.8416 100.771 85.7116 101.343 85.7116C102.019 85.7116 102.617 85.859 103.137 86.1536C103.657 86.4483 104.069 86.86 104.372 87.3886C104.676 87.9086 104.827 88.5196 104.827 89.2216C104.827 89.9236 104.676 90.539 104.372 91.0676C104.069 91.5963 103.657 92.008 103.137 92.3026C102.617 92.5973 102.019 92.7446 101.343 92.7446ZM97.6902 92.6666V83.0206H98.9382V87.6096L98.8082 89.2086L98.8862 90.8076V92.6666H97.6902ZM101.239 91.6526C101.681 91.6526 102.076 91.553 102.422 91.3536C102.778 91.1543 103.055 90.8726 103.254 90.5086C103.462 90.136 103.566 89.707 103.566 89.2216C103.566 88.7276 103.462 88.303 103.254 87.9476C103.055 87.5836 102.778 87.302 102.422 87.1026C102.076 86.9033 101.681 86.8036 101.239 86.8036C100.806 86.8036 100.412 86.9033 100.056 87.1026C99.7096 87.302 99.4322 87.5836 99.2242 87.9476C99.0249 88.303 98.9252 88.7276 98.9252 89.2216C98.9252 89.707 99.0249 90.136 99.2242 90.5086C99.4322 90.8726 99.7096 91.1543 100.056 91.3536C100.412 91.553 100.806 91.6526 101.239 91.6526ZM109.62 92.7446C108.883 92.7446 108.233 92.593 107.67 92.2896C107.115 91.9863 106.682 91.5703 106.37 91.0416C106.066 90.513 105.915 89.9063 105.915 89.2216C105.915 88.537 106.062 87.9303 106.357 87.4016C106.66 86.873 107.072 86.4613 107.592 86.1666C108.12 85.8633 108.714 85.7116 109.373 85.7116C110.04 85.7116 110.629 85.859 111.141 86.1536C111.652 86.4483 112.051 86.8643 112.337 87.4016C112.631 87.9303 112.779 88.55 112.779 89.2606C112.779 89.3126 112.774 89.3733 112.766 89.4426C112.766 89.512 112.761 89.577 112.753 89.6376H106.89V88.7406H112.103L111.596 89.0526C111.604 88.6106 111.513 88.2163 111.323 87.8696C111.132 87.523 110.868 87.2543 110.53 87.0636C110.2 86.8643 109.815 86.7646 109.373 86.7646C108.939 86.7646 108.554 86.8643 108.216 87.0636C107.878 87.2543 107.613 87.5273 107.423 87.8826C107.232 88.2293 107.137 88.628 107.137 89.0786V89.2866C107.137 89.746 107.241 90.1576 107.449 90.5216C107.665 90.877 107.964 91.1543 108.346 91.3536C108.727 91.553 109.165 91.6526 109.659 91.6526C110.066 91.6526 110.434 91.5833 110.764 91.4446C111.102 91.306 111.396 91.098 111.648 90.8206L112.337 91.6266C112.025 91.9906 111.635 92.268 111.167 92.4586C110.707 92.6493 110.192 92.7446 109.62 92.7446ZM116.878 92.7446C116.184 92.7446 115.647 92.5583 115.266 92.1856C114.884 91.813 114.694 91.28 114.694 90.5866V84.2686H115.942V90.5346C115.942 90.9073 116.033 91.1933 116.215 91.3926C116.405 91.592 116.674 91.6916 117.021 91.6916C117.411 91.6916 117.736 91.5833 117.996 91.3666L118.386 92.2636C118.195 92.4283 117.965 92.5496 117.697 92.6276C117.437 92.7056 117.164 92.7446 116.878 92.7446ZM113.524 86.8036V85.7766H117.918V86.8036H113.524ZM122.095 92.7446C121.402 92.7446 120.865 92.5583 120.483 92.1856C120.102 91.813 119.911 91.28 119.911 90.5866V84.2686H121.159V90.5346C121.159 90.9073 121.25 91.1933 121.432 91.3926C121.623 91.592 121.892 91.6916 122.238 91.6916C122.628 91.6916 122.953 91.5833 123.213 91.3666L123.603 92.2636C123.413 92.4283 123.183 92.5496 122.914 92.6276C122.654 92.7056 122.381 92.7446 122.095 92.7446ZM118.741 86.8036V85.7766H123.135V86.8036H118.741ZM127.952 92.7446C127.215 92.7446 126.565 92.593 126.002 92.2896C125.447 91.9863 125.014 91.5703 124.702 91.0416C124.398 90.513 124.247 89.9063 124.247 89.2216C124.247 88.537 124.394 87.9303 124.689 87.4016C124.992 86.873 125.404 86.4613 125.924 86.1666C126.452 85.8633 127.046 85.7116 127.705 85.7116C128.372 85.7116 128.961 85.859 129.473 86.1536C129.984 86.4483 130.383 86.8643 130.669 87.4016C130.963 87.9303 131.111 88.55 131.111 89.2606C131.111 89.3126 131.106 89.3733 131.098 89.4426C131.098 89.512 131.093 89.577 131.085 89.6376H125.222V88.7406H130.435L129.928 89.0526C129.936 88.6106 129.845 88.2163 129.655 87.8696C129.464 87.523 129.2 87.2543 128.862 87.0636C128.532 86.8643 128.147 86.7646 127.705 86.7646C127.271 86.7646 126.886 86.8643 126.548 87.0636C126.21 87.2543 125.945 87.5273 125.755 87.8826C125.564 88.2293 125.469 88.628 125.469 89.0786V89.2866C125.469 89.746 125.573 90.1576 125.781 90.5216C125.997 90.877 126.296 91.1543 126.678 91.3536C127.059 91.553 127.497 91.6526 127.991 91.6526C128.398 91.6526 128.766 91.5833 129.096 91.4446C129.434 91.306 129.728 91.098 129.98 90.8206L130.669 91.6266C130.357 91.9906 129.967 92.268 129.499 92.4586C129.039 92.6493 128.524 92.7446 127.952 92.7446ZM132.844 92.6666V85.7766H134.04V87.6486L133.923 87.1806C134.113 86.704 134.434 86.34 134.885 86.0886C135.335 85.8373 135.89 85.7116 136.549 85.7116V86.9206C136.497 86.912 136.445 86.9076 136.393 86.9076C136.349 86.9076 136.306 86.9076 136.263 86.9076C135.595 86.9076 135.067 87.107 134.677 87.5056C134.287 87.9043 134.092 88.4806 134.092 89.2346V92.6666H132.844ZM138.348 92.7446C138.105 92.7446 137.897 92.6623 137.724 92.4976C137.55 92.3243 137.464 92.1076 137.464 91.8476C137.464 91.5876 137.55 91.3753 137.724 91.2106C137.897 91.046 138.105 90.9636 138.348 90.9636C138.582 90.9636 138.781 91.046 138.946 91.2106C139.119 91.3753 139.206 91.5876 139.206 91.8476C139.206 92.1076 139.119 92.3243 138.946 92.4976C138.781 92.6623 138.582 92.7446 138.348 92.7446Z" fill="#AEAEAE"/>
</g>
<defs>
<filter id="filter0_d_1371_286" x="5.72205e-06" y="-2.47955e-05" width="309.934" height="128.2" filterUnits="userSpaceOnUse" color-interpolation-filters="sRGB">
<feFlood flood-opacity="0" result="BackgroundImageFix"/>
<feColorMatrix in="SourceAlpha" type="matrix" values="0 0 0 0 0 0 0 0 0 0 0 0 0 0 0 0 0 0 127 0" result="hardAlpha"/>
<feOffset/>
<feGaussianBlur stdDeviation="5.8"/>
<feComposite in2="hardAlpha" operator="out"/>
<feColorMatrix type="matrix" values="0 0 0 0 0.135799 0 0 0 0 0.135799 0 0 0 0 0.135799 0 0 0 0.1 0"/>
<feBlend mode="normal" in2="BackgroundImageFix" result="effect1_dropShadow_1371_286"/>
<feBlend mode="normal" in="SourceGraphic" in2="effect1_dropShadow_1371_286" result="shape"/>
</filter>
</defs>
</svg>
