<svg width="192" height="116" viewBox="0 0 192 116" fill="none" xmlns="http://www.w3.org/2000/svg">
<g clip-path="url(#clip0_1321_255)">
<path d="M81.5953 19.8087C100.831 17.5672 122.403 16.4973 144.208 19.5865C151.03 20.5653 157.719 21.9133 164.256 24.7977C167.177 26.1162 170.132 27.6627 172.861 29.5919C174.862 31.0456 176.67 33.11 178.126 35.3424C181.634 40.6521 181.751 46.5759 178.319 51.3899C176.293 54.25 173.924 56.6946 171.321 58.8242C163.954 65.0312 155.785 69.6088 147.422 73.5157C140.466 76.7502 133.142 78.7574 125.767 80.4225C124.863 80.6717 123.926 80.6928 123.256 81.2571C122.662 81.6938 122.076 82.8282 122.176 83.5124C122.402 84.4112 123.273 85.2153 123.984 85.5768C124.696 85.9383 125.583 85.5751 126.32 85.4669C138.491 83.7966 149.749 79.1151 160.355 72.549C165.528 69.3433 170.542 65.6949 175.431 61.832C177.959 59.83 180.277 57.0433 182.102 54.0961C186.07 47.8056 185.995 40.2448 182.144 33.2382C180.194 29.5639 177.532 26.8094 174.569 24.5651C169.186 20.5792 163.411 18.3984 157.534 16.8147C146.075 13.721 134.532 12.6198 122.922 12.3439C109.127 11.9228 95.4991 12.642 81.8213 14.3005C65.5654 16.3375 49.5104 19.7429 34.3593 26.7432C28.2738 29.5005 22.5984 33.1294 17.5843 38.0592C14.303 41.3367 11.4402 44.9022 9.49814 49.6139C6.37581 57.1782 6.98682 64.5439 11.2558 71.8385C13.6415 75.9149 16.6465 79.0849 19.9697 81.8588C28.7589 89.1888 38.4354 93.5927 48.497 96.7752C61.6139 100.907 74.8814 102.221 88.149 102.254C105.183 102.316 121.799 99.5269 138.131 94.7996C152.21 90.7523 165.905 85.3636 178.595 76.9772C180.227 75.9221 181.734 74.6525 183.241 73.3829C184.337 72.523 184.923 71.3886 184.212 69.7457C183.659 68.5454 182.395 68.265 181.056 69.3935C173.196 75.44 164.431 79.1729 155.667 82.9059C145.388 87.2107 134.74 90.2882 124.009 92.7955C104.89 97.1166 85.4704 98.1038 65.8495 95.1597C55.3024 93.7958 44.8892 90.7814 34.8193 85.6198C29.6378 83.0023 24.6489 79.774 20.1539 75.4248C18.5049 73.803 16.9144 71.9397 15.4914 69.9353C11.1889 63.694 10.7537 56.885 14.3531 50.6485C16.1445 47.4733 18.4632 44.6866 20.9075 42.1144C26.2982 36.5469 32.7605 33.1519 39.5073 30.4141C52.281 25.1606 65.6491 22.0332 81.5953 19.8087Z" fill="url(#paint0_linear_1321_255)"/>
</g>
<defs>
<linearGradient id="paint0_linear_1321_255" x1="103.658" y1="101.757" x2="90.6204" y2="12.9472" gradientUnits="userSpaceOnUse">
<stop stop-color="#E9EAE0"/>
<stop offset="1" stop-color="#EDD6D3"/>
</linearGradient>
<clipPath id="clip0_1321_255">
<rect width="180.73" height="89.7622" fill="white" transform="matrix(0.989395 -0.145249 -0.145249 -0.989395 13.0379 115.061)"/>
</clipPath>
</defs>
</svg>
