<svg width="310" height="129" viewBox="0 0 310 129" fill="none" xmlns="http://www.w3.org/2000/svg">
<g filter="url(#filter0_d_1363_506)">
<rect x="11.6" y="11.6" width="286.734" height="105" rx="20" fill="white" shape-rendering="crispEdges"/>
<path d="M32.024 39.056H37.592V40.768H32.024V39.056ZM32.184 43.856H38.504V45.6H30.104V34.4H38.28V36.144H32.184V43.856ZM39.3221 45.6L43.0821 40.704L43.0501 41.776L39.4661 37.056H41.6901L44.2021 40.416H43.3541L45.8821 37.056H48.0421L44.4261 41.776L44.4421 40.704L48.1861 45.6H45.9301L43.2901 42.032L44.1221 42.144L41.5301 45.6H39.3221ZM54.398 45.712C53.7047 45.712 53.07 45.552 52.494 45.232C51.9287 44.912 51.4753 44.432 51.134 43.792C50.8033 43.1413 50.638 42.32 50.638 41.328C50.638 40.3253 50.798 39.504 51.118 38.864C51.4487 38.224 51.8967 37.7493 52.462 37.44C53.0273 37.12 53.6727 36.96 54.398 36.96C55.2407 36.96 55.982 37.1413 56.622 37.504C57.2727 37.8667 57.7847 38.3733 58.158 39.024C58.542 39.6747 58.734 40.4427 58.734 41.328C58.734 42.2133 58.542 42.9867 58.158 43.648C57.7847 44.2987 57.2727 44.8053 56.622 45.168C55.982 45.5307 55.2407 45.712 54.398 45.712ZM49.662 48.704V37.056H51.566V39.072L51.502 41.344L51.662 43.616V48.704H49.662ZM54.174 44C54.654 44 55.0807 43.8933 55.454 43.68C55.838 43.4667 56.142 43.1573 56.366 42.752C56.59 42.3467 56.702 41.872 56.702 41.328C56.702 40.7733 56.59 40.2987 56.366 39.904C56.142 39.4987 55.838 39.1893 55.454 38.976C55.0807 38.7627 54.654 38.656 54.174 38.656C53.694 38.656 53.262 38.7627 52.878 38.976C52.494 39.1893 52.19 39.4987 51.966 39.904C51.742 40.2987 51.63 40.7733 51.63 41.328C51.63 41.872 51.742 42.3467 51.966 42.752C52.19 43.1573 52.494 43.4667 52.878 43.68C53.262 43.8933 53.694 44 54.174 44ZM60.6308 45.6V33.728H62.6308V45.6H60.6308ZM69.0958 45.712C68.2211 45.712 67.4424 45.5253 66.7598 45.152C66.0771 44.768 65.5384 44.2453 65.1438 43.584C64.7491 42.9227 64.5518 42.1707 64.5518 41.328C64.5518 40.4747 64.7491 39.7227 65.1438 39.072C65.5384 38.4107 66.0771 37.8933 66.7598 37.52C67.4424 37.1467 68.2211 36.96 69.0958 36.96C69.9811 36.96 70.7651 37.1467 71.4478 37.52C72.1411 37.8933 72.6798 38.4053 73.0638 39.056C73.4584 39.7067 73.6558 40.464 73.6558 41.328C73.6558 42.1707 73.4584 42.9227 73.0638 43.584C72.6798 44.2453 72.1411 44.768 71.4478 45.152C70.7651 45.5253 69.9811 45.712 69.0958 45.712ZM69.0958 44C69.5864 44 70.0238 43.8933 70.4078 43.68C70.7918 43.4667 71.0904 43.1573 71.3038 42.752C71.5278 42.3467 71.6398 41.872 71.6398 41.328C71.6398 40.7733 71.5278 40.2987 71.3038 39.904C71.0904 39.4987 70.7918 39.1893 70.4078 38.976C70.0238 38.7627 69.5918 38.656 69.1118 38.656C68.6211 38.656 68.1838 38.7627 67.7998 38.976C67.4264 39.1893 67.1278 39.4987 66.9038 39.904C66.6798 40.2987 66.5678 40.7733 66.5678 41.328C66.5678 41.872 66.6798 42.3467 66.9038 42.752C67.1278 43.1573 67.4264 43.4667 67.7998 43.68C68.1838 43.8933 68.6158 44 69.0958 44ZM75.5683 45.6V37.056H77.4723V39.408L77.2483 38.72C77.5043 38.144 77.9043 37.7067 78.4483 37.408C79.0029 37.1093 79.6909 36.96 80.5123 36.96V38.864C80.4269 38.8427 80.3469 38.832 80.2723 38.832C80.1976 38.8213 80.1229 38.816 80.0483 38.816C79.2909 38.816 78.6883 39.04 78.2403 39.488C77.7923 39.9253 77.5683 40.5813 77.5683 41.456V45.6H75.5683ZM86.1468 45.712C85.1974 45.712 84.3654 45.5253 83.6508 45.152C82.9468 44.768 82.3974 44.2453 82.0028 43.584C81.6188 42.9227 81.4268 42.1707 81.4268 41.328C81.4268 40.4747 81.6134 39.7227 81.9868 39.072C82.3708 38.4107 82.8934 37.8933 83.5548 37.52C84.2268 37.1467 84.9894 36.96 85.8428 36.96C86.6748 36.96 87.4161 37.1413 88.0668 37.504C88.7174 37.8667 89.2294 38.3787 89.6028 39.04C89.9761 39.7013 90.1628 40.48 90.1628 41.376C90.1628 41.4613 90.1574 41.5573 90.1468 41.664C90.1468 41.7707 90.1414 41.872 90.1308 41.968H83.0108V40.64H89.0748L88.2908 41.056C88.3014 40.5653 88.2001 40.1333 87.9868 39.76C87.7734 39.3867 87.4801 39.0933 87.1068 38.88C86.7441 38.6667 86.3228 38.56 85.8428 38.56C85.3521 38.56 84.9201 38.6667 84.5468 38.88C84.1841 39.0933 83.8961 39.392 83.6828 39.776C83.4801 40.1493 83.3788 40.592 83.3788 41.104V41.424C83.3788 41.936 83.4961 42.3893 83.7308 42.784C83.9654 43.1787 84.2961 43.4827 84.7228 43.696C85.1494 43.9093 85.6401 44.016 86.1948 44.016C86.6748 44.016 87.1068 43.9413 87.4908 43.792C87.8748 43.6427 88.2161 43.408 88.5148 43.088L89.5868 44.32C89.2028 44.768 88.7174 45.1147 88.1308 45.36C87.5548 45.5947 86.8934 45.712 86.1468 45.712ZM101.882 45.76C101.028 45.76 100.234 45.6213 99.4978 45.344C98.7724 45.056 98.1378 44.656 97.5938 44.144C97.0604 43.6213 96.6444 43.008 96.3458 42.304C96.0471 41.6 95.8978 40.832 95.8978 40C95.8978 39.168 96.0471 38.4 96.3458 37.696C96.6444 36.992 97.0658 36.384 97.6098 35.872C98.1538 35.3493 98.7884 34.9493 99.5138 34.672C100.239 34.384 101.034 34.24 101.898 34.24C102.815 34.24 103.652 34.4 104.41 34.72C105.167 35.0293 105.807 35.4933 106.33 36.112L104.986 37.376C104.58 36.9387 104.127 36.6133 103.626 36.4C103.124 36.176 102.58 36.064 101.994 36.064C101.407 36.064 100.868 36.16 100.378 36.352C99.8978 36.544 99.4764 36.816 99.1138 37.168C98.7618 37.52 98.4844 37.936 98.2818 38.416C98.0898 38.896 97.9938 39.424 97.9938 40C97.9938 40.576 98.0898 41.104 98.2818 41.584C98.4844 42.064 98.7618 42.48 99.1138 42.832C99.4764 43.184 99.8978 43.456 100.378 43.648C100.868 43.84 101.407 43.936 101.994 43.936C102.58 43.936 103.124 43.8293 103.626 43.616C104.127 43.392 104.58 43.056 104.986 42.608L106.33 43.888C105.807 44.496 105.167 44.96 104.41 45.28C103.652 45.6 102.81 45.76 101.882 45.76ZM113.317 45.6V43.872L113.205 43.504V40.48C113.205 39.8933 113.029 39.44 112.677 39.12C112.325 38.7893 111.791 38.624 111.077 38.624C110.597 38.624 110.122 38.6987 109.653 38.848C109.194 38.9973 108.805 39.2053 108.485 39.472L107.701 38.016C108.159 37.664 108.703 37.4027 109.333 37.232C109.973 37.0507 110.634 36.96 111.317 36.96C112.554 36.96 113.509 37.2587 114.181 37.856C114.863 38.4427 115.205 39.3547 115.205 40.592V45.6H113.317ZM110.629 45.712C109.989 45.712 109.429 45.6053 108.949 45.392C108.469 45.168 108.095 44.864 107.829 44.48C107.573 44.0853 107.445 43.6427 107.445 43.152C107.445 42.672 107.557 42.24 107.781 41.856C108.015 41.472 108.394 41.168 108.917 40.944C109.439 40.72 110.133 40.608 110.997 40.608H113.477V41.936H111.141C110.458 41.936 109.999 42.048 109.765 42.272C109.53 42.4853 109.413 42.752 109.413 43.072C109.413 43.4347 109.557 43.7227 109.845 43.936C110.133 44.1493 110.533 44.256 111.045 44.256C111.535 44.256 111.973 44.144 112.357 43.92C112.751 43.696 113.034 43.3653 113.205 42.928L113.541 44.128C113.349 44.6293 113.002 45.0187 112.501 45.296C112.01 45.5733 111.386 45.712 110.629 45.712ZM120.987 45.712C120.049 45.712 119.323 45.472 118.811 44.992C118.299 44.5013 118.043 43.7813 118.043 42.832V35.168H120.043V42.784C120.043 43.1893 120.145 43.504 120.347 43.728C120.561 43.952 120.854 44.064 121.227 44.064C121.675 44.064 122.049 43.9467 122.347 43.712L122.907 45.136C122.673 45.328 122.385 45.472 122.043 45.568C121.702 45.664 121.35 45.712 120.987 45.712ZM116.635 38.72V37.12H122.331V38.72H116.635ZM128.287 45.712C127.338 45.712 126.506 45.5253 125.791 45.152C125.087 44.768 124.538 44.2453 124.143 43.584C123.759 42.9227 123.567 42.1707 123.567 41.328C123.567 40.4747 123.754 39.7227 124.127 39.072C124.511 38.4107 125.034 37.8933 125.695 37.52C126.367 37.1467 127.13 36.96 127.983 36.96C128.815 36.96 129.557 37.1413 130.207 37.504C130.858 37.8667 131.37 38.3787 131.743 39.04C132.117 39.7013 132.303 40.48 132.303 41.376C132.303 41.4613 132.298 41.5573 132.287 41.664C132.287 41.7707 132.282 41.872 132.271 41.968H125.151V40.64H131.215L130.431 41.056C130.442 40.5653 130.341 40.1333 130.127 39.76C129.914 39.3867 129.621 39.0933 129.247 38.88C128.885 38.6667 128.463 38.56 127.983 38.56C127.493 38.56 127.061 38.6667 126.687 38.88C126.325 39.0933 126.037 39.392 125.823 39.776C125.621 40.1493 125.519 40.592 125.519 41.104V41.424C125.519 41.936 125.637 42.3893 125.871 42.784C126.106 43.1787 126.437 43.4827 126.863 43.696C127.29 43.9093 127.781 44.016 128.335 44.016C128.815 44.016 129.247 43.9413 129.631 43.792C130.015 43.6427 130.357 43.408 130.655 43.088L131.727 44.32C131.343 44.768 130.858 45.1147 130.271 45.36C129.695 45.5947 129.034 45.712 128.287 45.712ZM138.097 48.816C137.307 48.816 136.534 48.7093 135.777 48.496C135.03 48.2933 134.417 47.9947 133.937 47.6L134.833 46.096C135.206 46.4053 135.675 46.6507 136.241 46.832C136.817 47.024 137.398 47.12 137.985 47.12C138.923 47.12 139.611 46.9013 140.049 46.464C140.486 46.0373 140.705 45.392 140.705 44.528V43.008L140.865 41.072L140.801 39.136V37.056H142.705V44.304C142.705 45.8507 142.31 46.9867 141.521 47.712C140.731 48.448 139.59 48.816 138.097 48.816ZM137.841 45.216C137.03 45.216 136.294 45.0453 135.633 44.704C134.982 44.352 134.465 43.8667 134.081 43.248C133.707 42.6293 133.521 41.904 133.521 41.072C133.521 40.2507 133.707 39.5307 134.081 38.912C134.465 38.2933 134.982 37.8133 135.633 37.472C136.294 37.1307 137.03 36.96 137.841 36.96C138.566 36.96 139.217 37.104 139.793 37.392C140.369 37.68 140.827 38.128 141.169 38.736C141.521 39.344 141.697 40.1227 141.697 41.072C141.697 42.0213 141.521 42.8053 141.169 43.424C140.827 44.032 140.369 44.4853 139.793 44.784C139.217 45.072 138.566 45.216 137.841 45.216ZM138.145 43.52C138.646 43.52 139.094 43.4187 139.489 43.216C139.883 43.0027 140.187 42.7147 140.401 42.352C140.625 41.9787 140.737 41.552 140.737 41.072C140.737 40.592 140.625 40.1707 140.401 39.808C140.187 39.4347 139.883 39.152 139.489 38.96C139.094 38.7573 138.646 38.656 138.145 38.656C137.643 38.656 137.19 38.7573 136.785 38.96C136.39 39.152 136.081 39.4347 135.857 39.808C135.643 40.1707 135.537 40.592 135.537 41.072C135.537 41.552 135.643 41.9787 135.857 42.352C136.081 42.7147 136.39 43.0027 136.785 43.216C137.19 43.4187 137.643 43.52 138.145 43.52ZM149.174 45.712C148.299 45.712 147.521 45.5253 146.838 45.152C146.155 44.768 145.617 44.2453 145.222 43.584C144.827 42.9227 144.63 42.1707 144.63 41.328C144.63 40.4747 144.827 39.7227 145.222 39.072C145.617 38.4107 146.155 37.8933 146.838 37.52C147.521 37.1467 148.299 36.96 149.174 36.96C150.059 36.96 150.843 37.1467 151.526 37.52C152.219 37.8933 152.758 38.4053 153.142 39.056C153.537 39.7067 153.734 40.464 153.734 41.328C153.734 42.1707 153.537 42.9227 153.142 43.584C152.758 44.2453 152.219 44.768 151.526 45.152C150.843 45.5253 150.059 45.712 149.174 45.712ZM149.174 44C149.665 44 150.102 43.8933 150.486 43.68C150.87 43.4667 151.169 43.1573 151.382 42.752C151.606 42.3467 151.718 41.872 151.718 41.328C151.718 40.7733 151.606 40.2987 151.382 39.904C151.169 39.4987 150.87 39.1893 150.486 38.976C150.102 38.7627 149.67 38.656 149.19 38.656C148.699 38.656 148.262 38.7627 147.878 38.976C147.505 39.1893 147.206 39.4987 146.982 39.904C146.758 40.2987 146.646 40.7733 146.646 41.328C146.646 41.872 146.758 42.3467 146.982 42.752C147.206 43.1573 147.505 43.4667 147.878 43.68C148.262 43.8933 148.694 44 149.174 44ZM155.646 45.6V37.056H157.55V39.408L157.326 38.72C157.582 38.144 157.982 37.7067 158.526 37.408C159.081 37.1093 159.769 36.96 160.59 36.96V38.864C160.505 38.8427 160.425 38.832 160.35 38.832C160.276 38.8213 160.201 38.816 160.126 38.816C159.369 38.816 158.766 39.04 158.318 39.488C157.87 39.9253 157.646 40.5813 157.646 41.456V45.6H155.646ZM162.287 45.6V37.056H164.287V45.6H162.287ZM163.295 35.648C162.922 35.648 162.612 35.5307 162.367 35.296C162.132 35.0613 162.015 34.7787 162.015 34.448C162.015 34.1067 162.132 33.824 162.367 33.6C162.612 33.3653 162.922 33.248 163.295 33.248C163.668 33.248 163.972 33.36 164.207 33.584C164.452 33.7973 164.575 34.0693 164.575 34.4C164.575 34.752 164.458 35.0507 164.223 35.296C163.988 35.5307 163.679 35.648 163.295 35.648ZM170.928 45.712C169.979 45.712 169.147 45.5253 168.432 45.152C167.728 44.768 167.179 44.2453 166.784 43.584C166.4 42.9227 166.208 42.1707 166.208 41.328C166.208 40.4747 166.395 39.7227 166.768 39.072C167.152 38.4107 167.675 37.8933 168.336 37.52C169.008 37.1467 169.771 36.96 170.624 36.96C171.456 36.96 172.197 37.1413 172.848 37.504C173.499 37.8667 174.011 38.3787 174.384 39.04C174.757 39.7013 174.944 40.48 174.944 41.376C174.944 41.4613 174.939 41.5573 174.928 41.664C174.928 41.7707 174.923 41.872 174.912 41.968H167.792V40.64H173.856L173.072 41.056C173.083 40.5653 172.981 40.1333 172.768 39.76C172.555 39.3867 172.261 39.0933 171.888 38.88C171.525 38.6667 171.104 38.56 170.624 38.56C170.133 38.56 169.701 38.6667 169.328 38.88C168.965 39.0933 168.677 39.392 168.464 39.776C168.261 40.1493 168.16 40.592 168.16 41.104V41.424C168.16 41.936 168.277 42.3893 168.512 42.784C168.747 43.1787 169.077 43.4827 169.504 43.696C169.931 43.9093 170.421 44.016 170.976 44.016C171.456 44.016 171.888 43.9413 172.272 43.792C172.656 43.6427 172.997 43.408 173.296 43.088L174.368 44.32C173.984 44.768 173.499 45.1147 172.912 45.36C172.336 45.5947 171.675 45.712 170.928 45.712ZM179.505 45.712C178.79 45.712 178.102 45.6213 177.441 45.44C176.79 45.248 176.273 45.0187 175.889 44.752L176.657 43.232C177.041 43.4773 177.5 43.68 178.033 43.84C178.566 44 179.1 44.08 179.633 44.08C180.262 44.08 180.716 43.9947 180.993 43.824C181.281 43.6533 181.425 43.424 181.425 43.136C181.425 42.9013 181.329 42.7253 181.137 42.608C180.945 42.48 180.694 42.384 180.385 42.32C180.076 42.256 179.729 42.1973 179.345 42.144C178.972 42.0907 178.593 42.0213 178.209 41.936C177.836 41.84 177.494 41.7067 177.185 41.536C176.876 41.3547 176.625 41.1147 176.433 40.816C176.241 40.5173 176.145 40.1227 176.145 39.632C176.145 39.088 176.3 38.6187 176.609 38.224C176.918 37.8187 177.35 37.5093 177.905 37.296C178.47 37.072 179.137 36.96 179.905 36.96C180.481 36.96 181.062 37.024 181.649 37.152C182.236 37.28 182.721 37.4613 183.105 37.696L182.337 39.216C181.932 38.9707 181.521 38.8053 181.105 38.72C180.7 38.624 180.294 38.576 179.889 38.576C179.281 38.576 178.828 38.6667 178.529 38.848C178.241 39.0293 178.097 39.2587 178.097 39.536C178.097 39.792 178.193 39.984 178.385 40.112C178.577 40.24 178.828 40.3413 179.137 40.416C179.446 40.4907 179.788 40.5547 180.161 40.608C180.545 40.6507 180.924 40.72 181.297 40.816C181.67 40.912 182.012 41.0453 182.321 41.216C182.641 41.376 182.897 41.6053 183.089 41.904C183.281 42.2027 183.377 42.592 183.377 43.072C183.377 43.6053 183.217 44.0693 182.897 44.464C182.588 44.8587 182.145 45.168 181.569 45.392C180.993 45.6053 180.305 45.712 179.505 45.712Z" fill="#1F1F1F"/>
<path d="M34.034 72.7707C33.3407 72.7707 32.6993 72.658 32.11 72.4327C31.5293 72.1987 31.0223 71.8737 30.589 71.4577C30.1643 71.033 29.8307 70.539 29.588 69.9757C29.3453 69.4123 29.224 68.7927 29.224 68.1167C29.224 67.4407 29.3453 66.821 29.588 66.2577C29.8307 65.6943 30.1687 65.2047 30.602 64.7887C31.0353 64.364 31.5423 64.039 32.123 63.8137C32.7123 63.5797 33.3537 63.4627 34.047 63.4627C34.749 63.4627 35.3947 63.584 35.984 63.8267C36.582 64.0607 37.089 64.4117 37.505 64.8797L36.66 65.6987C36.3133 65.3347 35.9233 65.066 35.49 64.8927C35.0567 64.7107 34.593 64.6197 34.099 64.6197C33.5877 64.6197 33.111 64.7063 32.669 64.8797C32.2357 65.053 31.8587 65.2957 31.538 65.6077C31.2173 65.9197 30.966 66.2923 30.784 66.7257C30.6107 67.1503 30.524 67.614 30.524 68.1167C30.524 68.6193 30.6107 69.0873 30.784 69.5207C30.966 69.9453 31.2173 70.3137 31.538 70.6257C31.8587 70.9377 32.2357 71.1803 32.669 71.3537C33.111 71.527 33.5877 71.6137 34.099 71.6137C34.593 71.6137 35.0567 71.527 35.49 71.3537C35.9233 71.1717 36.3133 70.8943 36.66 70.5217L37.505 71.3407C37.089 71.8087 36.582 72.164 35.984 72.4067C35.3947 72.6493 34.7447 72.7707 34.034 72.7707ZM42.8565 65.7117C43.4199 65.7117 43.9139 65.82 44.3385 66.0367C44.7719 66.2533 45.1099 66.5827 45.3525 67.0247C45.5952 67.4667 45.7165 68.0257 45.7165 68.7017V72.6667H44.4685V68.8447C44.4685 68.1773 44.3039 67.6747 43.9745 67.3367C43.6539 66.9987 43.1989 66.8297 42.6095 66.8297C42.1675 66.8297 41.7819 66.9163 41.4525 67.0897C41.1232 67.263 40.8675 67.5187 40.6855 67.8567C40.5122 68.1947 40.4255 68.615 40.4255 69.1177V72.6667H39.1775V63.0207H40.4255V67.6357L40.1785 67.1417C40.4039 66.691 40.7505 66.34 41.2185 66.0887C41.6865 65.8373 42.2325 65.7117 42.8565 65.7117ZM50.9772 72.7447C50.2838 72.7447 49.6685 72.593 49.1312 72.2897C48.5938 71.9863 48.1692 71.5703 47.8572 71.0417C47.5452 70.5043 47.3892 69.8977 47.3892 69.2217C47.3892 68.537 47.5452 67.9303 47.8572 67.4017C48.1692 66.873 48.5938 66.4613 49.1312 66.1667C49.6685 65.8633 50.2838 65.7117 50.9772 65.7117C51.6618 65.7117 52.2728 65.8633 52.8102 66.1667C53.3562 66.4613 53.7808 66.873 54.0842 67.4017C54.3962 67.9217 54.5522 68.5283 54.5522 69.2217C54.5522 69.9063 54.3962 70.513 54.0842 71.0417C53.7808 71.5703 53.3562 71.9863 52.8102 72.2897C52.2728 72.593 51.6618 72.7447 50.9772 72.7447ZM50.9772 71.6527C51.4192 71.6527 51.8135 71.553 52.1602 71.3537C52.5155 71.1543 52.7928 70.8727 52.9922 70.5087C53.1915 70.136 53.2912 69.707 53.2912 69.2217C53.2912 68.7277 53.1915 68.303 52.9922 67.9477C52.7928 67.5837 52.5155 67.302 52.1602 67.1027C51.8135 66.9033 51.4192 66.8037 50.9772 66.8037C50.5352 66.8037 50.1408 66.9033 49.7942 67.1027C49.4475 67.302 49.1702 67.5837 48.9622 67.9477C48.7542 68.303 48.6502 68.7277 48.6502 69.2217C48.6502 69.707 48.7542 70.136 48.9622 70.5087C49.1702 70.8727 49.4475 71.1543 49.7942 71.3537C50.1408 71.553 50.5352 71.6527 50.9772 71.6527ZM59.2291 72.7447C58.5358 72.7447 57.9205 72.593 57.3831 72.2897C56.8458 71.9863 56.4211 71.5703 56.1091 71.0417C55.7971 70.5043 55.6411 69.8977 55.6411 69.2217C55.6411 68.537 55.7971 67.9303 56.1091 67.4017C56.4211 66.873 56.8458 66.4613 57.3831 66.1667C57.9205 65.8633 58.5358 65.7117 59.2291 65.7117C59.9138 65.7117 60.5248 65.8633 61.0621 66.1667C61.6081 66.4613 62.0328 66.873 62.3361 67.4017C62.6481 67.9217 62.8041 68.5283 62.8041 69.2217C62.8041 69.9063 62.6481 70.513 62.3361 71.0417C62.0328 71.5703 61.6081 71.9863 61.0621 72.2897C60.5248 72.593 59.9138 72.7447 59.2291 72.7447ZM59.2291 71.6527C59.6711 71.6527 60.0655 71.553 60.4121 71.3537C60.7675 71.1543 61.0448 70.8727 61.2441 70.5087C61.4435 70.136 61.5431 69.707 61.5431 69.2217C61.5431 68.7277 61.4435 68.303 61.2441 67.9477C61.0448 67.5837 60.7675 67.302 60.4121 67.1027C60.0655 66.9033 59.6711 66.8037 59.2291 66.8037C58.7871 66.8037 58.3928 66.9033 58.0461 67.1027C57.6995 67.302 57.4221 67.5837 57.2141 67.9477C57.0061 68.303 56.9021 68.7277 56.9021 69.2217C56.9021 69.707 57.0061 70.136 57.2141 70.5087C57.4221 70.8727 57.6995 71.1543 58.0461 71.3537C58.3928 71.553 58.7871 71.6527 59.2291 71.6527ZM66.5061 72.7447C65.9341 72.7447 65.3881 72.6667 64.8681 72.5107C64.3567 72.3547 63.9537 72.164 63.6591 71.9387L64.1791 70.9507C64.4737 71.15 64.8377 71.319 65.2711 71.4577C65.7044 71.5963 66.1464 71.6657 66.5971 71.6657C67.1777 71.6657 67.5937 71.5833 67.8451 71.4187C68.1051 71.254 68.2351 71.0243 68.2351 70.7297C68.2351 70.513 68.1571 70.344 68.0011 70.2227C67.8451 70.1013 67.6371 70.0103 67.3771 69.9497C67.1257 69.889 66.8441 69.837 66.5321 69.7937C66.2201 69.7417 65.9081 69.681 65.5961 69.6117C65.2841 69.5337 64.9981 69.4297 64.7381 69.2997C64.4781 69.161 64.2701 68.9747 64.1141 68.7407C63.9581 68.498 63.8801 68.1773 63.8801 67.7787C63.8801 67.3627 63.9971 66.9987 64.2311 66.6867C64.4651 66.3747 64.7944 66.1363 65.2191 65.9717C65.6524 65.7983 66.1637 65.7117 66.7531 65.7117C67.2037 65.7117 67.6587 65.768 68.1181 65.8807C68.5861 65.9847 68.9674 66.1363 69.2621 66.3357L68.7291 67.3237C68.4171 67.1157 68.0921 66.9727 67.7541 66.8947C67.4161 66.8167 67.0781 66.7777 66.7401 66.7777C66.1941 66.7777 65.7867 66.8687 65.5181 67.0507C65.2494 67.224 65.1151 67.4493 65.1151 67.7267C65.1151 67.9607 65.1931 68.1427 65.3491 68.2727C65.5137 68.394 65.7217 68.4893 65.9731 68.5587C66.2331 68.628 66.5191 68.6887 66.8311 68.7407C67.1431 68.784 67.4551 68.8447 67.7671 68.9227C68.0791 68.992 68.3607 69.0917 68.6121 69.2217C68.8721 69.3517 69.0801 69.5337 69.2361 69.7677C69.4007 70.0017 69.4831 70.3137 69.4831 70.7037C69.4831 71.1197 69.3617 71.4793 69.1191 71.7827C68.8764 72.086 68.5341 72.3243 68.0921 72.4977C67.6501 72.6623 67.1214 72.7447 66.5061 72.7447ZM74.1108 72.7447C73.3741 72.7447 72.7241 72.593 72.1608 72.2897C71.6061 71.9863 71.1728 71.5703 70.8608 71.0417C70.5574 70.513 70.4058 69.9063 70.4058 69.2217C70.4058 68.537 70.5531 67.9303 70.8478 67.4017C71.1511 66.873 71.5628 66.4613 72.0828 66.1667C72.6114 65.8633 73.2051 65.7117 73.8638 65.7117C74.5311 65.7117 75.1204 65.859 75.6318 66.1537C76.1431 66.4483 76.5418 66.8643 76.8278 67.4017C77.1224 67.9303 77.2698 68.55 77.2698 69.2607C77.2698 69.3127 77.2654 69.3733 77.2568 69.4427C77.2568 69.512 77.2524 69.577 77.2438 69.6377H71.3808V68.7407H76.5938L76.0868 69.0527C76.0954 68.6107 76.0044 68.2163 75.8138 67.8697C75.6231 67.523 75.3588 67.2543 75.0208 67.0637C74.6914 66.8643 74.3058 66.7647 73.8638 66.7647C73.4304 66.7647 73.0448 66.8643 72.7068 67.0637C72.3688 67.2543 72.1044 67.5273 71.9138 67.8827C71.7231 68.2293 71.6278 68.628 71.6278 69.0787V69.2867C71.6278 69.746 71.7318 70.1577 71.9398 70.5217C72.1564 70.877 72.4554 71.1543 72.8368 71.3537C73.2181 71.553 73.6558 71.6527 74.1498 71.6527C74.5571 71.6527 74.9254 71.5833 75.2548 71.4447C75.5928 71.306 75.8874 71.098 76.1388 70.8207L76.8278 71.6267C76.5158 71.9907 76.1258 72.268 75.6578 72.4587C75.1984 72.6493 74.6828 72.7447 74.1108 72.7447ZM86.7709 72.6667V71.2107L86.7059 70.9377V68.4547C86.7059 67.926 86.5499 67.5187 86.2379 67.2327C85.9346 66.938 85.4753 66.7907 84.8599 66.7907C84.4526 66.7907 84.0539 66.86 83.6639 66.9987C83.2739 67.1287 82.9446 67.3063 82.6759 67.5317L82.1559 66.5957C82.5113 66.3097 82.9359 66.093 83.4299 65.9457C83.9326 65.7897 84.4569 65.7117 85.0029 65.7117C85.9476 65.7117 86.6756 65.9413 87.1869 66.4007C87.6983 66.86 87.9539 67.562 87.9539 68.5067V72.6667H86.7709ZM84.5089 72.7447C83.9976 72.7447 83.5469 72.658 83.1569 72.4847C82.7756 72.3113 82.4809 72.073 82.2729 71.7697C82.0649 71.4577 81.9609 71.1067 81.9609 70.7167C81.9609 70.344 82.0476 70.006 82.2209 69.7027C82.4029 69.3993 82.6933 69.1567 83.0919 68.9747C83.4993 68.7927 84.0453 68.7017 84.7299 68.7017H86.9139V69.5987H84.7819C84.1579 69.5987 83.7376 69.7027 83.5209 69.9107C83.3043 70.1187 83.1959 70.37 83.1959 70.6647C83.1959 71.0027 83.3303 71.2757 83.5989 71.4837C83.8676 71.683 84.2403 71.7827 84.7169 71.7827C85.1849 71.7827 85.5923 71.6787 85.9389 71.4707C86.2943 71.2627 86.5499 70.9593 86.7059 70.5607L86.9529 71.4187C86.7883 71.826 86.4979 72.151 86.0819 72.3937C85.6659 72.6277 85.1416 72.7447 84.5089 72.7447ZM96.7577 72.7447C96.0557 72.7447 95.4274 72.593 94.8727 72.2897C94.3267 71.9863 93.8977 71.5703 93.5857 71.0417C93.2737 70.513 93.1177 69.9063 93.1177 69.2217C93.1177 68.537 93.2737 67.9303 93.5857 67.4017C93.8977 66.873 94.3267 66.4613 94.8727 66.1667C95.4274 65.8633 96.0557 65.7117 96.7577 65.7117C97.3817 65.7117 97.9364 65.8373 98.4217 66.0887C98.9157 66.3313 99.297 66.6953 99.5657 67.1807L98.6167 67.7917C98.3914 67.4537 98.114 67.2067 97.7847 67.0507C97.464 66.886 97.1174 66.8037 96.7447 66.8037C96.294 66.8037 95.891 66.9033 95.5357 67.1027C95.1804 67.302 94.8987 67.5837 94.6907 67.9477C94.4827 68.303 94.3787 68.7277 94.3787 69.2217C94.3787 69.7157 94.4827 70.1447 94.6907 70.5087C94.8987 70.8727 95.1804 71.1543 95.5357 71.3537C95.891 71.553 96.294 71.6527 96.7447 71.6527C97.1174 71.6527 97.464 71.5747 97.7847 71.4187C98.114 71.254 98.3914 71.0027 98.6167 70.6647L99.5657 71.2627C99.297 71.7393 98.9157 72.1077 98.4217 72.3677C97.9364 72.619 97.3817 72.7447 96.7577 72.7447ZM105.458 72.6667V71.2107L105.393 70.9377V68.4547C105.393 67.926 105.237 67.5187 104.925 67.2327C104.622 66.938 104.163 66.7907 103.547 66.7907C103.14 66.7907 102.741 66.86 102.351 66.9987C101.961 67.1287 101.632 67.3063 101.363 67.5317L100.843 66.5957C101.199 66.3097 101.623 66.093 102.117 65.9457C102.62 65.7897 103.144 65.7117 103.69 65.7117C104.635 65.7117 105.363 65.9413 105.874 66.4007C106.386 66.86 106.641 67.562 106.641 68.5067V72.6667H105.458ZM103.196 72.7447C102.685 72.7447 102.234 72.658 101.844 72.4847C101.463 72.3113 101.168 72.073 100.96 71.7697C100.752 71.4577 100.648 71.1067 100.648 70.7167C100.648 70.344 100.735 70.006 100.908 69.7027C101.09 69.3993 101.381 69.1567 101.779 68.9747C102.187 68.7927 102.733 68.7017 103.417 68.7017H105.601V69.5987H103.469C102.845 69.5987 102.425 69.7027 102.208 69.9107C101.992 70.1187 101.883 70.37 101.883 70.6647C101.883 71.0027 102.018 71.2757 102.286 71.4837C102.555 71.683 102.928 71.7827 103.404 71.7827C103.872 71.7827 104.28 71.6787 104.626 71.4707C104.982 71.2627 105.237 70.9593 105.393 70.5607L105.64 71.4187C105.476 71.826 105.185 72.151 104.769 72.3937C104.353 72.6277 103.829 72.7447 103.196 72.7447ZM111.317 72.7447C110.624 72.7447 110.086 72.5583 109.705 72.1857C109.324 71.813 109.133 71.28 109.133 70.5867V64.2687H110.381V70.5347C110.381 70.9073 110.472 71.1933 110.654 71.3927C110.845 71.592 111.113 71.6917 111.46 71.6917C111.85 71.6917 112.175 71.5833 112.435 71.3667L112.825 72.2637C112.634 72.4283 112.405 72.5497 112.136 72.6277C111.876 72.7057 111.603 72.7447 111.317 72.7447ZM107.963 66.8037V65.7767H112.357V66.8037H107.963ZM117.173 72.7447C116.437 72.7447 115.787 72.593 115.223 72.2897C114.669 71.9863 114.235 71.5703 113.923 71.0417C113.62 70.513 113.468 69.9063 113.468 69.2217C113.468 68.537 113.616 67.9303 113.91 67.4017C114.214 66.873 114.625 66.4613 115.145 66.1667C115.674 65.8633 116.268 65.7117 116.926 65.7117C117.594 65.7117 118.183 65.859 118.694 66.1537C119.206 66.4483 119.604 66.8643 119.89 67.4017C120.185 67.9303 120.332 68.55 120.332 69.2607C120.332 69.3127 120.328 69.3733 120.319 69.4427C120.319 69.512 120.315 69.577 120.306 69.6377H114.443V68.7407H119.656L119.149 69.0527C119.158 68.6107 119.067 68.2163 118.876 67.8697C118.686 67.523 118.421 67.2543 118.083 67.0637C117.754 66.8643 117.368 66.7647 116.926 66.7647C116.493 66.7647 116.107 66.8643 115.769 67.0637C115.431 67.2543 115.167 67.5273 114.976 67.8827C114.786 68.2293 114.69 68.628 114.69 69.0787V69.2867C114.69 69.746 114.794 70.1577 115.002 70.5217C115.219 70.877 115.518 71.1543 115.899 71.3537C116.281 71.553 116.718 71.6527 117.212 71.6527C117.62 71.6527 117.988 71.5833 118.317 71.4447C118.655 71.306 118.95 71.098 119.201 70.8207L119.89 71.6267C119.578 71.9907 119.188 72.268 118.72 72.4587C118.261 72.6493 117.745 72.7447 117.173 72.7447ZM125.081 75.2667C124.449 75.2667 123.833 75.1757 123.235 74.9937C122.646 74.8203 122.165 74.569 121.792 74.2397L122.39 73.2777C122.711 73.555 123.105 73.7717 123.573 73.9277C124.041 74.0923 124.531 74.1747 125.042 74.1747C125.857 74.1747 126.455 73.984 126.836 73.6027C127.218 73.2213 127.408 72.6407 127.408 71.8607V70.4047L127.538 69.0397L127.473 67.6617V65.7767H128.656V71.7307C128.656 72.944 128.353 73.8367 127.746 74.4087C127.14 74.9807 126.251 75.2667 125.081 75.2667ZM124.925 72.3807C124.258 72.3807 123.66 72.242 123.131 71.9647C122.611 71.6787 122.195 71.2843 121.883 70.7817C121.58 70.279 121.428 69.6983 121.428 69.0397C121.428 68.3723 121.58 67.7917 121.883 67.2977C122.195 66.795 122.611 66.405 123.131 66.1277C123.66 65.8503 124.258 65.7117 124.925 65.7117C125.515 65.7117 126.052 65.833 126.537 66.0757C127.023 66.3097 127.408 66.6737 127.694 67.1677C127.989 67.6617 128.136 68.2857 128.136 69.0397C128.136 69.785 127.989 70.4047 127.694 70.8987C127.408 71.3927 127.023 71.7653 126.537 72.0167C126.052 72.2593 125.515 72.3807 124.925 72.3807ZM125.068 71.2887C125.528 71.2887 125.935 71.1933 126.29 71.0027C126.646 70.812 126.923 70.5477 127.122 70.2097C127.33 69.8717 127.434 69.4817 127.434 69.0397C127.434 68.5977 127.33 68.2077 127.122 67.8697C126.923 67.5317 126.646 67.2717 126.29 67.0897C125.935 66.899 125.528 66.8037 125.068 66.8037C124.609 66.8037 124.197 66.899 123.833 67.0897C123.478 67.2717 123.196 67.5317 122.988 67.8697C122.789 68.2077 122.689 68.5977 122.689 69.0397C122.689 69.4817 122.789 69.8717 122.988 70.2097C123.196 70.5477 123.478 70.812 123.833 71.0027C124.197 71.1933 124.609 71.2887 125.068 71.2887ZM133.992 72.7447C133.298 72.7447 132.683 72.593 132.146 72.2897C131.608 71.9863 131.184 71.5703 130.872 71.0417C130.56 70.5043 130.404 69.8977 130.404 69.2217C130.404 68.537 130.56 67.9303 130.872 67.4017C131.184 66.873 131.608 66.4613 132.146 66.1667C132.683 65.8633 133.298 65.7117 133.992 65.7117C134.676 65.7117 135.287 65.8633 135.825 66.1667C136.371 66.4613 136.795 66.873 137.099 67.4017C137.411 67.9217 137.567 68.5283 137.567 69.2217C137.567 69.9063 137.411 70.513 137.099 71.0417C136.795 71.5703 136.371 71.9863 135.825 72.2897C135.287 72.593 134.676 72.7447 133.992 72.7447ZM133.992 71.6527C134.434 71.6527 134.828 71.553 135.175 71.3537C135.53 71.1543 135.807 70.8727 136.007 70.5087C136.206 70.136 136.306 69.707 136.306 69.2217C136.306 68.7277 136.206 68.303 136.007 67.9477C135.807 67.5837 135.53 67.302 135.175 67.1027C134.828 66.9033 134.434 66.8037 133.992 66.8037C133.55 66.8037 133.155 66.9033 132.809 67.1027C132.462 67.302 132.185 67.5837 131.977 67.9477C131.769 68.303 131.665 68.7277 131.665 69.2217C131.665 69.707 131.769 70.136 131.977 70.5087C132.185 70.8727 132.462 71.1543 132.809 71.3537C133.155 71.553 133.55 71.6527 133.992 71.6527ZM139.293 72.6667V65.7767H140.489V67.6487L140.372 67.1807C140.562 66.704 140.883 66.34 141.334 66.0887C141.784 65.8373 142.339 65.7117 142.998 65.7117V66.9207C142.946 66.912 142.894 66.9077 142.842 66.9077C142.798 66.9077 142.755 66.9077 142.712 66.9077C142.044 66.9077 141.516 67.107 141.126 67.5057C140.736 67.9043 140.541 68.4807 140.541 69.2347V72.6667H139.293ZM145.114 75.2667C144.785 75.2667 144.464 75.2103 144.152 75.0977C143.84 74.9937 143.572 74.8377 143.346 74.6297L143.879 73.6937C144.053 73.8583 144.243 73.984 144.451 74.0707C144.659 74.1573 144.88 74.2007 145.114 74.2007C145.418 74.2007 145.669 74.1227 145.868 73.9667C146.068 73.8107 146.254 73.5333 146.427 73.1347L146.856 72.1857L146.986 72.0297L149.69 65.7767H150.912L147.571 73.3557C147.372 73.841 147.147 74.2223 146.895 74.4997C146.653 74.777 146.384 74.972 146.089 75.0847C145.795 75.206 145.47 75.2667 145.114 75.2667ZM146.752 72.8877L143.606 65.7767H144.906L147.584 71.9127L146.752 72.8877ZM157.934 72.7447C157.241 72.7447 156.703 72.5583 156.322 72.1857C155.941 71.813 155.75 71.28 155.75 70.5867V64.2687H156.998V70.5347C156.998 70.9073 157.089 71.1933 157.271 71.3927C157.462 71.592 157.73 71.6917 158.077 71.6917C158.467 71.6917 158.792 71.5833 159.052 71.3667L159.442 72.2637C159.251 72.4283 159.022 72.5497 158.753 72.6277C158.493 72.7057 158.22 72.7447 157.934 72.7447ZM154.58 66.8037V65.7767H158.974V66.8037H154.58ZM163.673 72.7447C162.98 72.7447 162.365 72.593 161.827 72.2897C161.29 71.9863 160.865 71.5703 160.553 71.0417C160.241 70.5043 160.085 69.8977 160.085 69.2217C160.085 68.537 160.241 67.9303 160.553 67.4017C160.865 66.873 161.29 66.4613 161.827 66.1667C162.365 65.8633 162.98 65.7117 163.673 65.7117C164.358 65.7117 164.969 65.8633 165.506 66.1667C166.052 66.4613 166.477 66.873 166.78 67.4017C167.092 67.9217 167.248 68.5283 167.248 69.2217C167.248 69.9063 167.092 70.513 166.78 71.0417C166.477 71.5703 166.052 71.9863 165.506 72.2897C164.969 72.593 164.358 72.7447 163.673 72.7447ZM163.673 71.6527C164.115 71.6527 164.51 71.553 164.856 71.3537C165.212 71.1543 165.489 70.8727 165.688 70.5087C165.888 70.136 165.987 69.707 165.987 69.2217C165.987 68.7277 165.888 68.303 165.688 67.9477C165.489 67.5837 165.212 67.302 164.856 67.1027C164.51 66.9033 164.115 66.8037 163.673 66.8037C163.231 66.8037 162.837 66.9033 162.49 67.1027C162.144 67.302 161.866 67.5837 161.658 67.9477C161.45 68.303 161.346 68.7277 161.346 69.2217C161.346 69.707 161.45 70.136 161.658 70.5087C161.866 70.8727 162.144 71.1543 162.49 71.3537C162.837 71.553 163.231 71.6527 163.673 71.6527ZM175.313 72.7447C174.645 72.7447 174.047 72.5973 173.519 72.3027C172.999 72.008 172.587 71.5963 172.284 71.0677C171.98 70.539 171.829 69.9237 171.829 69.2217C171.829 68.5197 171.98 67.9087 172.284 67.3887C172.587 66.86 172.999 66.4483 173.519 66.1537C174.047 65.859 174.645 65.7117 175.313 65.7117C175.893 65.7117 176.418 65.8417 176.886 66.1017C177.354 66.3617 177.726 66.7517 178.004 67.2717C178.29 67.7917 178.433 68.4417 178.433 69.2217C178.433 70.0017 178.294 70.6517 178.017 71.1717C177.748 71.6917 177.38 72.086 176.912 72.3547C176.444 72.6147 175.911 72.7447 175.313 72.7447ZM175.417 71.6527C175.85 71.6527 176.24 71.553 176.587 71.3537C176.942 71.1543 177.219 70.8727 177.419 70.5087C177.627 70.136 177.731 69.707 177.731 69.2217C177.731 68.7277 177.627 68.303 177.419 67.9477C177.219 67.5837 176.942 67.302 176.587 67.1027C176.24 66.9033 175.85 66.8037 175.417 66.8037C174.975 66.8037 174.58 66.9033 174.234 67.1027C173.887 67.302 173.61 67.5837 173.402 67.9477C173.194 68.303 173.09 68.7277 173.09 69.2217C173.09 69.707 173.194 70.136 173.402 70.5087C173.61 70.8727 173.887 71.1543 174.234 71.3537C174.58 71.553 174.975 71.6527 175.417 71.6527ZM177.77 72.6667V70.8077L177.848 69.2087L177.718 67.6097V63.0207H178.966V72.6667H177.77ZM181.327 72.6667V65.7767H182.575V72.6667H181.327ZM181.951 64.4507C181.708 64.4507 181.505 64.3727 181.34 64.2167C181.184 64.0607 181.106 63.87 181.106 63.6447C181.106 63.4107 181.184 63.2157 181.34 63.0597C181.505 62.9037 181.708 62.8257 181.951 62.8257C182.194 62.8257 182.393 62.9037 182.549 63.0597C182.714 63.207 182.796 63.3933 182.796 63.6187C182.796 63.8527 182.718 64.052 182.562 64.2167C182.406 64.3727 182.202 64.4507 181.951 64.4507ZM186.934 72.7447C186.362 72.7447 185.816 72.6667 185.296 72.5107C184.784 72.3547 184.381 72.164 184.087 71.9387L184.607 70.9507C184.901 71.15 185.265 71.319 185.699 71.4577C186.132 71.5963 186.574 71.6657 187.025 71.6657C187.605 71.6657 188.021 71.5833 188.273 71.4187C188.533 71.254 188.663 71.0243 188.663 70.7297C188.663 70.513 188.585 70.344 188.429 70.2227C188.273 70.1013 188.065 70.0103 187.805 69.9497C187.553 69.889 187.272 69.837 186.96 69.7937C186.648 69.7417 186.336 69.681 186.024 69.6117C185.712 69.5337 185.426 69.4297 185.166 69.2997C184.906 69.161 184.698 68.9747 184.542 68.7407C184.386 68.498 184.308 68.1773 184.308 67.7787C184.308 67.3627 184.425 66.9987 184.659 66.6867C184.893 66.3747 185.222 66.1363 185.647 65.9717C186.08 65.7983 186.591 65.7117 187.181 65.7117C187.631 65.7117 188.086 65.768 188.546 65.8807C189.014 65.9847 189.395 66.1363 189.69 66.3357L189.157 67.3237C188.845 67.1157 188.52 66.9727 188.182 66.8947C187.844 66.8167 187.506 66.7777 187.168 66.7777C186.622 66.7777 186.214 66.8687 185.946 67.0507C185.677 67.224 185.543 67.4493 185.543 67.7267C185.543 67.9607 185.621 68.1427 185.777 68.2727C185.941 68.394 186.149 68.4893 186.401 68.5587C186.661 68.628 186.947 68.6887 187.259 68.7407C187.571 68.784 187.883 68.8447 188.195 68.9227C188.507 68.992 188.788 69.0917 189.04 69.2217C189.3 69.3517 189.508 69.5337 189.664 69.7677C189.828 70.0017 189.911 70.3137 189.911 70.7037C189.911 71.1197 189.789 71.4793 189.547 71.7827C189.304 72.086 188.962 72.3243 188.52 72.4977C188.078 72.6623 187.549 72.7447 186.934 72.7447ZM194.474 72.7447C193.772 72.7447 193.143 72.593 192.589 72.2897C192.043 71.9863 191.614 71.5703 191.302 71.0417C190.99 70.513 190.834 69.9063 190.834 69.2217C190.834 68.537 190.99 67.9303 191.302 67.4017C191.614 66.873 192.043 66.4613 192.589 66.1667C193.143 65.8633 193.772 65.7117 194.474 65.7117C195.098 65.7117 195.652 65.8373 196.138 66.0887C196.632 66.3313 197.013 66.6953 197.282 67.1807L196.333 67.7917C196.107 67.4537 195.83 67.2067 195.501 67.0507C195.18 66.886 194.833 66.8037 194.461 66.8037C194.01 66.8037 193.607 66.9033 193.252 67.1027C192.896 67.302 192.615 67.5837 192.407 67.9477C192.199 68.303 192.095 68.7277 192.095 69.2217C192.095 69.7157 192.199 70.1447 192.407 70.5087C192.615 70.8727 192.896 71.1543 193.252 71.3537C193.607 71.553 194.01 71.6527 194.461 71.6527C194.833 71.6527 195.18 71.5747 195.501 71.4187C195.83 71.254 196.107 71.0027 196.333 70.6647L197.282 71.2627C197.013 71.7393 196.632 72.1077 196.138 72.3677C195.652 72.619 195.098 72.7447 194.474 72.7447ZM201.747 72.7447C201.053 72.7447 200.438 72.593 199.901 72.2897C199.363 71.9863 198.939 71.5703 198.627 71.0417C198.315 70.5043 198.159 69.8977 198.159 69.2217C198.159 68.537 198.315 67.9303 198.627 67.4017C198.939 66.873 199.363 66.4613 199.901 66.1667C200.438 65.8633 201.053 65.7117 201.747 65.7117C202.431 65.7117 203.042 65.8633 203.58 66.1667C204.126 66.4613 204.55 66.873 204.854 67.4017C205.166 67.9217 205.322 68.5283 205.322 69.2217C205.322 69.9063 205.166 70.513 204.854 71.0417C204.55 71.5703 204.126 71.9863 203.58 72.2897C203.042 72.593 202.431 72.7447 201.747 72.7447ZM201.747 71.6527C202.189 71.6527 202.583 71.553 202.93 71.3537C203.285 71.1543 203.562 70.8727 203.762 70.5087C203.961 70.136 204.061 69.707 204.061 69.2217C204.061 68.7277 203.961 68.303 203.762 67.9477C203.562 67.5837 203.285 67.302 202.93 67.1027C202.583 66.9033 202.189 66.8037 201.747 66.8037C201.305 66.8037 200.91 66.9033 200.564 67.1027C200.217 67.302 199.94 67.5837 199.732 67.9477C199.524 68.303 199.42 68.7277 199.42 69.2217C199.42 69.707 199.524 70.136 199.732 70.5087C199.94 70.8727 200.217 71.1543 200.564 71.3537C200.91 71.553 201.305 71.6527 201.747 71.6527ZM208.664 72.6667L205.648 65.7767H206.948L209.626 72.0167H209.002L211.732 65.7767H212.954L209.938 72.6667H208.664ZM216.997 72.7447C216.26 72.7447 215.61 72.593 215.047 72.2897C214.492 71.9863 214.059 71.5703 213.747 71.0417C213.443 70.513 213.292 69.9063 213.292 69.2217C213.292 68.537 213.439 67.9303 213.734 67.4017C214.037 66.873 214.449 66.4613 214.969 66.1667C215.497 65.8633 216.091 65.7117 216.75 65.7117C217.417 65.7117 218.006 65.859 218.518 66.1537C219.029 66.4483 219.428 66.8643 219.714 67.4017C220.008 67.9303 220.156 68.55 220.156 69.2607C220.156 69.3127 220.151 69.3733 220.143 69.4427C220.143 69.512 220.138 69.577 220.13 69.6377H214.267V68.7407H219.48L218.973 69.0527C218.981 68.6107 218.89 68.2163 218.7 67.8697C218.509 67.523 218.245 67.2543 217.907 67.0637C217.577 66.8643 217.192 66.7647 216.75 66.7647C216.316 66.7647 215.931 66.8643 215.593 67.0637C215.255 67.2543 214.99 67.5273 214.8 67.8827C214.609 68.2293 214.514 68.628 214.514 69.0787V69.2867C214.514 69.746 214.618 70.1577 214.826 70.5217C215.042 70.877 215.341 71.1543 215.723 71.3537C216.104 71.553 216.542 71.6527 217.036 71.6527C217.443 71.6527 217.811 71.5833 218.141 71.4447C218.479 71.306 218.773 71.098 219.025 70.8207L219.714 71.6267C219.402 71.9907 219.012 72.268 218.544 72.4587C218.084 72.6493 217.569 72.7447 216.997 72.7447ZM221.888 72.6667V65.7767H223.084V67.6487L222.967 67.1807C223.158 66.704 223.479 66.34 223.929 66.0887C224.38 65.8373 224.935 65.7117 225.593 65.7117V66.9207C225.541 66.912 225.489 66.9077 225.437 66.9077C225.394 66.9077 225.351 66.9077 225.307 66.9077C224.64 66.9077 224.111 67.107 223.721 67.5057C223.331 67.9043 223.136 68.4807 223.136 69.2347V72.6667H221.888ZM29.783 92.6667V85.7767H30.979V87.6487L30.862 87.1807C31.0527 86.704 31.3733 86.34 31.824 86.0887C32.2747 85.8373 32.8293 85.7117 33.488 85.7117V86.9207C33.436 86.912 33.384 86.9077 33.332 86.9077C33.2887 86.9077 33.2453 86.9077 33.202 86.9077C32.5347 86.9077 32.006 87.107 31.616 87.5057C31.226 87.9043 31.031 88.4807 31.031 89.2347V92.6667H29.783ZM38.0307 92.7447C37.294 92.7447 36.644 92.593 36.0807 92.2897C35.526 91.9863 35.0927 91.5703 34.7807 91.0417C34.4774 90.513 34.3257 89.9063 34.3257 89.2217C34.3257 88.537 34.473 87.9303 34.7677 87.4017C35.071 86.873 35.4827 86.4613 36.0027 86.1667C36.5314 85.8633 37.125 85.7117 37.7837 85.7117C38.451 85.7117 39.0404 85.859 39.5517 86.1537C40.063 86.4483 40.4617 86.8643 40.7477 87.4017C41.0424 87.9303 41.1897 88.55 41.1897 89.2607C41.1897 89.3127 41.1854 89.3733 41.1767 89.4427C41.1767 89.512 41.1724 89.577 41.1637 89.6377H35.3007V88.7407H40.5137L40.0067 89.0527C40.0154 88.6107 39.9244 88.2163 39.7337 87.8697C39.543 87.523 39.2787 87.2543 38.9407 87.0637C38.6114 86.8643 38.2257 86.7647 37.7837 86.7647C37.3504 86.7647 36.9647 86.8643 36.6267 87.0637C36.2887 87.2543 36.0244 87.5273 35.8337 87.8827C35.643 88.2293 35.5477 88.628 35.5477 89.0787V89.2867C35.5477 89.746 35.6517 90.1577 35.8597 90.5217C36.0764 90.877 36.3754 91.1543 36.7567 91.3537C37.138 91.553 37.5757 91.6527 38.0697 91.6527C38.477 91.6527 38.8454 91.5833 39.1747 91.4447C39.5127 91.306 39.8074 91.098 40.0587 90.8207L40.7477 91.6267C40.4357 91.9907 40.0457 92.268 39.5777 92.4587C39.1184 92.6493 38.6027 92.7447 38.0307 92.7447ZM42.9227 92.6667V83.0207H44.1707V92.6667H42.9227ZM49.6215 92.7447C48.8848 92.7447 48.2348 92.593 47.6715 92.2897C47.1168 91.9863 46.6835 91.5703 46.3715 91.0417C46.0682 90.513 45.9165 89.9063 45.9165 89.2217C45.9165 88.537 46.0638 87.9303 46.3585 87.4017C46.6618 86.873 47.0735 86.4613 47.5935 86.1667C48.1222 85.8633 48.7158 85.7117 49.3745 85.7117C50.0418 85.7117 50.6312 85.859 51.1425 86.1537C51.6538 86.4483 52.0525 86.8643 52.3385 87.4017C52.6332 87.9303 52.7805 88.55 52.7805 89.2607C52.7805 89.3127 52.7762 89.3733 52.7675 89.4427C52.7675 89.512 52.7632 89.577 52.7545 89.6377H46.8915V88.7407H52.1045L51.5975 89.0527C51.6062 88.6107 51.5152 88.2163 51.3245 87.8697C51.1338 87.523 50.8695 87.2543 50.5315 87.0637C50.2022 86.8643 49.8165 86.7647 49.3745 86.7647C48.9412 86.7647 48.5555 86.8643 48.2175 87.0637C47.8795 87.2543 47.6152 87.5273 47.4245 87.8827C47.2338 88.2293 47.1385 88.628 47.1385 89.0787V89.2867C47.1385 89.746 47.2425 90.1577 47.4505 90.5217C47.6672 90.877 47.9662 91.1543 48.3475 91.3537C48.7288 91.553 49.1665 91.6527 49.6605 91.6527C50.0678 91.6527 50.4362 91.5833 50.7655 91.4447C51.1035 91.306 51.3982 91.098 51.6495 90.8207L52.3385 91.6267C52.0265 91.9907 51.6365 92.268 51.1685 92.4587C50.7092 92.6493 50.1935 92.7447 49.6215 92.7447ZM56.1935 92.6667L53.1775 85.7767H54.4775L57.1555 92.0167H56.5315L59.2615 85.7767H60.4835L57.4675 92.6667H56.1935ZM65.7094 92.6667V91.2107L65.6444 90.9377V88.4547C65.6444 87.926 65.4884 87.5187 65.1764 87.2327C64.8731 86.938 64.4138 86.7907 63.7984 86.7907C63.3911 86.7907 62.9924 86.86 62.6024 86.9987C62.2124 87.1287 61.8831 87.3063 61.6144 87.5317L61.0944 86.5957C61.4498 86.3097 61.8744 86.093 62.3684 85.9457C62.8711 85.7897 63.3954 85.7117 63.9414 85.7117C64.8861 85.7117 65.6141 85.9413 66.1254 86.4007C66.6368 86.86 66.8924 87.562 66.8924 88.5067V92.6667H65.7094ZM63.4474 92.7447C62.9361 92.7447 62.4854 92.658 62.0954 92.4847C61.7141 92.3113 61.4194 92.073 61.2114 91.7697C61.0034 91.4577 60.8994 91.1067 60.8994 90.7167C60.8994 90.344 60.9861 90.006 61.1594 89.7027C61.3414 89.3993 61.6318 89.1567 62.0304 88.9747C62.4378 88.7927 62.9838 88.7017 63.6684 88.7017H65.8524V89.5987H63.7204C63.0964 89.5987 62.6761 89.7027 62.4594 89.9107C62.2428 90.1187 62.1344 90.37 62.1344 90.6647C62.1344 91.0027 62.2688 91.2757 62.5374 91.4837C62.8061 91.683 63.1788 91.7827 63.6554 91.7827C64.1234 91.7827 64.5308 91.6787 64.8774 91.4707C65.2328 91.2627 65.4884 90.9593 65.6444 90.5607L65.8914 91.4187C65.7268 91.826 65.4364 92.151 65.0204 92.3937C64.6044 92.6277 64.0801 92.7447 63.4474 92.7447ZM72.881 85.7117C73.4443 85.7117 73.9383 85.82 74.363 86.0367C74.7963 86.2533 75.1343 86.5827 75.377 87.0247C75.6196 87.4667 75.741 88.0257 75.741 88.7017V92.6667H74.493V88.8447C74.493 88.1773 74.3283 87.6747 73.999 87.3367C73.6783 86.9987 73.2233 86.8297 72.634 86.8297C72.192 86.8297 71.8063 86.9163 71.477 87.0897C71.1476 87.263 70.892 87.5187 70.71 87.8567C70.5366 88.1947 70.45 88.615 70.45 89.1177V92.6667H69.202V85.7767H70.398V87.6357L70.203 87.1417C70.4283 86.691 70.775 86.34 71.243 86.0887C71.711 85.8373 72.257 85.7117 72.881 85.7117ZM80.4166 92.7447C79.7233 92.7447 79.1859 92.5583 78.8046 92.1857C78.4233 91.813 78.2326 91.28 78.2326 90.5867V84.2687H79.4806V90.5347C79.4806 90.9073 79.5716 91.1933 79.7536 91.3927C79.9443 91.592 80.2129 91.6917 80.5596 91.6917C80.9496 91.6917 81.2746 91.5833 81.5346 91.3667L81.9246 92.2637C81.7339 92.4283 81.5043 92.5497 81.2356 92.6277C80.9756 92.7057 80.7026 92.7447 80.4166 92.7447ZM77.0626 86.8037V85.7767H81.4566V86.8037H77.0626ZM90.6036 85.7117C91.1669 85.7117 91.6609 85.82 92.0856 86.0367C92.5189 86.2533 92.8569 86.5827 93.0996 87.0247C93.3423 87.4667 93.4636 88.0257 93.4636 88.7017V92.6667H92.2156V88.8447C92.2156 88.1773 92.0509 87.6747 91.7216 87.3367C91.4009 86.9987 90.9459 86.8297 90.3566 86.8297C89.9146 86.8297 89.5289 86.9163 89.1996 87.0897C88.8703 87.263 88.6146 87.5187 88.4326 87.8567C88.2593 88.1947 88.1726 88.615 88.1726 89.1177V92.6667H86.9246V85.7767H88.1206V87.6357L87.9256 87.1417C88.1509 86.691 88.4976 86.34 88.9656 86.0887C89.4336 85.8373 89.9796 85.7117 90.6036 85.7117ZM98.7242 92.7447C98.0309 92.7447 97.4156 92.593 96.8782 92.2897C96.3409 91.9863 95.9162 91.5703 95.6042 91.0417C95.2922 90.5043 95.1362 89.8977 95.1362 89.2217C95.1362 88.537 95.2922 87.9303 95.6042 87.4017C95.9162 86.873 96.3409 86.4613 96.8782 86.1667C97.4156 85.8633 98.0309 85.7117 98.7242 85.7117C99.4089 85.7117 100.02 85.8633 100.557 86.1667C101.103 86.4613 101.528 86.873 101.831 87.4017C102.143 87.9217 102.299 88.5283 102.299 89.2217C102.299 89.9063 102.143 90.513 101.831 91.0417C101.528 91.5703 101.103 91.9863 100.557 92.2897C100.02 92.593 99.4089 92.7447 98.7242 92.7447ZM98.7242 91.6527C99.1662 91.6527 99.5606 91.553 99.9072 91.3537C100.263 91.1543 100.54 90.8727 100.739 90.5087C100.939 90.136 101.038 89.707 101.038 89.2217C101.038 88.7277 100.939 88.303 100.739 87.9477C100.54 87.5837 100.263 87.302 99.9072 87.1027C99.5606 86.9033 99.1662 86.8037 98.7242 86.8037C98.2822 86.8037 97.8879 86.9033 97.5412 87.1027C97.1946 87.302 96.9172 87.5837 96.7092 87.9477C96.5012 88.303 96.3972 88.7277 96.3972 89.2217C96.3972 89.707 96.5012 90.136 96.7092 90.5087C96.9172 90.8727 97.1946 91.1543 97.5412 91.3537C97.8879 91.553 98.2822 91.6527 98.7242 91.6527ZM106.391 92.7447C105.698 92.7447 105.161 92.5583 104.779 92.1857C104.398 91.813 104.207 91.28 104.207 90.5867V84.2687H105.455V90.5347C105.455 90.9073 105.546 91.1933 105.728 91.3927C105.919 91.592 106.188 91.6917 106.534 91.6917C106.924 91.6917 107.249 91.5833 107.509 91.3667L107.899 92.2637C107.709 92.4283 107.479 92.5497 107.21 92.6277C106.95 92.7057 106.677 92.7447 106.391 92.7447ZM103.037 86.8037V85.7767H107.431V86.8037H103.037ZM112.247 92.7447C111.511 92.7447 110.861 92.593 110.297 92.2897C109.743 91.9863 109.309 91.5703 108.997 91.0417C108.694 90.513 108.542 89.9063 108.542 89.2217C108.542 88.537 108.69 87.9303 108.984 87.4017C109.288 86.873 109.699 86.4613 110.219 86.1667C110.748 85.8633 111.342 85.7117 112 85.7117C112.668 85.7117 113.257 85.859 113.768 86.1537C114.28 86.4483 114.678 86.8643 114.964 87.4017C115.259 87.9303 115.406 88.55 115.406 89.2607C115.406 89.3127 115.402 89.3733 115.393 89.4427C115.393 89.512 115.389 89.577 115.38 89.6377H109.517V88.7407H114.73L114.223 89.0527C114.232 88.6107 114.141 88.2163 113.95 87.8697C113.76 87.523 113.495 87.2543 113.157 87.0637C112.828 86.8643 112.442 86.7647 112 86.7647C111.567 86.7647 111.181 86.8643 110.843 87.0637C110.505 87.2543 110.241 87.5273 110.05 87.8827C109.86 88.2293 109.764 88.628 109.764 89.0787V89.2867C109.764 89.746 109.868 90.1577 110.076 90.5217C110.293 90.877 110.592 91.1543 110.973 91.3537C111.355 91.553 111.792 91.6527 112.286 91.6527C112.694 91.6527 113.062 91.5833 113.391 91.4447C113.729 91.306 114.024 91.098 114.275 90.8207L114.964 91.6267C114.652 91.9907 114.262 92.268 113.794 92.4587C113.335 92.6493 112.819 92.7447 112.247 92.7447ZM119.115 92.7447C118.543 92.7447 117.997 92.6667 117.477 92.5107C116.966 92.3547 116.563 92.164 116.268 91.9387L116.788 90.9507C117.083 91.15 117.447 91.319 117.88 91.4577C118.314 91.5963 118.756 91.6657 119.206 91.6657C119.787 91.6657 120.203 91.5833 120.454 91.4187C120.714 91.254 120.844 91.0243 120.844 90.7297C120.844 90.513 120.766 90.344 120.61 90.2227C120.454 90.1013 120.246 90.0103 119.986 89.9497C119.735 89.889 119.453 89.837 119.141 89.7937C118.829 89.7417 118.517 89.681 118.205 89.6117C117.893 89.5337 117.607 89.4297 117.347 89.2997C117.087 89.161 116.879 88.9747 116.723 88.7407C116.567 88.498 116.489 88.1773 116.489 87.7787C116.489 87.3627 116.606 86.9987 116.84 86.6867C117.074 86.3747 117.404 86.1363 117.828 85.9717C118.262 85.7983 118.773 85.7117 119.362 85.7117C119.813 85.7117 120.268 85.768 120.727 85.8807C121.195 85.9847 121.577 86.1363 121.871 86.3357L121.338 87.3237C121.026 87.1157 120.701 86.9727 120.363 86.8947C120.025 86.8167 119.687 86.7777 119.349 86.7777C118.803 86.7777 118.396 86.8687 118.127 87.0507C117.859 87.224 117.724 87.4493 117.724 87.7267C117.724 87.9607 117.802 88.1427 117.958 88.2727C118.123 88.394 118.331 88.4893 118.582 88.5587C118.842 88.628 119.128 88.6887 119.44 88.7407C119.752 88.784 120.064 88.8447 120.376 88.9227C120.688 88.992 120.97 89.0917 121.221 89.2217C121.481 89.3517 121.689 89.5337 121.845 89.7677C122.01 90.0017 122.092 90.3137 122.092 90.7037C122.092 91.1197 121.971 91.4793 121.728 91.7827C121.486 92.086 121.143 92.3243 120.701 92.4977C120.259 92.6623 119.731 92.7447 119.115 92.7447ZM131.42 92.6667V91.2107L131.355 90.9377V88.4547C131.355 87.926 131.199 87.5187 130.887 87.2327C130.584 86.938 130.125 86.7907 129.509 86.7907C129.102 86.7907 128.703 86.86 128.313 86.9987C127.923 87.1287 127.594 87.3063 127.325 87.5317L126.805 86.5957C127.161 86.3097 127.585 86.093 128.079 85.9457C128.582 85.7897 129.106 85.7117 129.652 85.7117C130.597 85.7117 131.325 85.9413 131.836 86.4007C132.348 86.86 132.603 87.562 132.603 88.5067V92.6667H131.42ZM129.158 92.7447C128.647 92.7447 128.196 92.658 127.806 92.4847C127.425 92.3113 127.13 92.073 126.922 91.7697C126.714 91.4577 126.61 91.1067 126.61 90.7167C126.61 90.344 126.697 90.006 126.87 89.7027C127.052 89.3993 127.343 89.1567 127.741 88.9747C128.149 88.7927 128.695 88.7017 129.379 88.7017H131.563V89.5987H129.431C128.807 89.5987 128.387 89.7027 128.17 89.9107C127.954 90.1187 127.845 90.37 127.845 90.6647C127.845 91.0027 127.98 91.2757 128.248 91.4837C128.517 91.683 128.89 91.7827 129.366 91.7827C129.834 91.7827 130.242 91.6787 130.588 91.4707C130.944 91.2627 131.199 90.9593 131.355 90.5607L131.602 91.4187C131.438 91.826 131.147 92.151 130.731 92.3937C130.315 92.6277 129.791 92.7447 129.158 92.7447ZM138.592 85.7117C139.155 85.7117 139.649 85.82 140.074 86.0367C140.507 86.2533 140.845 86.5827 141.088 87.0247C141.331 87.4667 141.452 88.0257 141.452 88.7017V92.6667H140.204V88.8447C140.204 88.1773 140.039 87.6747 139.71 87.3367C139.389 86.9987 138.934 86.8297 138.345 86.8297C137.903 86.8297 137.517 86.9163 137.188 87.0897C136.859 87.263 136.603 87.5187 136.421 87.8567C136.248 88.1947 136.161 88.615 136.161 89.1177V92.6667H134.913V85.7767H136.109V87.6357L135.914 87.1417C136.139 86.691 136.486 86.34 136.954 86.0887C137.422 85.8373 137.968 85.7117 138.592 85.7117ZM146.609 92.7447C145.941 92.7447 145.343 92.5973 144.815 92.3027C144.295 92.008 143.883 91.5963 143.58 91.0677C143.276 90.539 143.125 89.9237 143.125 89.2217C143.125 88.5197 143.276 87.9087 143.58 87.3887C143.883 86.86 144.295 86.4483 144.815 86.1537C145.343 85.859 145.941 85.7117 146.609 85.7117C147.189 85.7117 147.714 85.8417 148.182 86.1017C148.65 86.3617 149.022 86.7517 149.3 87.2717C149.586 87.7917 149.729 88.4417 149.729 89.2217C149.729 90.0017 149.59 90.6517 149.313 91.1717C149.044 91.6917 148.676 92.086 148.208 92.3547C147.74 92.6147 147.207 92.7447 146.609 92.7447ZM146.713 91.6527C147.146 91.6527 147.536 91.553 147.883 91.3537C148.238 91.1543 148.515 90.8727 148.715 90.5087C148.923 90.136 149.027 89.707 149.027 89.2217C149.027 88.7277 148.923 88.303 148.715 87.9477C148.515 87.5837 148.238 87.302 147.883 87.1027C147.536 86.9033 147.146 86.8037 146.713 86.8037C146.271 86.8037 145.876 86.9033 145.53 87.1027C145.183 87.302 144.906 87.5837 144.698 87.9477C144.49 88.303 144.386 88.7277 144.386 89.2217C144.386 89.707 144.49 90.136 144.698 90.5087C144.906 90.8727 145.183 91.1543 145.53 91.3537C145.876 91.553 146.271 91.6527 146.713 91.6527ZM149.066 92.6667V90.8077L149.144 89.2087L149.014 87.6097V83.0207H150.262V92.6667H149.066ZM158.09 92.7447C157.518 92.7447 156.972 92.6667 156.452 92.5107C155.941 92.3547 155.538 92.164 155.243 91.9387L155.763 90.9507C156.058 91.15 156.422 91.319 156.855 91.4577C157.288 91.5963 157.73 91.6657 158.181 91.6657C158.762 91.6657 159.178 91.5833 159.429 91.4187C159.689 91.254 159.819 91.0243 159.819 90.7297C159.819 90.513 159.741 90.344 159.585 90.2227C159.429 90.1013 159.221 90.0103 158.961 89.9497C158.71 89.889 158.428 89.837 158.116 89.7937C157.804 89.7417 157.492 89.681 157.18 89.6117C156.868 89.5337 156.582 89.4297 156.322 89.2997C156.062 89.161 155.854 88.9747 155.698 88.7407C155.542 88.498 155.464 88.1773 155.464 87.7787C155.464 87.3627 155.581 86.9987 155.815 86.6867C156.049 86.3747 156.378 86.1363 156.803 85.9717C157.236 85.7983 157.748 85.7117 158.337 85.7117C158.788 85.7117 159.243 85.768 159.702 85.8807C160.17 85.9847 160.551 86.1363 160.846 86.3357L160.313 87.3237C160.001 87.1157 159.676 86.9727 159.338 86.8947C159 86.8167 158.662 86.7777 158.324 86.7777C157.778 86.7777 157.371 86.8687 157.102 87.0507C156.833 87.224 156.699 87.4493 156.699 87.7267C156.699 87.9607 156.777 88.1427 156.933 88.2727C157.098 88.394 157.306 88.4893 157.557 88.5587C157.817 88.628 158.103 88.6887 158.415 88.7407C158.727 88.784 159.039 88.8447 159.351 88.9227C159.663 88.992 159.945 89.0917 160.196 89.2217C160.456 89.3517 160.664 89.5337 160.82 89.7677C160.985 90.0017 161.067 90.3137 161.067 90.7037C161.067 91.1197 160.946 91.4793 160.703 91.7827C160.46 92.086 160.118 92.3243 159.676 92.4977C159.234 92.6623 158.705 92.7447 158.09 92.7447ZM164.993 92.7447C164.299 92.7447 163.762 92.5583 163.381 92.1857C162.999 91.813 162.809 91.28 162.809 90.5867V84.2687H164.057V90.5347C164.057 90.9073 164.148 91.1933 164.33 91.3927C164.52 91.592 164.789 91.6917 165.136 91.6917C165.526 91.6917 165.851 91.5833 166.111 91.3667L166.501 92.2637C166.31 92.4283 166.08 92.5497 165.812 92.6277C165.552 92.7057 165.279 92.7447 164.993 92.7447ZM161.639 86.8037V85.7767H166.033V86.8037H161.639ZM170.909 92.7447C170.319 92.7447 169.799 92.6363 169.349 92.4197C168.907 92.203 168.56 91.8737 168.309 91.4317C168.066 90.981 167.945 90.4177 167.945 89.7417V85.7767H169.193V89.5987C169.193 90.2747 169.353 90.7817 169.674 91.1197C170.003 91.4577 170.462 91.6267 171.052 91.6267C171.485 91.6267 171.862 91.54 172.183 91.3667C172.503 91.1847 172.75 90.9247 172.924 90.5867C173.097 90.24 173.184 89.824 173.184 89.3387V85.7767H174.432V92.6667H173.249V90.8077L173.444 91.3017C173.218 91.761 172.88 92.1163 172.43 92.3677C171.979 92.619 171.472 92.7447 170.909 92.7447ZM179.654 92.7447C178.987 92.7447 178.389 92.5973 177.86 92.3027C177.34 92.008 176.929 91.5963 176.625 91.0677C176.322 90.539 176.17 89.9237 176.17 89.2217C176.17 88.5197 176.322 87.9087 176.625 87.3887C176.929 86.86 177.34 86.4483 177.86 86.1537C178.389 85.859 178.987 85.7117 179.654 85.7117C180.235 85.7117 180.759 85.8417 181.227 86.1017C181.695 86.3617 182.068 86.7517 182.345 87.2717C182.631 87.7917 182.774 88.4417 182.774 89.2217C182.774 90.0017 182.636 90.6517 182.358 91.1717C182.09 91.6917 181.721 92.086 181.253 92.3547C180.785 92.6147 180.252 92.7447 179.654 92.7447ZM179.758 91.6527C180.192 91.6527 180.582 91.553 180.928 91.3537C181.284 91.1543 181.561 90.8727 181.76 90.5087C181.968 90.136 182.072 89.707 182.072 89.2217C182.072 88.7277 181.968 88.303 181.76 87.9477C181.561 87.5837 181.284 87.302 180.928 87.1027C180.582 86.9033 180.192 86.8037 179.758 86.8037C179.316 86.8037 178.922 86.9033 178.575 87.1027C178.229 87.302 177.951 87.5837 177.743 87.9477C177.535 88.303 177.431 88.7277 177.431 89.2217C177.431 89.707 177.535 90.136 177.743 90.5087C177.951 90.8727 178.229 91.1543 178.575 91.3537C178.922 91.553 179.316 91.6527 179.758 91.6527ZM182.111 92.6667V90.8077L182.189 89.2087L182.059 87.6097V83.0207H183.307V92.6667H182.111ZM185.968 95.2667C185.638 95.2667 185.318 95.2103 185.006 95.0977C184.694 94.9937 184.425 94.8377 184.2 94.6297L184.733 93.6937C184.906 93.8583 185.097 93.984 185.305 94.0707C185.513 94.1573 185.734 94.2007 185.968 94.2007C186.271 94.2007 186.522 94.1227 186.722 93.9667C186.921 93.8107 187.107 93.5333 187.281 93.1347L187.71 92.1857L187.84 92.0297L190.544 85.7767H191.766L188.425 93.3557C188.225 93.841 188 94.2223 187.749 94.4997C187.506 94.777 187.237 94.972 186.943 95.0847C186.648 95.206 186.323 95.2667 185.968 95.2667ZM187.606 92.8877L184.46 85.7767H185.76L188.438 91.9127L187.606 92.8877ZM205.041 85.7117C205.595 85.7117 206.085 85.82 206.51 86.0367C206.934 86.2533 207.264 86.5827 207.498 87.0247C207.74 87.4667 207.862 88.0257 207.862 88.7017V92.6667H206.614V88.8447C206.614 88.1773 206.458 87.6747 206.146 87.3367C205.834 86.9987 205.396 86.8297 204.833 86.8297C204.417 86.8297 204.053 86.9163 203.741 87.0897C203.429 87.263 203.186 87.5187 203.013 87.8567C202.848 88.1947 202.766 88.615 202.766 89.1177V92.6667H201.518V88.8447C201.518 88.1773 201.362 87.6747 201.05 87.3367C200.746 86.9987 200.309 86.8297 199.737 86.8297C199.329 86.8297 198.97 86.9163 198.658 87.0897C198.346 87.263 198.103 87.5187 197.93 87.8567C197.756 88.1947 197.67 88.615 197.67 89.1177V92.6667H196.422V85.7767H197.618V87.6097L197.423 87.1417C197.639 86.691 197.973 86.34 198.424 86.0887C198.874 85.8373 199.399 85.7117 199.997 85.7117C200.655 85.7117 201.223 85.8763 201.7 86.2057C202.176 86.5263 202.488 87.016 202.636 87.6747L202.129 87.4667C202.337 86.938 202.701 86.5133 203.221 86.1927C203.741 85.872 204.347 85.7117 205.041 85.7117ZM214.435 92.6667V91.2107L214.37 90.9377V88.4547C214.37 87.926 214.214 87.5187 213.902 87.2327C213.599 86.938 213.139 86.7907 212.524 86.7907C212.117 86.7907 211.718 86.86 211.328 86.9987C210.938 87.1287 210.609 87.3063 210.34 87.5317L209.82 86.5957C210.175 86.3097 210.6 86.093 211.094 85.9457C211.597 85.7897 212.121 85.7117 212.667 85.7117C213.612 85.7117 214.34 85.9413 214.851 86.4007C215.362 86.86 215.618 87.562 215.618 88.5067V92.6667H214.435ZM212.173 92.7447C211.662 92.7447 211.211 92.658 210.821 92.4847C210.44 92.3113 210.145 92.073 209.937 91.7697C209.729 91.4577 209.625 91.1067 209.625 90.7167C209.625 90.344 209.712 90.006 209.885 89.7027C210.067 89.3993 210.357 89.1567 210.756 88.9747C211.163 88.7927 211.709 88.7017 212.394 88.7017H214.578V89.5987H212.446C211.822 89.5987 211.402 89.7027 211.185 89.9107C210.968 90.1187 210.86 90.37 210.86 90.6647C210.86 91.0027 210.994 91.2757 211.263 91.4837C211.532 91.683 211.904 91.7827 212.381 91.7827C212.849 91.7827 213.256 91.6787 213.603 91.4707C213.958 91.2627 214.214 90.9593 214.37 90.5607L214.617 91.4187C214.452 91.826 214.162 92.151 213.746 92.3937C213.33 92.6277 212.806 92.7447 212.173 92.7447ZM220.294 92.7447C219.6 92.7447 219.063 92.5583 218.682 92.1857C218.3 91.813 218.11 91.28 218.11 90.5867V84.2687H219.358V90.5347C219.358 90.9073 219.449 91.1933 219.631 91.3927C219.821 91.592 220.09 91.6917 220.437 91.6917C220.827 91.6917 221.152 91.5833 221.412 91.3667L221.802 92.2637C221.611 92.4283 221.381 92.5497 221.113 92.6277C220.853 92.7057 220.58 92.7447 220.294 92.7447ZM216.94 86.8037V85.7767H221.334V86.8037H216.94ZM226.15 92.7447C225.413 92.7447 224.763 92.593 224.2 92.2897C223.645 91.9863 223.212 91.5703 222.9 91.0417C222.597 90.513 222.445 89.9063 222.445 89.2217C222.445 88.537 222.592 87.9303 222.887 87.4017C223.19 86.873 223.602 86.4613 224.122 86.1667C224.651 85.8633 225.244 85.7117 225.903 85.7117C226.57 85.7117 227.16 85.859 227.671 86.1537C228.182 86.4483 228.581 86.8643 228.867 87.4017C229.162 87.9303 229.309 88.55 229.309 89.2607C229.309 89.3127 229.305 89.3733 229.296 89.4427C229.296 89.512 229.292 89.577 229.283 89.6377H223.42V88.7407H228.633L228.126 89.0527C228.135 88.6107 228.044 88.2163 227.853 87.8697C227.662 87.523 227.398 87.2543 227.06 87.0637C226.731 86.8643 226.345 86.7647 225.903 86.7647C225.47 86.7647 225.084 86.8643 224.746 87.0637C224.408 87.2543 224.144 87.5273 223.953 87.8827C223.762 88.2293 223.667 88.628 223.667 89.0787V89.2867C223.667 89.746 223.771 90.1577 223.979 90.5217C224.196 90.877 224.495 91.1543 224.876 91.3537C225.257 91.553 225.695 91.6527 226.189 91.6527C226.596 91.6527 226.965 91.5833 227.294 91.4447C227.632 91.306 227.927 91.098 228.178 90.8207L228.867 91.6267C228.555 91.9907 228.165 92.268 227.697 92.4587C227.238 92.6493 226.722 92.7447 226.15 92.7447ZM231.042 92.6667V85.7767H232.238V87.6487L232.121 87.1807C232.311 86.704 232.632 86.34 233.083 86.0887C233.533 85.8373 234.088 85.7117 234.747 85.7117V86.9207C234.695 86.912 234.643 86.9077 234.591 86.9077C234.547 86.9077 234.504 86.9077 234.461 86.9077C233.793 86.9077 233.265 87.107 232.875 87.5057C232.485 87.9043 232.29 88.4807 232.29 89.2347V92.6667H231.042ZM236.285 92.6667V85.7767H237.533V92.6667H236.285ZM236.909 84.4507C236.666 84.4507 236.463 84.3727 236.298 84.2167C236.142 84.0607 236.064 83.87 236.064 83.6447C236.064 83.4107 236.142 83.2157 236.298 83.0597C236.463 82.9037 236.666 82.8257 236.909 82.8257C237.152 82.8257 237.351 82.9037 237.507 83.0597C237.672 83.207 237.754 83.3933 237.754 83.6187C237.754 83.8527 237.676 84.052 237.52 84.2167C237.364 84.3727 237.16 84.4507 236.909 84.4507ZM244.193 92.6667V91.2107L244.128 90.9377V88.4547C244.128 87.926 243.972 87.5187 243.66 87.2327C243.356 86.938 242.897 86.7907 242.282 86.7907C241.874 86.7907 241.476 86.86 241.086 86.9987C240.696 87.1287 240.366 87.3063 240.098 87.5317L239.578 86.5957C239.933 86.3097 240.358 86.093 240.852 85.9457C241.354 85.7897 241.879 85.7117 242.425 85.7117C243.369 85.7117 244.097 85.9413 244.609 86.4007C245.12 86.86 245.376 87.562 245.376 88.5067V92.6667H244.193ZM241.931 92.7447C241.419 92.7447 240.969 92.658 240.579 92.4847C240.197 92.3113 239.903 92.073 239.695 91.7697C239.487 91.4577 239.383 91.1067 239.383 90.7167C239.383 90.344 239.469 90.006 239.643 89.7027C239.825 89.3993 240.115 89.1567 240.514 88.9747C240.921 88.7927 241.467 88.7017 242.152 88.7017H244.336V89.5987H242.204C241.58 89.5987 241.159 89.7027 240.943 89.9107C240.726 90.1187 240.618 90.37 240.618 90.6647C240.618 91.0027 240.752 91.2757 241.021 91.4837C241.289 91.683 241.662 91.7827 242.139 91.7827C242.607 91.7827 243.014 91.6787 243.361 91.4707C243.716 91.2627 243.972 90.9593 244.128 90.5607L244.375 91.4187C244.21 91.826 243.92 92.151 243.504 92.3937C243.088 92.6277 242.563 92.7447 241.931 92.7447ZM247.685 92.6667V83.0207H248.933V92.6667H247.685ZM253.292 92.7447C252.72 92.7447 252.174 92.6667 251.654 92.5107C251.143 92.3547 250.74 92.164 250.445 91.9387L250.965 90.9507C251.26 91.15 251.624 91.319 252.057 91.4577C252.491 91.5963 252.933 91.6657 253.383 91.6657C253.964 91.6657 254.38 91.5833 254.631 91.4187C254.891 91.254 255.021 91.0243 255.021 90.7297C255.021 90.513 254.943 90.344 254.787 90.2227C254.631 90.1013 254.423 90.0103 254.163 89.9497C253.912 89.889 253.63 89.837 253.318 89.7937C253.006 89.7417 252.694 89.681 252.382 89.6117C252.07 89.5337 251.784 89.4297 251.524 89.2997C251.264 89.161 251.056 88.9747 250.9 88.7407C250.744 88.498 250.666 88.1773 250.666 87.7787C250.666 87.3627 250.783 86.9987 251.017 86.6867C251.251 86.3747 251.581 86.1363 252.005 85.9717C252.439 85.7983 252.95 85.7117 253.539 85.7117C253.99 85.7117 254.445 85.768 254.904 85.8807C255.372 85.9847 255.754 86.1363 256.048 86.3357L255.515 87.3237C255.203 87.1157 254.878 86.9727 254.54 86.8947C254.202 86.8167 253.864 86.7777 253.526 86.7777C252.98 86.7777 252.573 86.8687 252.304 87.0507C252.036 87.224 251.901 87.4493 251.901 87.7267C251.901 87.9607 251.979 88.1427 252.135 88.2727C252.3 88.394 252.508 88.4893 252.759 88.5587C253.019 88.628 253.305 88.6887 253.617 88.7407C253.929 88.784 254.241 88.8447 254.553 88.9227C254.865 88.992 255.147 89.0917 255.398 89.2217C255.658 89.3517 255.866 89.5337 256.022 89.7677C256.187 90.0017 256.269 90.3137 256.269 90.7037C256.269 91.1197 256.148 91.4793 255.905 91.7827C255.663 92.086 255.32 92.3243 254.878 92.4977C254.436 92.6623 253.908 92.7447 253.292 92.7447ZM258.128 92.7447C257.885 92.7447 257.677 92.6623 257.504 92.4977C257.331 92.3243 257.244 92.1077 257.244 91.8477C257.244 91.5877 257.331 91.3753 257.504 91.2107C257.677 91.046 257.885 90.9637 258.128 90.9637C258.362 90.9637 258.561 91.046 258.726 91.2107C258.899 91.3753 258.986 91.5877 258.986 91.8477C258.986 92.1077 258.899 92.3243 258.726 92.4977C258.561 92.6623 258.362 92.7447 258.128 92.7447Z" fill="#AEAEAE"/>
</g>
<defs>
<filter id="filter0_d_1363_506" x="5.72205e-06" y="5.72205e-06" width="309.934" height="128.2" filterUnits="userSpaceOnUse" color-interpolation-filters="sRGB">
<feFlood flood-opacity="0" result="BackgroundImageFix"/>
<feColorMatrix in="SourceAlpha" type="matrix" values="0 0 0 0 0 0 0 0 0 0 0 0 0 0 0 0 0 0 127 0" result="hardAlpha"/>
<feOffset/>
<feGaussianBlur stdDeviation="5.8"/>
<feComposite in2="hardAlpha" operator="out"/>
<feColorMatrix type="matrix" values="0 0 0 0 0.135799 0 0 0 0 0.135799 0 0 0 0 0.135799 0 0 0 0.1 0"/>
<feBlend mode="normal" in2="BackgroundImageFix" result="effect1_dropShadow_1363_506"/>
<feBlend mode="normal" in="SourceGraphic" in2="effect1_dropShadow_1363_506" result="shape"/>
</filter>
</defs>
</svg>
