<svg width="310" height="129" viewBox="0 0 310 129" fill="none" xmlns="http://www.w3.org/2000/svg">
<g filter="url(#filter0_d_1363_502)">
<rect x="11.6" y="11.6" width="286.734" height="105" rx="20" fill="white" shape-rendering="crispEdges"/>
<path d="M32.008 39.552H37.592V41.312H32.008V39.552ZM32.184 45.6H30.104V34.4H38.28V36.144H32.184V45.6ZM40.0995 45.6V37.056H42.0995V45.6H40.0995ZM41.1075 35.648C40.7342 35.648 40.4248 35.5307 40.1795 35.296C39.9448 35.0613 39.8275 34.7787 39.8275 34.448C39.8275 34.1067 39.9448 33.824 40.1795 33.6C40.4248 33.3653 40.7342 33.248 41.1075 33.248C41.4808 33.248 41.7848 33.36 42.0195 33.584C42.2648 33.7973 42.3875 34.0693 42.3875 34.4C42.3875 34.752 42.2702 35.0507 42.0355 35.296C41.8008 35.5307 41.4915 35.648 41.1075 35.648ZM49.5725 36.96C50.2552 36.96 50.8632 37.0933 51.3965 37.36C51.9405 37.6267 52.3672 38.0373 52.6765 38.592C52.9858 39.136 53.1405 39.84 53.1405 40.704V45.6H51.1405V40.96C51.1405 40.2027 50.9592 39.6373 50.5965 39.264C50.2445 38.8907 49.7485 38.704 49.1085 38.704C48.6392 38.704 48.2232 38.8 47.8605 38.992C47.4978 39.184 47.2152 39.472 47.0125 39.856C46.8205 40.2293 46.7245 40.704 46.7245 41.28V45.6H44.7245V37.056H46.6285V39.36L46.2925 38.656C46.5912 38.112 47.0232 37.696 47.5885 37.408C48.1645 37.1093 48.8258 36.96 49.5725 36.96ZM59.3093 45.712C58.4879 45.712 57.7466 45.5307 57.0853 45.168C56.4346 44.7947 55.9226 44.2827 55.5493 43.632C55.1759 42.9813 54.9893 42.2133 54.9893 41.328C54.9893 40.4427 55.1759 39.6747 55.5493 39.024C55.9226 38.3733 56.4346 37.8667 57.0853 37.504C57.7466 37.1413 58.4879 36.96 59.3093 36.96C60.0239 36.96 60.6639 37.12 61.2293 37.44C61.7946 37.7493 62.2426 38.224 62.5733 38.864C62.9039 39.504 63.0693 40.3253 63.0693 41.328C63.0693 42.32 62.9093 43.1413 62.5893 43.792C62.2693 44.432 61.8266 44.912 61.2613 45.232C60.6959 45.552 60.0453 45.712 59.3093 45.712ZM59.5493 44C60.0293 44 60.4559 43.8933 60.8293 43.68C61.2133 43.4667 61.5173 43.1573 61.7413 42.752C61.9759 42.3467 62.0933 41.872 62.0933 41.328C62.0933 40.7733 61.9759 40.2987 61.7413 39.904C61.5173 39.4987 61.2133 39.1893 60.8293 38.976C60.4559 38.7627 60.0293 38.656 59.5493 38.656C59.0693 38.656 58.6373 38.7627 58.2533 38.976C57.8799 39.1893 57.5759 39.4987 57.3413 39.904C57.1173 40.2987 57.0053 40.7733 57.0053 41.328C57.0053 41.872 57.1173 42.3467 57.3413 42.752C57.5759 43.1573 57.8799 43.4667 58.2533 43.68C58.6373 43.8933 59.0693 44 59.5493 44ZM62.1413 45.6V43.584L62.2213 41.312L62.0613 39.04V33.728H64.0453V45.6H62.1413ZM71.2915 45.6V34.4H73.0035L80.0275 43.024H79.1795V34.4H81.2435V45.6H79.5315L72.5075 36.976H73.3555V45.6H71.2915ZM87.8926 45.712C87.018 45.712 86.2393 45.5253 85.5566 45.152C84.874 44.768 84.3353 44.2453 83.9406 43.584C83.546 42.9227 83.3486 42.1707 83.3486 41.328C83.3486 40.4747 83.546 39.7227 83.9406 39.072C84.3353 38.4107 84.874 37.8933 85.5566 37.52C86.2393 37.1467 87.018 36.96 87.8926 36.96C88.778 36.96 89.562 37.1467 90.2446 37.52C90.938 37.8933 91.4766 38.4053 91.8606 39.056C92.2553 39.7067 92.4526 40.464 92.4526 41.328C92.4526 42.1707 92.2553 42.9227 91.8606 43.584C91.4766 44.2453 90.938 44.768 90.2446 45.152C89.562 45.5253 88.778 45.712 87.8926 45.712ZM87.8926 44C88.3833 44 88.8206 43.8933 89.2046 43.68C89.5886 43.4667 89.8873 43.1573 90.1006 42.752C90.3246 42.3467 90.4366 41.872 90.4366 41.328C90.4366 40.7733 90.3246 40.2987 90.1006 39.904C89.8873 39.4987 89.5886 39.1893 89.2046 38.976C88.8206 38.7627 88.3886 38.656 87.9086 38.656C87.418 38.656 86.9806 38.7627 86.5966 38.976C86.2233 39.1893 85.9246 39.4987 85.7006 39.904C85.4766 40.2987 85.3646 40.7733 85.3646 41.328C85.3646 41.872 85.4766 42.3467 85.7006 42.752C85.9246 43.1573 86.2233 43.4667 86.5966 43.68C86.9806 43.8933 87.4126 44 87.8926 44ZM97.5811 45.712C96.6425 45.712 95.9171 45.472 95.4051 44.992C94.8931 44.5013 94.6371 43.7813 94.6371 42.832V35.168H96.6371V42.784C96.6371 43.1893 96.7385 43.504 96.9411 43.728C97.1545 43.952 97.4478 44.064 97.8211 44.064C98.2691 44.064 98.6425 43.9467 98.9411 43.712L99.5011 45.136C99.2665 45.328 98.9785 45.472 98.6371 45.568C98.2958 45.664 97.9438 45.712 97.5811 45.712ZM93.2291 38.72V37.12H98.9251V38.72H93.2291ZM104.881 45.712C103.932 45.712 103.1 45.5253 102.385 45.152C101.681 44.768 101.132 44.2453 100.737 43.584C100.353 42.9227 100.161 42.1707 100.161 41.328C100.161 40.4747 100.348 39.7227 100.721 39.072C101.105 38.4107 101.628 37.8933 102.289 37.52C102.961 37.1467 103.724 36.96 104.577 36.96C105.409 36.96 106.15 37.1413 106.801 37.504C107.452 37.8667 107.964 38.3787 108.337 39.04C108.71 39.7013 108.897 40.48 108.897 41.376C108.897 41.4613 108.892 41.5573 108.881 41.664C108.881 41.7707 108.876 41.872 108.865 41.968H101.745V40.64H107.809L107.025 41.056C107.036 40.5653 106.934 40.1333 106.721 39.76C106.508 39.3867 106.214 39.0933 105.841 38.88C105.478 38.6667 105.057 38.56 104.577 38.56C104.086 38.56 103.654 38.6667 103.281 38.88C102.918 39.0933 102.63 39.392 102.417 39.776C102.214 40.1493 102.113 40.592 102.113 41.104V41.424C102.113 41.936 102.23 42.3893 102.465 42.784C102.7 43.1787 103.03 43.4827 103.457 43.696C103.884 43.9093 104.374 44.016 104.929 44.016C105.409 44.016 105.841 43.9413 106.225 43.792C106.609 43.6427 106.95 43.408 107.249 43.088L108.321 44.32C107.937 44.768 107.452 45.1147 106.865 45.36C106.289 45.5947 105.628 45.712 104.881 45.712ZM113.458 45.712C112.744 45.712 112.056 45.6213 111.394 45.44C110.744 45.248 110.226 45.0187 109.842 44.752L110.61 43.232C110.994 43.4773 111.453 43.68 111.986 43.84C112.52 44 113.053 44.08 113.586 44.08C114.216 44.08 114.669 43.9947 114.946 43.824C115.234 43.6533 115.378 43.424 115.378 43.136C115.378 42.9013 115.282 42.7253 115.09 42.608C114.898 42.48 114.648 42.384 114.338 42.32C114.029 42.256 113.682 42.1973 113.298 42.144C112.925 42.0907 112.546 42.0213 112.162 41.936C111.789 41.84 111.448 41.7067 111.138 41.536C110.829 41.3547 110.578 41.1147 110.386 40.816C110.194 40.5173 110.098 40.1227 110.098 39.632C110.098 39.088 110.253 38.6187 110.562 38.224C110.872 37.8187 111.304 37.5093 111.858 37.296C112.424 37.072 113.09 36.96 113.858 36.96C114.434 36.96 115.016 37.024 115.602 37.152C116.189 37.28 116.674 37.4613 117.058 37.696L116.29 39.216C115.885 38.9707 115.474 38.8053 115.058 38.72C114.653 38.624 114.248 38.576 113.842 38.576C113.234 38.576 112.781 38.6667 112.482 38.848C112.194 39.0293 112.05 39.2587 112.05 39.536C112.05 39.792 112.146 39.984 112.338 40.112C112.53 40.24 112.781 40.3413 113.09 40.416C113.4 40.4907 113.741 40.5547 114.114 40.608C114.498 40.6507 114.877 40.72 115.25 40.816C115.624 40.912 115.965 41.0453 116.274 41.216C116.594 41.376 116.85 41.6053 117.042 41.904C117.234 42.2027 117.33 42.592 117.33 43.072C117.33 43.6053 117.17 44.0693 116.85 44.464C116.541 44.8587 116.098 45.168 115.522 45.392C114.946 45.6053 114.258 45.712 113.458 45.712ZM125.571 39.552H131.155V41.312H125.571V39.552ZM125.747 45.6H123.667V34.4H131.843V36.144H125.747V45.6ZM138.645 45.6V43.872L138.533 43.504V40.48C138.533 39.8933 138.357 39.44 138.005 39.12C137.653 38.7893 137.119 38.624 136.405 38.624C135.925 38.624 135.45 38.6987 134.981 38.848C134.522 38.9973 134.133 39.2053 133.813 39.472L133.029 38.016C133.487 37.664 134.031 37.4027 134.661 37.232C135.301 37.0507 135.962 36.96 136.645 36.96C137.882 36.96 138.837 37.2587 139.509 37.856C140.191 38.4427 140.533 39.3547 140.533 40.592V45.6H138.645ZM135.957 45.712C135.317 45.712 134.757 45.6053 134.277 45.392C133.797 45.168 133.423 44.864 133.157 44.48C132.901 44.0853 132.773 43.6427 132.773 43.152C132.773 42.672 132.885 42.24 133.109 41.856C133.343 41.472 133.722 41.168 134.245 40.944C134.767 40.72 135.461 40.608 136.325 40.608H138.805V41.936H136.469C135.786 41.936 135.327 42.048 135.093 42.272C134.858 42.4853 134.741 42.752 134.741 43.072C134.741 43.4347 134.885 43.7227 135.173 43.936C135.461 44.1493 135.861 44.256 136.373 44.256C136.863 44.256 137.301 44.144 137.685 43.92C138.079 43.696 138.362 43.3653 138.533 42.928L138.869 44.128C138.677 44.6293 138.33 45.0187 137.829 45.296C137.338 45.5733 136.714 45.712 135.957 45.712ZM145.74 45.712C145.025 45.712 144.337 45.6213 143.676 45.44C143.025 45.248 142.508 45.0187 142.124 44.752L142.892 43.232C143.276 43.4773 143.734 43.68 144.268 43.84C144.801 44 145.334 44.08 145.868 44.08C146.497 44.08 146.95 43.9947 147.228 43.824C147.516 43.6533 147.66 43.424 147.66 43.136C147.66 42.9013 147.564 42.7253 147.372 42.608C147.18 42.48 146.929 42.384 146.62 42.32C146.31 42.256 145.964 42.1973 145.58 42.144C145.206 42.0907 144.828 42.0213 144.444 41.936C144.07 41.84 143.729 41.7067 143.42 41.536C143.11 41.3547 142.86 41.1147 142.668 40.816C142.476 40.5173 142.38 40.1227 142.38 39.632C142.38 39.088 142.534 38.6187 142.844 38.224C143.153 37.8187 143.585 37.5093 144.14 37.296C144.705 37.072 145.372 36.96 146.14 36.96C146.716 36.96 147.297 37.024 147.884 37.152C148.47 37.28 148.956 37.4613 149.34 37.696L148.572 39.216C148.166 38.9707 147.756 38.8053 147.34 38.72C146.934 38.624 146.529 38.576 146.124 38.576C145.516 38.576 145.062 38.6667 144.764 38.848C144.476 39.0293 144.332 39.2587 144.332 39.536C144.332 39.792 144.428 39.984 144.62 40.112C144.812 40.24 145.062 40.3413 145.372 40.416C145.681 40.4907 146.022 40.5547 146.396 40.608C146.78 40.6507 147.158 40.72 147.532 40.816C147.905 40.912 148.246 41.0453 148.556 41.216C148.876 41.376 149.132 41.6053 149.324 41.904C149.516 42.2027 149.612 42.592 149.612 43.072C149.612 43.6053 149.452 44.0693 149.132 44.464C148.822 44.8587 148.38 45.168 147.804 45.392C147.228 45.6053 146.54 45.712 145.74 45.712ZM154.55 45.712C153.611 45.712 152.886 45.472 152.374 44.992C151.862 44.5013 151.606 43.7813 151.606 42.832V35.168H153.606V42.784C153.606 43.1893 153.707 43.504 153.91 43.728C154.123 43.952 154.417 44.064 154.79 44.064C155.238 44.064 155.611 43.9467 155.91 43.712L156.47 45.136C156.235 45.328 155.947 45.472 155.606 45.568C155.265 45.664 154.913 45.712 154.55 45.712ZM150.198 38.72V37.12H155.894V38.72H150.198Z" fill="#1F1F1F"/>
<path d="M31.148 67.4927H35.828V68.5977H31.148V67.4927ZM31.265 71.5357H36.569V72.6667H29.965V63.5667H36.387V64.6977H31.265V71.5357ZM42.6801 72.6667V71.2107L42.6151 70.9377V68.4547C42.6151 67.926 42.4591 67.5187 42.1471 67.2327C41.8438 66.938 41.3845 66.7907 40.7691 66.7907C40.3618 66.7907 39.9631 66.86 39.5731 66.9987C39.1831 67.1287 38.8538 67.3063 38.5851 67.5317L38.0651 66.5957C38.4205 66.3097 38.8451 66.093 39.3391 65.9457C39.8418 65.7897 40.3661 65.7117 40.9121 65.7117C41.8568 65.7117 42.5848 65.9413 43.0961 66.4007C43.6075 66.86 43.8631 67.562 43.8631 68.5067V72.6667H42.6801ZM40.4181 72.7447C39.9068 72.7447 39.4561 72.658 39.0661 72.4847C38.6848 72.3113 38.3901 72.073 38.1821 71.7697C37.9741 71.4577 37.8701 71.1067 37.8701 70.7167C37.8701 70.344 37.9568 70.006 38.1301 69.7027C38.3121 69.3993 38.6025 69.1567 39.0011 68.9747C39.4085 68.7927 39.9545 68.7017 40.6391 68.7017H42.8231V69.5987H40.6911C40.0671 69.5987 39.6468 69.7027 39.4301 69.9107C39.2135 70.1187 39.1051 70.37 39.1051 70.6647C39.1051 71.0027 39.2395 71.2757 39.5081 71.4837C39.7768 71.683 40.1495 71.7827 40.6261 71.7827C41.0941 71.7827 41.5015 71.6787 41.8481 71.4707C42.2035 71.2627 42.4591 70.9593 42.6151 70.5607L42.8621 71.4187C42.6975 71.826 42.4071 72.151 41.9911 72.3937C41.5751 72.6277 41.0508 72.7447 40.4181 72.7447ZM48.1487 72.7447C47.5767 72.7447 47.0307 72.6667 46.5107 72.5107C45.9993 72.3547 45.5963 72.164 45.3017 71.9387L45.8217 70.9507C46.1163 71.15 46.4803 71.319 46.9137 71.4577C47.347 71.5963 47.789 71.6657 48.2397 71.6657C48.8203 71.6657 49.2363 71.5833 49.4877 71.4187C49.7477 71.254 49.8777 71.0243 49.8777 70.7297C49.8777 70.513 49.7997 70.344 49.6437 70.2227C49.4877 70.1013 49.2797 70.0103 49.0197 69.9497C48.7683 69.889 48.4867 69.837 48.1747 69.7937C47.8627 69.7417 47.5507 69.681 47.2387 69.6117C46.9267 69.5337 46.6407 69.4297 46.3807 69.2997C46.1207 69.161 45.9127 68.9747 45.7567 68.7407C45.6007 68.498 45.5227 68.1773 45.5227 67.7787C45.5227 67.3627 45.6397 66.9987 45.8737 66.6867C46.1077 66.3747 46.437 66.1363 46.8617 65.9717C47.295 65.7983 47.8063 65.7117 48.3957 65.7117C48.8463 65.7117 49.3013 65.768 49.7607 65.8807C50.2287 65.9847 50.61 66.1363 50.9047 66.3357L50.3717 67.3237C50.0597 67.1157 49.7347 66.9727 49.3967 66.8947C49.0587 66.8167 48.7207 66.7777 48.3827 66.7777C47.8367 66.7777 47.4293 66.8687 47.1607 67.0507C46.892 67.224 46.7577 67.4493 46.7577 67.7267C46.7577 67.9607 46.8357 68.1427 46.9917 68.2727C47.1563 68.394 47.3643 68.4893 47.6157 68.5587C47.8757 68.628 48.1617 68.6887 48.4737 68.7407C48.7857 68.784 49.0977 68.8447 49.4097 68.9227C49.7217 68.992 50.0033 69.0917 50.2547 69.2217C50.5147 69.3517 50.7227 69.5337 50.8787 69.7677C51.0433 70.0017 51.1257 70.3137 51.1257 70.7037C51.1257 71.1197 51.0043 71.4793 50.7617 71.7827C50.519 72.086 50.1767 72.3243 49.7347 72.4977C49.2927 72.6623 48.764 72.7447 48.1487 72.7447ZM52.6853 72.6667V65.7767H53.9333V72.6667H52.6853ZM53.3094 64.4507C53.0667 64.4507 52.863 64.3727 52.6983 64.2167C52.5423 64.0607 52.4643 63.87 52.4643 63.6447C52.4643 63.4107 52.5423 63.2157 52.6983 63.0597C52.863 62.9037 53.0667 62.8257 53.3094 62.8257C53.552 62.8257 53.7513 62.9037 53.9073 63.0597C54.072 63.207 54.1543 63.3933 54.1543 63.6187C54.1543 63.8527 54.0763 64.052 53.9203 64.2167C53.7643 64.3727 53.5607 64.4507 53.3094 64.4507ZM56.3162 72.6667V63.0207H57.5642V72.6667H56.3162ZM60.2461 75.2667C59.9167 75.2667 59.5961 75.2103 59.2841 75.0977C58.9721 74.9937 58.7034 74.8377 58.4781 74.6297L59.0111 73.6937C59.1844 73.8583 59.3751 73.984 59.5831 74.0707C59.7911 74.1573 60.0121 74.2007 60.2461 74.2007C60.5494 74.2007 60.8007 74.1227 61.0001 73.9667C61.1994 73.8107 61.3857 73.5333 61.5591 73.1347L61.9881 72.1857L62.1181 72.0297L64.8221 65.7767H66.0441L62.7031 73.3557C62.5037 73.841 62.2784 74.2223 62.0271 74.4997C61.7844 74.777 61.5157 74.972 61.2211 75.0847C60.9264 75.206 60.6014 75.2667 60.2461 75.2667ZM61.8841 72.8877L58.7381 65.7767H60.0381L62.7161 71.9127L61.8841 72.8877ZM70.882 72.6667V65.1657C70.882 64.4897 71.077 63.9523 71.467 63.5537C71.8657 63.1463 72.429 62.9427 73.157 62.9427C73.4257 62.9427 73.6813 62.9773 73.924 63.0467C74.1753 63.1073 74.3877 63.207 74.561 63.3457L74.184 64.2947C74.054 64.1907 73.9067 64.1127 73.742 64.0607C73.5773 64 73.404 63.9697 73.222 63.9697C72.858 63.9697 72.5807 64.0737 72.39 64.2817C72.1993 64.481 72.104 64.78 72.104 65.1787V66.1017L72.13 66.6737V72.6667H70.882ZM69.712 66.8037V65.7767H74.106V66.8037H69.712ZM75.289 72.6667V65.7767H76.537V72.6667H75.289ZM75.913 64.4507C75.6703 64.4507 75.4667 64.3727 75.302 64.2167C75.146 64.0607 75.068 63.87 75.068 63.6447C75.068 63.4107 75.146 63.2157 75.302 63.0597C75.4667 62.9037 75.6703 62.8257 75.913 62.8257C76.1557 62.8257 76.355 62.9037 76.511 63.0597C76.6757 63.207 76.758 63.3933 76.758 63.6187C76.758 63.8527 76.68 64.052 76.524 64.2167C76.368 64.3727 76.1643 64.4507 75.913 64.4507ZM82.5929 65.7117C83.1562 65.7117 83.6502 65.82 84.0749 66.0367C84.5082 66.2533 84.8462 66.5827 85.0889 67.0247C85.3315 67.4667 85.4529 68.0257 85.4529 68.7017V72.6667H84.2049V68.8447C84.2049 68.1773 84.0402 67.6747 83.7109 67.3367C83.3902 66.9987 82.9352 66.8297 82.3459 66.8297C81.9039 66.8297 81.5182 66.9163 81.1889 67.0897C80.8595 67.263 80.6039 67.5187 80.4219 67.8567C80.2485 68.1947 80.1619 68.615 80.1619 69.1177V72.6667H78.9139V65.7767H80.1099V67.6357L79.9149 67.1417C80.1402 66.691 80.4869 66.34 80.9549 66.0887C81.4229 65.8373 81.9689 65.7117 82.5929 65.7117ZM90.6095 72.7447C89.9422 72.7447 89.3442 72.5973 88.8155 72.3027C88.2955 72.008 87.8838 71.5963 87.5805 71.0677C87.2772 70.539 87.1255 69.9237 87.1255 69.2217C87.1255 68.5197 87.2772 67.9087 87.5805 67.3887C87.8838 66.86 88.2955 66.4483 88.8155 66.1537C89.3442 65.859 89.9422 65.7117 90.6095 65.7117C91.1902 65.7117 91.7145 65.8417 92.1825 66.1017C92.6505 66.3617 93.0232 66.7517 93.3005 67.2717C93.5865 67.7917 93.7295 68.4417 93.7295 69.2217C93.7295 70.0017 93.5908 70.6517 93.3135 71.1717C93.0448 71.6917 92.6765 72.086 92.2085 72.3547C91.7405 72.6147 91.2075 72.7447 90.6095 72.7447ZM90.7135 71.6527C91.1468 71.6527 91.5368 71.553 91.8835 71.3537C92.2388 71.1543 92.5162 70.8727 92.7155 70.5087C92.9235 70.136 93.0275 69.707 93.0275 69.2217C93.0275 68.7277 92.9235 68.303 92.7155 67.9477C92.5162 67.5837 92.2388 67.302 91.8835 67.1027C91.5368 66.9033 91.1468 66.8037 90.7135 66.8037C90.2715 66.8037 89.8772 66.9033 89.5305 67.1027C89.1838 67.302 88.9065 67.5837 88.6985 67.9477C88.4905 68.303 88.3865 68.7277 88.3865 69.2217C88.3865 69.707 88.4905 70.136 88.6985 70.5087C88.9065 70.8727 89.1838 71.1543 89.5305 71.3537C89.8772 71.553 90.2715 71.6527 90.7135 71.6527ZM93.0665 72.6667V70.8077L93.1445 69.2087L93.0145 67.6097V63.0207H94.2625V72.6667H93.0665ZM104.392 72.6667V71.2107L104.327 70.9377V68.4547C104.327 67.926 104.171 67.5187 103.859 67.2327C103.556 66.938 103.096 66.7907 102.481 66.7907C102.074 66.7907 101.675 66.86 101.285 66.9987C100.895 67.1287 100.566 67.3063 100.297 67.5317L99.777 66.5957C100.132 66.3097 100.557 66.093 101.051 65.9457C101.554 65.7897 102.078 65.7117 102.624 65.7117C103.569 65.7117 104.297 65.9413 104.808 66.4007C105.319 66.86 105.575 67.562 105.575 68.5067V72.6667H104.392ZM102.13 72.7447C101.619 72.7447 101.168 72.658 100.778 72.4847C100.397 72.3113 100.102 72.073 99.894 71.7697C99.686 71.4577 99.582 71.1067 99.582 70.7167C99.582 70.344 99.6687 70.006 99.842 69.7027C100.024 69.3993 100.314 69.1567 100.713 68.9747C101.12 68.7927 101.666 68.7017 102.351 68.7017H104.535V69.5987H102.403C101.779 69.5987 101.359 69.7027 101.142 69.9107C100.925 70.1187 100.817 70.37 100.817 70.6647C100.817 71.0027 100.951 71.2757 101.22 71.4837C101.489 71.683 101.861 71.7827 102.338 71.7827C102.806 71.7827 103.213 71.6787 103.56 71.4707C103.915 71.2627 104.171 70.9593 104.327 70.5607L104.574 71.4187C104.409 71.826 104.119 72.151 103.703 72.3937C103.287 72.6277 102.763 72.7447 102.13 72.7447ZM111.564 65.7117C112.127 65.7117 112.621 65.82 113.046 66.0367C113.479 66.2533 113.817 66.5827 114.06 67.0247C114.302 67.4667 114.424 68.0257 114.424 68.7017V72.6667H113.176V68.8447C113.176 68.1773 113.011 67.6747 112.682 67.3367C112.361 66.9987 111.906 66.8297 111.317 66.8297C110.875 66.8297 110.489 66.9163 110.16 67.0897C109.83 67.263 109.575 67.5187 109.393 67.8567C109.219 68.1947 109.133 68.615 109.133 69.1177V72.6667H107.885V65.7767H109.081V67.6357L108.886 67.1417C109.111 66.691 109.458 66.34 109.926 66.0887C110.394 65.8373 110.94 65.7117 111.564 65.7117ZM119.58 72.7447C118.913 72.7447 118.315 72.5973 117.786 72.3027C117.266 72.008 116.855 71.5963 116.551 71.0677C116.248 70.539 116.096 69.9237 116.096 69.2217C116.096 68.5197 116.248 67.9087 116.551 67.3887C116.855 66.86 117.266 66.4483 117.786 66.1537C118.315 65.859 118.913 65.7117 119.58 65.7117C120.161 65.7117 120.685 65.8417 121.153 66.1017C121.621 66.3617 121.994 66.7517 122.271 67.2717C122.557 67.7917 122.7 68.4417 122.7 69.2217C122.7 70.0017 122.562 70.6517 122.284 71.1717C122.016 71.6917 121.647 72.086 121.179 72.3547C120.711 72.6147 120.178 72.7447 119.58 72.7447ZM119.684 71.6527C120.118 71.6527 120.508 71.553 120.854 71.3537C121.21 71.1543 121.487 70.8727 121.686 70.5087C121.894 70.136 121.998 69.707 121.998 69.2217C121.998 68.7277 121.894 68.303 121.686 67.9477C121.487 67.5837 121.21 67.302 120.854 67.1027C120.508 66.9033 120.118 66.8037 119.684 66.8037C119.242 66.8037 118.848 66.9033 118.501 67.1027C118.155 67.302 117.877 67.5837 117.669 67.9477C117.461 68.303 117.357 68.7277 117.357 69.2217C117.357 69.707 117.461 70.136 117.669 70.5087C117.877 70.8727 118.155 71.1543 118.501 71.3537C118.848 71.553 119.242 71.6527 119.684 71.6527ZM122.037 72.6667V70.8077L122.115 69.2087L121.985 67.6097V63.0207H123.233V72.6667H122.037ZM132.154 72.7447C131.417 72.7447 130.767 72.593 130.204 72.2897C129.649 71.9863 129.216 71.5703 128.904 71.0417C128.6 70.513 128.449 69.9063 128.449 69.2217C128.449 68.537 128.596 67.9303 128.891 67.4017C129.194 66.873 129.606 66.4613 130.126 66.1667C130.654 65.8633 131.248 65.7117 131.907 65.7117C132.574 65.7117 133.163 65.859 133.675 66.1537C134.186 66.4483 134.585 66.8643 134.871 67.4017C135.165 67.9303 135.313 68.55 135.313 69.2607C135.313 69.3127 135.308 69.3733 135.3 69.4427C135.3 69.512 135.295 69.577 135.287 69.6377H129.424V68.7407H134.637L134.13 69.0527C134.138 68.6107 134.047 68.2163 133.857 67.8697C133.666 67.523 133.402 67.2543 133.064 67.0637C132.734 66.8643 132.349 66.7647 131.907 66.7647C131.473 66.7647 131.088 66.8643 130.75 67.0637C130.412 67.2543 130.147 67.5273 129.957 67.8827C129.766 68.2293 129.671 68.628 129.671 69.0787V69.2867C129.671 69.746 129.775 70.1577 129.983 70.5217C130.199 70.877 130.498 71.1543 130.88 71.3537C131.261 71.553 131.699 71.6527 132.193 71.6527C132.6 71.6527 132.968 71.5833 133.298 71.4447C133.636 71.306 133.93 71.098 134.182 70.8207L134.871 71.6267C134.559 71.9907 134.169 72.268 133.701 72.4587C133.241 72.6493 132.726 72.7447 132.154 72.7447ZM135.854 72.6667L138.818 68.8187L138.805 69.4557L135.984 65.7767H137.375L139.533 68.6107H139L141.158 65.7767H142.523L139.663 69.4817L139.676 68.8187L142.666 72.6667H141.249L138.974 69.6507L139.481 69.7287L137.245 72.6667H135.854ZM147.681 72.7447C147.109 72.7447 146.585 72.6147 146.108 72.3547C145.64 72.086 145.263 71.6917 144.977 71.1717C144.7 70.6517 144.561 70.0017 144.561 69.2217C144.561 68.4417 144.695 67.7917 144.964 67.2717C145.241 66.7517 145.614 66.3617 146.082 66.1017C146.559 65.8417 147.092 65.7117 147.681 65.7117C148.357 65.7117 148.955 65.859 149.475 66.1537C149.995 66.4483 150.407 66.86 150.71 67.3887C151.013 67.9087 151.165 68.5197 151.165 69.2217C151.165 69.9237 151.013 70.539 150.71 71.0677C150.407 71.5963 149.995 72.008 149.475 72.3027C148.955 72.5973 148.357 72.7447 147.681 72.7447ZM144.028 75.1887V65.7767H145.224V67.6357L145.146 69.2347L145.276 70.8337V75.1887H144.028ZM147.577 71.6527C148.019 71.6527 148.413 71.553 148.76 71.3537C149.115 71.1543 149.393 70.8727 149.592 70.5087C149.8 70.136 149.904 69.707 149.904 69.2217C149.904 68.7277 149.8 68.303 149.592 67.9477C149.393 67.5837 149.115 67.302 148.76 67.1027C148.413 66.9033 148.019 66.8037 147.577 66.8037C147.144 66.8037 146.749 66.9033 146.394 67.1027C146.047 67.302 145.77 67.5837 145.562 67.9477C145.363 68.303 145.263 68.7277 145.263 69.2217C145.263 69.707 145.363 70.136 145.562 70.5087C145.77 70.8727 146.047 71.1543 146.394 71.3537C146.749 71.553 147.144 71.6527 147.577 71.6527ZM152.889 72.6667V63.0207H154.137V72.6667H152.889ZM159.471 72.7447C158.778 72.7447 158.163 72.593 157.625 72.2897C157.088 71.9863 156.663 71.5703 156.351 71.0417C156.039 70.5043 155.883 69.8977 155.883 69.2217C155.883 68.537 156.039 67.9303 156.351 67.4017C156.663 66.873 157.088 66.4613 157.625 66.1667C158.163 65.8633 158.778 65.7117 159.471 65.7117C160.156 65.7117 160.767 65.8633 161.304 66.1667C161.85 66.4613 162.275 66.873 162.578 67.4017C162.89 67.9217 163.046 68.5283 163.046 69.2217C163.046 69.9063 162.89 70.513 162.578 71.0417C162.275 71.5703 161.85 71.9863 161.304 72.2897C160.767 72.593 160.156 72.7447 159.471 72.7447ZM159.471 71.6527C159.913 71.6527 160.308 71.553 160.654 71.3537C161.01 71.1543 161.287 70.8727 161.486 70.5087C161.686 70.136 161.785 69.707 161.785 69.2217C161.785 68.7277 161.686 68.303 161.486 67.9477C161.287 67.5837 161.01 67.302 160.654 67.1027C160.308 66.9033 159.913 66.8037 159.471 66.8037C159.029 66.8037 158.635 66.9033 158.288 67.1027C157.942 67.302 157.664 67.5837 157.456 67.9477C157.248 68.303 157.144 68.7277 157.144 69.2217C157.144 69.707 157.248 70.136 157.456 70.5087C157.664 70.8727 157.942 71.1543 158.288 71.3537C158.635 71.553 159.029 71.6527 159.471 71.6527ZM164.772 72.6667V65.7767H165.968V67.6487L165.851 67.1807C166.042 66.704 166.363 66.34 166.813 66.0887C167.264 65.8373 167.819 65.7117 168.477 65.7117V66.9207C168.425 66.912 168.373 66.9077 168.321 66.9077C168.278 66.9077 168.235 66.9077 168.191 66.9077C167.524 66.9077 166.995 67.107 166.605 67.5057C166.215 67.9043 166.02 68.4807 166.02 69.2347V72.6667H164.772ZM173.02 72.7447C172.283 72.7447 171.633 72.593 171.07 72.2897C170.515 71.9863 170.082 71.5703 169.77 71.0417C169.467 70.513 169.315 69.9063 169.315 69.2217C169.315 68.537 169.462 67.9303 169.757 67.4017C170.06 66.873 170.472 66.4613 170.992 66.1667C171.521 65.8633 172.114 65.7117 172.773 65.7117C173.44 65.7117 174.03 65.859 174.541 66.1537C175.052 66.4483 175.451 66.8643 175.737 67.4017C176.032 67.9303 176.179 68.55 176.179 69.2607C176.179 69.3127 176.175 69.3733 176.166 69.4427C176.166 69.512 176.162 69.577 176.153 69.6377H170.29V68.7407H175.503L174.996 69.0527C175.005 68.6107 174.914 68.2163 174.723 67.8697C174.532 67.523 174.268 67.2543 173.93 67.0637C173.601 66.8643 173.215 66.7647 172.773 66.7647C172.34 66.7647 171.954 66.8643 171.616 67.0637C171.278 67.2543 171.014 67.5273 170.823 67.8827C170.632 68.2293 170.537 68.628 170.537 69.0787V69.2867C170.537 69.746 170.641 70.1577 170.849 70.5217C171.066 70.877 171.365 71.1543 171.746 71.3537C172.127 71.553 172.565 71.6527 173.059 71.6527C173.466 71.6527 173.835 71.5833 174.164 71.4447C174.502 71.306 174.797 71.098 175.048 70.8207L175.737 71.6267C175.425 71.9907 175.035 72.268 174.567 72.4587C174.108 72.6493 173.592 72.7447 173.02 72.7447ZM183.379 72.7447C182.807 72.7447 182.261 72.6667 181.741 72.5107C181.23 72.3547 180.827 72.164 180.532 71.9387L181.052 70.9507C181.347 71.15 181.711 71.319 182.144 71.4577C182.577 71.5963 183.019 71.6657 183.47 71.6657C184.051 71.6657 184.467 71.5833 184.718 71.4187C184.978 71.254 185.108 71.0243 185.108 70.7297C185.108 70.513 185.03 70.344 184.874 70.2227C184.718 70.1013 184.51 70.0103 184.25 69.9497C183.999 69.889 183.717 69.837 183.405 69.7937C183.093 69.7417 182.781 69.681 182.469 69.6117C182.157 69.5337 181.871 69.4297 181.611 69.2997C181.351 69.161 181.143 68.9747 180.987 68.7407C180.831 68.498 180.753 68.1773 180.753 67.7787C180.753 67.3627 180.87 66.9987 181.104 66.6867C181.338 66.3747 181.667 66.1363 182.092 65.9717C182.525 65.7983 183.037 65.7117 183.626 65.7117C184.077 65.7117 184.532 65.768 184.991 65.8807C185.459 65.9847 185.84 66.1363 186.135 66.3357L185.602 67.3237C185.29 67.1157 184.965 66.9727 184.627 66.8947C184.289 66.8167 183.951 66.7777 183.613 66.7777C183.067 66.7777 182.66 66.8687 182.391 67.0507C182.122 67.224 181.988 67.4493 181.988 67.7267C181.988 67.9607 182.066 68.1427 182.222 68.2727C182.387 68.394 182.595 68.4893 182.846 68.5587C183.106 68.628 183.392 68.6887 183.704 68.7407C184.016 68.784 184.328 68.8447 184.64 68.9227C184.952 68.992 185.234 69.0917 185.485 69.2217C185.745 69.3517 185.953 69.5337 186.109 69.7677C186.274 70.0017 186.356 70.3137 186.356 70.7037C186.356 71.1197 186.235 71.4793 185.992 71.7827C185.749 72.086 185.407 72.3243 184.965 72.4977C184.523 72.6623 183.994 72.7447 183.379 72.7447ZM190.282 72.7447C189.588 72.7447 189.051 72.5583 188.67 72.1857C188.288 71.813 188.098 71.28 188.098 70.5867V64.2687H189.346V70.5347C189.346 70.9073 189.437 71.1933 189.619 71.3927C189.809 71.592 190.078 71.6917 190.425 71.6917C190.815 71.6917 191.14 71.5833 191.4 71.3667L191.79 72.2637C191.599 72.4283 191.369 72.5497 191.101 72.6277C190.841 72.7057 190.568 72.7447 190.282 72.7447ZM186.928 66.8037V65.7767H191.322V66.8037H186.928ZM196.198 72.7447C195.608 72.7447 195.088 72.6363 194.638 72.4197C194.196 72.203 193.849 71.8737 193.598 71.4317C193.355 70.981 193.234 70.4177 193.234 69.7417V65.7767H194.482V69.5987C194.482 70.2747 194.642 70.7817 194.963 71.1197C195.292 71.4577 195.751 71.6267 196.341 71.6267C196.774 71.6267 197.151 71.54 197.472 71.3667C197.792 71.1847 198.039 70.9247 198.213 70.5867C198.386 70.24 198.473 69.824 198.473 69.3387V65.7767H199.721V72.6667H198.538V70.8077L198.733 71.3017C198.507 71.761 198.169 72.1163 197.719 72.3677C197.268 72.619 196.761 72.7447 196.198 72.7447ZM204.943 72.7447C204.276 72.7447 203.678 72.5973 203.149 72.3027C202.629 72.008 202.218 71.5963 201.914 71.0677C201.611 70.539 201.459 69.9237 201.459 69.2217C201.459 68.5197 201.611 67.9087 201.914 67.3887C202.218 66.86 202.629 66.4483 203.149 66.1537C203.678 65.859 204.276 65.7117 204.943 65.7117C205.524 65.7117 206.048 65.8417 206.516 66.1017C206.984 66.3617 207.357 66.7517 207.634 67.2717C207.92 67.7917 208.063 68.4417 208.063 69.2217C208.063 70.0017 207.925 70.6517 207.647 71.1717C207.379 71.6917 207.01 72.086 206.542 72.3547C206.074 72.6147 205.541 72.7447 204.943 72.7447ZM205.047 71.6527C205.481 71.6527 205.871 71.553 206.217 71.3537C206.573 71.1543 206.85 70.8727 207.049 70.5087C207.257 70.136 207.361 69.707 207.361 69.2217C207.361 68.7277 207.257 68.303 207.049 67.9477C206.85 67.5837 206.573 67.302 206.217 67.1027C205.871 66.9033 205.481 66.8037 205.047 66.8037C204.605 66.8037 204.211 66.9033 203.864 67.1027C203.518 67.302 203.24 67.5837 203.032 67.9477C202.824 68.303 202.72 68.7277 202.72 69.2217C202.72 69.707 202.824 70.136 203.032 70.5087C203.24 70.8727 203.518 71.1543 203.864 71.3537C204.211 71.553 204.605 71.6527 205.047 71.6527ZM207.4 72.6667V70.8077L207.478 69.2087L207.348 67.6097V63.0207H208.596V72.6667H207.4ZM211.257 75.2667C210.927 75.2667 210.607 75.2103 210.295 75.0977C209.983 74.9937 209.714 74.8377 209.489 74.6297L210.022 73.6937C210.195 73.8583 210.386 73.984 210.594 74.0707C210.802 74.1573 211.023 74.2007 211.257 74.2007C211.56 74.2007 211.811 74.1227 212.011 73.9667C212.21 73.8107 212.396 73.5333 212.57 73.1347L212.999 72.1857L213.129 72.0297L215.833 65.7767H217.055L213.714 73.3557C213.514 73.841 213.289 74.2223 213.038 74.4997C212.795 74.777 212.526 74.972 212.232 75.0847C211.937 75.206 211.612 75.2667 211.257 75.2667ZM212.895 72.8877L209.749 65.7767H211.049L213.727 71.9127L212.895 72.8877ZM225.39 65.7117C225.953 65.7117 226.447 65.82 226.872 66.0367C227.305 66.2533 227.643 66.5827 227.886 67.0247C228.128 67.4667 228.25 68.0257 228.25 68.7017V72.6667H227.002V68.8447C227.002 68.1773 226.837 67.6747 226.508 67.3367C226.187 66.9987 225.732 66.8297 225.143 66.8297C224.701 66.8297 224.315 66.9163 223.986 67.0897C223.656 67.263 223.401 67.5187 223.219 67.8567C223.045 68.1947 222.959 68.615 222.959 69.1177V72.6667H221.711V65.7767H222.907V67.6357L222.712 67.1417C222.937 66.691 223.284 66.34 223.752 66.0887C224.22 65.8373 224.766 65.7117 225.39 65.7117ZM233.51 72.7447C232.817 72.7447 232.202 72.593 231.664 72.2897C231.127 71.9863 230.702 71.5703 230.39 71.0417C230.078 70.5043 229.922 69.8977 229.922 69.2217C229.922 68.537 230.078 67.9303 230.39 67.4017C230.702 66.873 231.127 66.4613 231.664 66.1667C232.202 65.8633 232.817 65.7117 233.51 65.7117C234.195 65.7117 234.806 65.8633 235.343 66.1667C235.889 66.4613 236.314 66.873 236.617 67.4017C236.929 67.9217 237.085 68.5283 237.085 69.2217C237.085 69.9063 236.929 70.513 236.617 71.0417C236.314 71.5703 235.889 71.9863 235.343 72.2897C234.806 72.593 234.195 72.7447 233.51 72.7447ZM233.51 71.6527C233.952 71.6527 234.347 71.553 234.693 71.3537C235.049 71.1543 235.326 70.8727 235.525 70.5087C235.725 70.136 235.824 69.707 235.824 69.2217C235.824 68.7277 235.725 68.303 235.525 67.9477C235.326 67.5837 235.049 67.302 234.693 67.1027C234.347 66.9033 233.952 66.8037 233.51 66.8037C233.068 66.8037 232.674 66.9033 232.327 67.1027C231.981 67.302 231.703 67.5837 231.495 67.9477C231.287 68.303 231.183 68.7277 231.183 69.2217C231.183 69.707 231.287 70.136 231.495 70.5087C231.703 70.8727 231.981 71.1543 232.327 71.3537C232.674 71.553 233.068 71.6527 233.51 71.6527ZM241.177 72.7447C240.484 72.7447 239.947 72.5583 239.565 72.1857C239.184 71.813 238.993 71.28 238.993 70.5867V64.2687H240.241V70.5347C240.241 70.9073 240.332 71.1933 240.514 71.3927C240.705 71.592 240.974 71.6917 241.32 71.6917C241.71 71.6917 242.035 71.5833 242.295 71.3667L242.685 72.2637C242.495 72.4283 242.265 72.5497 241.996 72.6277C241.736 72.7057 241.463 72.7447 241.177 72.7447ZM237.823 66.8037V65.7767H242.217V66.8037H237.823ZM247.034 72.7447C246.297 72.7447 245.647 72.593 245.084 72.2897C244.529 71.9863 244.096 71.5703 243.784 71.0417C243.48 70.513 243.329 69.9063 243.329 69.2217C243.329 68.537 243.476 67.9303 243.771 67.4017C244.074 66.873 244.486 66.4613 245.006 66.1667C245.534 65.8633 246.128 65.7117 246.787 65.7117C247.454 65.7117 248.043 65.859 248.555 66.1537C249.066 66.4483 249.465 66.8643 249.751 67.4017C250.045 67.9303 250.193 68.55 250.193 69.2607C250.193 69.3127 250.188 69.3733 250.18 69.4427C250.18 69.512 250.175 69.577 250.167 69.6377H244.304V68.7407H249.517L249.01 69.0527C249.018 68.6107 248.927 68.2163 248.737 67.8697C248.546 67.523 248.282 67.2543 247.944 67.0637C247.614 66.8643 247.229 66.7647 246.787 66.7647C246.353 66.7647 245.968 66.8643 245.63 67.0637C245.292 67.2543 245.027 67.5273 244.837 67.8827C244.646 68.2293 244.551 68.628 244.551 69.0787V69.2867C244.551 69.746 244.655 70.1577 244.863 70.5217C245.079 70.877 245.378 71.1543 245.76 71.3537C246.141 71.553 246.579 71.6527 247.073 71.6527C247.48 71.6527 247.848 71.5833 248.178 71.4447C248.516 71.306 248.81 71.098 249.062 70.8207L249.751 71.6267C249.439 71.9907 249.049 72.268 248.581 72.4587C248.121 72.6493 247.606 72.7447 247.034 72.7447ZM253.902 72.7447C253.33 72.7447 252.784 72.6667 252.264 72.5107C251.752 72.3547 251.349 72.164 251.055 71.9387L251.575 70.9507C251.869 71.15 252.233 71.319 252.667 71.4577C253.1 71.5963 253.542 71.6657 253.993 71.6657C254.573 71.6657 254.989 71.5833 255.241 71.4187C255.501 71.254 255.631 71.0243 255.631 70.7297C255.631 70.513 255.553 70.344 255.397 70.2227C255.241 70.1013 255.033 70.0103 254.773 69.9497C254.521 69.889 254.24 69.837 253.928 69.7937C253.616 69.7417 253.304 69.681 252.992 69.6117C252.68 69.5337 252.394 69.4297 252.134 69.2997C251.874 69.161 251.666 68.9747 251.51 68.7407C251.354 68.498 251.276 68.1773 251.276 67.7787C251.276 67.3627 251.393 66.9987 251.627 66.6867C251.861 66.3747 252.19 66.1363 252.615 65.9717C253.048 65.7983 253.559 65.7117 254.149 65.7117C254.599 65.7117 255.054 65.768 255.514 65.8807C255.982 65.9847 256.363 66.1363 256.658 66.3357L256.125 67.3237C255.813 67.1157 255.488 66.9727 255.15 66.8947C254.812 66.8167 254.474 66.7777 254.136 66.7777C253.59 66.7777 253.182 66.8687 252.914 67.0507C252.645 67.224 252.511 67.4493 252.511 67.7267C252.511 67.9607 252.589 68.1427 252.745 68.2727C252.909 68.394 253.117 68.4893 253.369 68.5587C253.629 68.628 253.915 68.6887 254.227 68.7407C254.539 68.784 254.851 68.8447 255.163 68.9227C255.475 68.992 255.756 69.0917 256.008 69.2217C256.268 69.3517 256.476 69.5337 256.632 69.7677C256.796 70.0017 256.879 70.3137 256.879 70.7037C256.879 71.1197 256.757 71.4793 256.515 71.7827C256.272 72.086 255.93 72.3243 255.488 72.4977C255.046 72.6623 254.517 72.7447 253.902 72.7447ZM31.759 92.7447C31.187 92.7447 30.641 92.6667 30.121 92.5107C29.6097 92.3547 29.2067 92.164 28.912 91.9387L29.432 90.9507C29.7267 91.15 30.0907 91.319 30.524 91.4577C30.9573 91.5963 31.3993 91.6657 31.85 91.6657C32.4307 91.6657 32.8467 91.5833 33.098 91.4187C33.358 91.254 33.488 91.0243 33.488 90.7297C33.488 90.513 33.41 90.344 33.254 90.2227C33.098 90.1013 32.89 90.0103 32.63 89.9497C32.3787 89.889 32.097 89.837 31.785 89.7937C31.473 89.7417 31.161 89.681 30.849 89.6117C30.537 89.5337 30.251 89.4297 29.991 89.2997C29.731 89.161 29.523 88.9747 29.367 88.7407C29.211 88.498 29.133 88.1773 29.133 87.7787C29.133 87.3627 29.25 86.9987 29.484 86.6867C29.718 86.3747 30.0473 86.1363 30.472 85.9717C30.9053 85.7983 31.4167 85.7117 32.006 85.7117C32.4567 85.7117 32.9117 85.768 33.371 85.8807C33.839 85.9847 34.2203 86.1363 34.515 86.3357L33.982 87.3237C33.67 87.1157 33.345 86.9727 33.007 86.8947C32.669 86.8167 32.331 86.7777 31.993 86.7777C31.447 86.7777 31.0397 86.8687 30.771 87.0507C30.5023 87.224 30.368 87.4493 30.368 87.7267C30.368 87.9607 30.446 88.1427 30.602 88.2727C30.7667 88.394 30.9747 88.4893 31.226 88.5587C31.486 88.628 31.772 88.6887 32.084 88.7407C32.396 88.784 32.708 88.8447 33.02 88.9227C33.332 88.992 33.6137 89.0917 33.865 89.2217C34.125 89.3517 34.333 89.5337 34.489 89.7677C34.6537 90.0017 34.736 90.3137 34.736 90.7037C34.736 91.1197 34.6147 91.4793 34.372 91.7827C34.1293 92.086 33.787 92.3243 33.345 92.4977C32.903 92.6623 32.3743 92.7447 31.759 92.7447ZM39.9747 85.7117C40.538 85.7117 41.032 85.82 41.4567 86.0367C41.89 86.2533 42.228 86.5827 42.4707 87.0247C42.7134 87.4667 42.8347 88.0257 42.8347 88.7017V92.6667H41.5867V88.8447C41.5867 88.1773 41.422 87.6747 41.0927 87.3367C40.772 86.9987 40.317 86.8297 39.7277 86.8297C39.2857 86.8297 38.9 86.9163 38.5707 87.0897C38.2414 87.263 37.9857 87.5187 37.8037 87.8567C37.6304 88.1947 37.5437 88.615 37.5437 89.1177V92.6667H36.2957V83.0207H37.5437V87.6357L37.2967 87.1417C37.522 86.691 37.8687 86.34 38.3367 86.0887C38.8047 85.8373 39.3507 85.7117 39.9747 85.7117ZM49.4213 92.6667V91.2107L49.3563 90.9377V88.4547C49.3563 87.926 49.2003 87.5187 48.8883 87.2327C48.585 86.938 48.1257 86.7907 47.5103 86.7907C47.103 86.7907 46.7043 86.86 46.3143 86.9987C45.9243 87.1287 45.595 87.3063 45.3263 87.5317L44.8063 86.5957C45.1617 86.3097 45.5863 86.093 46.0803 85.9457C46.583 85.7897 47.1073 85.7117 47.6533 85.7117C48.598 85.7117 49.326 85.9413 49.8373 86.4007C50.3487 86.86 50.6043 87.562 50.6043 88.5067V92.6667H49.4213ZM47.1593 92.7447C46.648 92.7447 46.1973 92.658 45.8073 92.4847C45.426 92.3113 45.1313 92.073 44.9233 91.7697C44.7153 91.4577 44.6113 91.1067 44.6113 90.7167C44.6113 90.344 44.698 90.006 44.8713 89.7027C45.0533 89.3993 45.3437 89.1567 45.7423 88.9747C46.1497 88.7927 46.6957 88.7017 47.3803 88.7017H49.5643V89.5987H47.4323C46.8083 89.5987 46.388 89.7027 46.1713 89.9107C45.9547 90.1187 45.8463 90.37 45.8463 90.6647C45.8463 91.0027 45.9807 91.2757 46.2493 91.4837C46.518 91.683 46.8907 91.7827 47.3673 91.7827C47.8353 91.7827 48.2427 91.6787 48.5893 91.4707C48.9447 91.2627 49.2003 90.9593 49.3563 90.5607L49.6033 91.4187C49.4387 91.826 49.1483 92.151 48.7323 92.3937C48.3163 92.6277 47.792 92.7447 47.1593 92.7447ZM52.9139 92.6667V85.7767H54.1099V87.6487L53.9929 87.1807C54.1835 86.704 54.5042 86.34 54.9549 86.0887C55.4055 85.8373 55.9602 85.7117 56.6189 85.7117V86.9207C56.5669 86.912 56.5149 86.9077 56.4629 86.9077C56.4195 86.9077 56.3762 86.9077 56.3329 86.9077C55.6655 86.9077 55.1369 87.107 54.7469 87.5057C54.3569 87.9043 54.1619 88.4807 54.1619 89.2347V92.6667H52.9139ZM61.1616 92.7447C60.4249 92.7447 59.7749 92.593 59.2116 92.2897C58.6569 91.9863 58.2236 91.5703 57.9116 91.0417C57.6082 90.513 57.4566 89.9063 57.4566 89.2217C57.4566 88.537 57.6039 87.9303 57.8986 87.4017C58.2019 86.873 58.6136 86.4613 59.1336 86.1667C59.6622 85.8633 60.2559 85.7117 60.9146 85.7117C61.5819 85.7117 62.1712 85.859 62.6826 86.1537C63.1939 86.4483 63.5926 86.8643 63.8786 87.4017C64.1732 87.9303 64.3206 88.55 64.3206 89.2607C64.3206 89.3127 64.3162 89.3733 64.3076 89.4427C64.3076 89.512 64.3032 89.577 64.2946 89.6377H58.4316V88.7407H63.6446L63.1376 89.0527C63.1462 88.6107 63.0552 88.2163 62.8646 87.8697C62.6739 87.523 62.4096 87.2543 62.0716 87.0637C61.7422 86.8643 61.3566 86.7647 60.9146 86.7647C60.4812 86.7647 60.0956 86.8643 59.7576 87.0637C59.4196 87.2543 59.1552 87.5273 58.9646 87.8827C58.7739 88.2293 58.6786 88.628 58.6786 89.0787V89.2867C58.6786 89.746 58.7826 90.1577 58.9906 90.5217C59.2072 90.877 59.5062 91.1543 59.8876 91.3537C60.2689 91.553 60.7066 91.6527 61.2006 91.6527C61.6079 91.6527 61.9762 91.5833 62.3056 91.4447C62.6436 91.306 62.9382 91.098 63.1896 90.8207L63.8786 91.6267C63.5666 91.9907 63.1766 92.268 62.7086 92.4587C62.2492 92.6493 61.7336 92.7447 61.1616 92.7447ZM68.9005 92.7447C68.2332 92.7447 67.6352 92.5973 67.1065 92.3027C66.5865 92.008 66.1748 91.5963 65.8715 91.0677C65.5682 90.539 65.4165 89.9237 65.4165 89.2217C65.4165 88.5197 65.5682 87.9087 65.8715 87.3887C66.1748 86.86 66.5865 86.4483 67.1065 86.1537C67.6352 85.859 68.2332 85.7117 68.9005 85.7117C69.4812 85.7117 70.0055 85.8417 70.4735 86.1017C70.9415 86.3617 71.3142 86.7517 71.5915 87.2717C71.8775 87.7917 72.0205 88.4417 72.0205 89.2217C72.0205 90.0017 71.8818 90.6517 71.6045 91.1717C71.3358 91.6917 70.9675 92.086 70.4995 92.3547C70.0315 92.6147 69.4985 92.7447 68.9005 92.7447ZM69.0045 91.6527C69.4378 91.6527 69.8278 91.553 70.1745 91.3537C70.5298 91.1543 70.8072 90.8727 71.0065 90.5087C71.2145 90.136 71.3185 89.707 71.3185 89.2217C71.3185 88.7277 71.2145 88.303 71.0065 87.9477C70.8072 87.5837 70.5298 87.302 70.1745 87.1027C69.8278 86.9033 69.4378 86.8037 69.0045 86.8037C68.5625 86.8037 68.1682 86.9033 67.8215 87.1027C67.4748 87.302 67.1975 87.5837 66.9895 87.9477C66.7815 88.303 66.6775 88.7277 66.6775 89.2217C66.6775 89.707 66.7815 90.136 66.9895 90.5087C67.1975 90.8727 67.4748 91.1543 67.8215 91.3537C68.1682 91.553 68.5625 91.6527 69.0045 91.6527ZM71.3575 92.6667V90.8077L71.4355 89.2087L71.3055 87.6097V83.0207H72.5535V92.6667H71.3575ZM82.0591 92.7447C81.4697 92.7447 80.9367 92.6147 80.4601 92.3547C79.9921 92.086 79.6194 91.6917 79.3421 91.1717C79.0734 90.6517 78.9391 90.0017 78.9391 89.2217C78.9391 88.4417 79.0777 87.7917 79.3551 87.2717C79.6411 86.7517 80.0181 86.3617 80.4861 86.1017C80.9627 85.8417 81.4871 85.7117 82.0591 85.7117C82.7351 85.7117 83.3331 85.859 83.8531 86.1537C84.3731 86.4483 84.7847 86.86 85.0881 87.3887C85.3914 87.9087 85.5431 88.5197 85.5431 89.2217C85.5431 89.9237 85.3914 90.539 85.0881 91.0677C84.7847 91.5963 84.3731 92.008 83.8531 92.3027C83.3331 92.5973 82.7351 92.7447 82.0591 92.7447ZM78.4061 92.6667V83.0207H79.6541V87.6097L79.5241 89.2087L79.6021 90.8077V92.6667H78.4061ZM81.9551 91.6527C82.3971 91.6527 82.7914 91.553 83.1381 91.3537C83.4934 91.1543 83.7707 90.8727 83.9701 90.5087C84.1781 90.136 84.2821 89.707 84.2821 89.2217C84.2821 88.7277 84.1781 88.303 83.9701 87.9477C83.7707 87.5837 83.4934 87.302 83.1381 87.1027C82.7914 86.9033 82.3971 86.8037 81.9551 86.8037C81.5217 86.8037 81.1274 86.9033 80.7721 87.1027C80.4254 87.302 80.1481 87.5837 79.9401 87.9477C79.7407 88.303 79.6411 88.7277 79.6411 89.2217C79.6411 89.707 79.7407 90.136 79.9401 90.5087C80.1481 90.8727 80.4254 91.1543 80.7721 91.3537C81.1274 91.553 81.5217 91.6527 81.9551 91.6527ZM87.376 95.2667C87.0466 95.2667 86.726 95.2103 86.414 95.0977C86.102 94.9937 85.8333 94.8377 85.608 94.6297L86.141 93.6937C86.3143 93.8583 86.505 93.984 86.713 94.0707C86.921 94.1573 87.142 94.2007 87.376 94.2007C87.6793 94.2007 87.9306 94.1227 88.13 93.9667C88.3293 93.8107 88.5156 93.5333 88.689 93.1347L89.118 92.1857L89.248 92.0297L91.952 85.7767H93.174L89.833 93.3557C89.6336 93.841 89.4083 94.2223 89.157 94.4997C88.9143 94.777 88.6456 94.972 88.351 95.0847C88.0563 95.206 87.7313 95.2667 87.376 95.2667ZM89.014 92.8877L85.868 85.7767H87.168L89.846 91.9127L89.014 92.8877ZM100.781 92.7447C100.088 92.7447 99.4722 92.593 98.9349 92.2897C98.3975 91.9863 97.9729 91.5703 97.6609 91.0417C97.3489 90.5043 97.1929 89.8977 97.1929 89.2217C97.1929 88.537 97.3489 87.9303 97.6609 87.4017C97.9729 86.873 98.3975 86.4613 98.9349 86.1667C99.4722 85.8633 100.088 85.7117 100.781 85.7117C101.466 85.7117 102.077 85.8633 102.614 86.1667C103.16 86.4613 103.585 86.873 103.888 87.4017C104.2 87.9217 104.356 88.5283 104.356 89.2217C104.356 89.9063 104.2 90.513 103.888 91.0417C103.585 91.5703 103.16 91.9863 102.614 92.2897C102.077 92.593 101.466 92.7447 100.781 92.7447ZM100.781 91.6527C101.223 91.6527 101.617 91.553 101.964 91.3537C102.319 91.1543 102.597 90.8727 102.796 90.5087C102.995 90.136 103.095 89.707 103.095 89.2217C103.095 88.7277 102.995 88.303 102.796 87.9477C102.597 87.5837 102.319 87.302 101.964 87.1027C101.617 86.9033 101.223 86.8037 100.781 86.8037C100.339 86.8037 99.9445 86.9033 99.5979 87.1027C99.2512 87.302 98.9739 87.5837 98.7659 87.9477C98.5579 88.303 98.4539 88.7277 98.4539 89.2217C98.4539 89.707 98.5579 90.136 98.7659 90.5087C98.9739 90.8727 99.2512 91.1543 99.5979 91.3537C99.9445 91.553 100.339 91.6527 100.781 91.6527ZM108.448 92.7447C107.755 92.7447 107.217 92.5583 106.836 92.1857C106.455 91.813 106.264 91.28 106.264 90.5867V84.2687H107.512V90.5347C107.512 90.9073 107.603 91.1933 107.785 91.3927C107.976 91.592 108.244 91.6917 108.591 91.6917C108.981 91.6917 109.306 91.5833 109.566 91.3667L109.956 92.2637C109.765 92.4283 109.536 92.5497 109.267 92.6277C109.007 92.7057 108.734 92.7447 108.448 92.7447ZM105.094 86.8037V85.7767H109.488V86.8037H105.094ZM115.144 85.7117C115.707 85.7117 116.201 85.82 116.626 86.0367C117.059 86.2533 117.397 86.5827 117.64 87.0247C117.882 87.4667 118.004 88.0257 118.004 88.7017V92.6667H116.756V88.8447C116.756 88.1773 116.591 87.6747 116.262 87.3367C115.941 86.9987 115.486 86.8297 114.897 86.8297C114.455 86.8297 114.069 86.9163 113.74 87.0897C113.41 87.263 113.155 87.5187 112.973 87.8567C112.799 88.1947 112.713 88.615 112.713 89.1177V92.6667H111.465V83.0207H112.713V87.6357L112.466 87.1417C112.691 86.691 113.038 86.34 113.506 86.0887C113.974 85.8373 114.52 85.7117 115.144 85.7117ZM123.381 92.7447C122.645 92.7447 121.995 92.593 121.431 92.2897C120.877 91.9863 120.443 91.5703 120.131 91.0417C119.828 90.513 119.676 89.9063 119.676 89.2217C119.676 88.537 119.824 87.9303 120.118 87.4017C120.422 86.873 120.833 86.4613 121.353 86.1667C121.882 85.8633 122.476 85.7117 123.134 85.7117C123.802 85.7117 124.391 85.859 124.902 86.1537C125.414 86.4483 125.812 86.8643 126.098 87.4017C126.393 87.9303 126.54 88.55 126.54 89.2607C126.54 89.3127 126.536 89.3733 126.527 89.4427C126.527 89.512 126.523 89.577 126.514 89.6377H120.651V88.7407H125.864L125.357 89.0527C125.366 88.6107 125.275 88.2163 125.084 87.8697C124.894 87.523 124.629 87.2543 124.291 87.0637C123.962 86.8643 123.576 86.7647 123.134 86.7647C122.701 86.7647 122.315 86.8643 121.977 87.0637C121.639 87.2543 121.375 87.5273 121.184 87.8827C120.994 88.2293 120.898 88.628 120.898 89.0787V89.2867C120.898 89.746 121.002 90.1577 121.21 90.5217C121.427 90.877 121.726 91.1543 122.107 91.3537C122.489 91.553 122.926 91.6527 123.42 91.6527C123.828 91.6527 124.196 91.5833 124.525 91.4447C124.863 91.306 125.158 91.098 125.409 90.8207L126.098 91.6267C125.786 91.9907 125.396 92.268 124.928 92.4587C124.469 92.6493 123.953 92.7447 123.381 92.7447ZM128.273 92.6667V85.7767H129.469V87.6487L129.352 87.1807C129.543 86.704 129.864 86.34 130.314 86.0887C130.765 85.8373 131.32 85.7117 131.978 85.7117V86.9207C131.926 86.912 131.874 86.9077 131.822 86.9077C131.779 86.9077 131.736 86.9077 131.692 86.9077C131.025 86.9077 130.496 87.107 130.106 87.5057C129.716 87.9043 129.521 88.4807 129.521 89.2347V92.6667H128.273ZM139.072 92.7447C138.5 92.7447 137.954 92.6667 137.434 92.5107C136.923 92.3547 136.52 92.164 136.225 91.9387L136.745 90.9507C137.04 91.15 137.404 91.319 137.837 91.4577C138.271 91.5963 138.713 91.6657 139.163 91.6657C139.744 91.6657 140.16 91.5833 140.411 91.4187C140.671 91.254 140.801 91.0243 140.801 90.7297C140.801 90.513 140.723 90.344 140.567 90.2227C140.411 90.1013 140.203 90.0103 139.943 89.9497C139.692 89.889 139.41 89.837 139.098 89.7937C138.786 89.7417 138.474 89.681 138.162 89.6117C137.85 89.5337 137.564 89.4297 137.304 89.2997C137.044 89.161 136.836 88.9747 136.68 88.7407C136.524 88.498 136.446 88.1773 136.446 87.7787C136.446 87.3627 136.563 86.9987 136.797 86.6867C137.031 86.3747 137.361 86.1363 137.785 85.9717C138.219 85.7983 138.73 85.7117 139.319 85.7117C139.77 85.7117 140.225 85.768 140.684 85.8807C141.152 85.9847 141.534 86.1363 141.828 86.3357L141.295 87.3237C140.983 87.1157 140.658 86.9727 140.32 86.8947C139.982 86.8167 139.644 86.7777 139.306 86.7777C138.76 86.7777 138.353 86.8687 138.084 87.0507C137.816 87.224 137.681 87.4493 137.681 87.7267C137.681 87.9607 137.759 88.1427 137.915 88.2727C138.08 88.394 138.288 88.4893 138.539 88.5587C138.799 88.628 139.085 88.6887 139.397 88.7407C139.709 88.784 140.021 88.8447 140.333 88.9227C140.645 88.992 140.927 89.0917 141.178 89.2217C141.438 89.3517 141.646 89.5337 141.802 89.7677C141.967 90.0017 142.049 90.3137 142.049 90.7037C142.049 91.1197 141.928 91.4793 141.685 91.7827C141.443 92.086 141.1 92.3243 140.658 92.4977C140.216 92.6623 139.688 92.7447 139.072 92.7447ZM145.975 92.7447C145.282 92.7447 144.745 92.5583 144.363 92.1857C143.982 91.813 143.791 91.28 143.791 90.5867V84.2687H145.039V90.5347C145.039 90.9073 145.13 91.1933 145.312 91.3927C145.503 91.592 145.772 91.6917 146.118 91.6917C146.508 91.6917 146.833 91.5833 147.093 91.3667L147.483 92.2637C147.293 92.4283 147.063 92.5497 146.794 92.6277C146.534 92.7057 146.261 92.7447 145.975 92.7447ZM142.621 86.8037V85.7767H147.015V86.8037H142.621ZM151.891 92.7447C151.302 92.7447 150.782 92.6363 150.331 92.4197C149.889 92.203 149.542 91.8737 149.291 91.4317C149.048 90.981 148.927 90.4177 148.927 89.7417V85.7767H150.175V89.5987C150.175 90.2747 150.335 90.7817 150.656 91.1197C150.985 91.4577 151.445 91.6267 152.034 91.6267C152.467 91.6267 152.844 91.54 153.165 91.3667C153.486 91.1847 153.733 90.9247 153.906 90.5867C154.079 90.24 154.166 89.824 154.166 89.3387V85.7767H155.414V92.6667H154.231V90.8077L154.426 91.3017C154.201 91.761 153.863 92.1163 153.412 92.3677C152.961 92.619 152.454 92.7447 151.891 92.7447ZM160.637 92.7447C159.97 92.7447 159.372 92.5973 158.843 92.3027C158.323 92.008 157.911 91.5963 157.608 91.0677C157.305 90.539 157.153 89.9237 157.153 89.2217C157.153 88.5197 157.305 87.9087 157.608 87.3887C157.911 86.86 158.323 86.4483 158.843 86.1537C159.372 85.859 159.97 85.7117 160.637 85.7117C161.218 85.7117 161.742 85.8417 162.21 86.1017C162.678 86.3617 163.051 86.7517 163.328 87.2717C163.614 87.7917 163.757 88.4417 163.757 89.2217C163.757 90.0017 163.618 90.6517 163.341 91.1717C163.072 91.6917 162.704 92.086 162.236 92.3547C161.768 92.6147 161.235 92.7447 160.637 92.7447ZM160.741 91.6527C161.174 91.6527 161.564 91.553 161.911 91.3537C162.266 91.1543 162.544 90.8727 162.743 90.5087C162.951 90.136 163.055 89.707 163.055 89.2217C163.055 88.7277 162.951 88.303 162.743 87.9477C162.544 87.5837 162.266 87.302 161.911 87.1027C161.564 86.9033 161.174 86.8037 160.741 86.8037C160.299 86.8037 159.905 86.9033 159.558 87.1027C159.211 87.302 158.934 87.5837 158.726 87.9477C158.518 88.303 158.414 88.7277 158.414 89.2217C158.414 89.707 158.518 90.136 158.726 90.5087C158.934 90.8727 159.211 91.1543 159.558 91.3537C159.905 91.553 160.299 91.6527 160.741 91.6527ZM163.094 92.6667V90.8077L163.172 89.2087L163.042 87.6097V83.0207H164.29V92.6667H163.094ZM169.719 92.7447C168.983 92.7447 168.333 92.593 167.769 92.2897C167.215 91.9863 166.781 91.5703 166.469 91.0417C166.166 90.513 166.014 89.9063 166.014 89.2217C166.014 88.537 166.162 87.9303 166.456 87.4017C166.76 86.873 167.171 86.4613 167.691 86.1667C168.22 85.8633 168.814 85.7117 169.472 85.7117C170.14 85.7117 170.729 85.859 171.24 86.1537C171.752 86.4483 172.15 86.8643 172.436 87.4017C172.731 87.9303 172.878 88.55 172.878 89.2607C172.878 89.3127 172.874 89.3733 172.865 89.4427C172.865 89.512 172.861 89.577 172.852 89.6377H166.989V88.7407H172.202L171.695 89.0527C171.704 88.6107 171.613 88.2163 171.422 87.8697C171.232 87.523 170.967 87.2543 170.629 87.0637C170.3 86.8643 169.914 86.7647 169.472 86.7647C169.039 86.7647 168.653 86.8643 168.315 87.0637C167.977 87.2543 167.713 87.5273 167.522 87.8827C167.332 88.2293 167.236 88.628 167.236 89.0787V89.2867C167.236 89.746 167.34 90.1577 167.548 90.5217C167.765 90.877 168.064 91.1543 168.445 91.3537C168.827 91.553 169.264 91.6527 169.758 91.6527C170.166 91.6527 170.534 91.5833 170.863 91.4447C171.201 91.306 171.496 91.098 171.747 90.8207L172.436 91.6267C172.124 91.9907 171.734 92.268 171.266 92.4587C170.807 92.6493 170.291 92.7447 169.719 92.7447ZM178.29 85.7117C178.853 85.7117 179.347 85.82 179.772 86.0367C180.205 86.2533 180.543 86.5827 180.786 87.0247C181.029 87.4667 181.15 88.0257 181.15 88.7017V92.6667H179.902V88.8447C179.902 88.1773 179.737 87.6747 179.408 87.3367C179.087 86.9987 178.632 86.8297 178.043 86.8297C177.601 86.8297 177.215 86.9163 176.886 87.0897C176.557 87.263 176.301 87.5187 176.119 87.8567C175.946 88.1947 175.859 88.615 175.859 89.1177V92.6667H174.611V85.7767H175.807V87.6357L175.612 87.1417C175.837 86.691 176.184 86.34 176.652 86.0887C177.12 85.8373 177.666 85.7117 178.29 85.7117ZM185.826 92.7447C185.132 92.7447 184.595 92.5583 184.214 92.1857C183.832 91.813 183.642 91.28 183.642 90.5867V84.2687H184.89V90.5347C184.89 90.9073 184.981 91.1933 185.163 91.3927C185.353 91.592 185.622 91.6917 185.969 91.6917C186.359 91.6917 186.684 91.5833 186.944 91.3667L187.334 92.2637C187.143 92.4283 186.913 92.5497 186.645 92.6277C186.385 92.7057 186.112 92.7447 185.826 92.7447ZM182.472 86.8037V85.7767H186.866V86.8037H182.472ZM190.819 92.7447C190.247 92.7447 189.701 92.6667 189.181 92.5107C188.669 92.3547 188.266 92.164 187.972 91.9387L188.492 90.9507C188.786 91.15 189.15 91.319 189.584 91.4577C190.017 91.5963 190.459 91.6657 190.91 91.6657C191.49 91.6657 191.906 91.5833 192.158 91.4187C192.418 91.254 192.548 91.0243 192.548 90.7297C192.548 90.513 192.47 90.344 192.314 90.2227C192.158 90.1013 191.95 90.0103 191.69 89.9497C191.438 89.889 191.157 89.837 190.845 89.7937C190.533 89.7417 190.221 89.681 189.909 89.6117C189.597 89.5337 189.311 89.4297 189.051 89.2997C188.791 89.161 188.583 88.9747 188.427 88.7407C188.271 88.498 188.193 88.1773 188.193 87.7787C188.193 87.3627 188.31 86.9987 188.544 86.6867C188.778 86.3747 189.107 86.1363 189.532 85.9717C189.965 85.7983 190.476 85.7117 191.066 85.7117C191.516 85.7117 191.971 85.768 192.431 85.8807C192.899 85.9847 193.28 86.1363 193.575 86.3357L193.042 87.3237C192.73 87.1157 192.405 86.9727 192.067 86.8947C191.729 86.8167 191.391 86.7777 191.053 86.7777C190.507 86.7777 190.099 86.8687 189.831 87.0507C189.562 87.224 189.428 87.4493 189.428 87.7267C189.428 87.9607 189.506 88.1427 189.662 88.2727C189.826 88.394 190.034 88.4893 190.286 88.5587C190.546 88.628 190.832 88.6887 191.144 88.7407C191.456 88.784 191.768 88.8447 192.08 88.9227C192.392 88.992 192.673 89.0917 192.925 89.2217C193.185 89.3517 193.393 89.5337 193.549 89.7677C193.713 90.0017 193.796 90.3137 193.796 90.7037C193.796 91.1197 193.674 91.4793 193.432 91.7827C193.189 92.086 192.847 92.3243 192.405 92.4977C191.963 92.6623 191.434 92.7447 190.819 92.7447ZM195.654 92.7447C195.412 92.7447 195.204 92.6623 195.03 92.4977C194.857 92.3243 194.77 92.1077 194.77 91.8477C194.77 91.5877 194.857 91.3753 195.03 91.2107C195.204 91.046 195.412 90.9637 195.654 90.9637C195.888 90.9637 196.088 91.046 196.252 91.2107C196.426 91.3753 196.512 91.5877 196.512 91.8477C196.512 92.1077 196.426 92.3243 196.252 92.4977C196.088 92.6623 195.888 92.7447 195.654 92.7447Z" fill="#AEAEAE"/>
</g>
<defs>
<filter id="filter0_d_1363_502" x="5.72205e-06" y="5.72205e-06" width="309.934" height="128.2" filterUnits="userSpaceOnUse" color-interpolation-filters="sRGB">
<feFlood flood-opacity="0" result="BackgroundImageFix"/>
<feColorMatrix in="SourceAlpha" type="matrix" values="0 0 0 0 0 0 0 0 0 0 0 0 0 0 0 0 0 0 127 0" result="hardAlpha"/>
<feOffset/>
<feGaussianBlur stdDeviation="5.8"/>
<feComposite in2="hardAlpha" operator="out"/>
<feColorMatrix type="matrix" values="0 0 0 0 0.135799 0 0 0 0 0.135799 0 0 0 0 0.135799 0 0 0 0.1 0"/>
<feBlend mode="normal" in2="BackgroundImageFix" result="effect1_dropShadow_1363_502"/>
<feBlend mode="normal" in="SourceGraphic" in2="effect1_dropShadow_1363_502" result="shape"/>
</filter>
</defs>
</svg>
