<svg width="80" height="80" viewBox="0 0 80 80" fill="none" xmlns="http://www.w3.org/2000/svg">
<rect width="80" height="80" rx="40" fill="url(#paint0_linear_1363_105)"/>
<path d="M45.7445 50.8736L42.6885 51.6827C39.8599 52.4316 38.4455 52.806 37.3373 52.1927C36.2292 51.5795 35.8599 50.218 35.1215 47.495L33.2939 40.756C32.5554 38.033 32.1862 36.6716 32.8356 35.593C33.4849 34.5144 34.8993 34.14 37.728 33.3911L42.7284 32.0673C45.5571 31.3184 46.9714 30.944 48.0796 31.5572C49.1877 32.1705 49.557 33.532 50.2954 36.255L52.1302 43.0207C52.4442 44.1787 52.6014 44.7577 52.4287 45.3021M45.7445 50.8736C46.6846 50.6247 46.6921 50.6207 47.4232 49.9935L50.853 47.0505C51.7885 46.2479 52.2562 45.8465 52.4287 45.3021M45.7445 50.8736C45.7445 50.8736 46.4796 45.1322 48.125 44.375C49.9915 43.516 52.4287 45.3021 52.4287 45.3021" stroke="white" stroke-width="2" stroke-linejoin="round"/>
<path d="M46.25 31.2515C46.1695 29.9097 45.9466 29.0651 45.3105 28.4595C44.3361 27.5319 42.7725 27.5273 39.645 27.5181L34.1165 27.5017C30.9891 27.4925 29.4254 27.4879 28.4567 28.4097C27.488 29.3316 27.4925 30.8199 27.5016 33.7966L27.5242 41.1634C27.5333 44.1401 27.5379 45.6284 28.5123 46.556C29.4867 47.4836 31.0504 47.4883 34.1778 47.4975L35.0288 47.5" stroke="white" stroke-width="2" stroke-linecap="round"/>
<defs>
<linearGradient id="paint0_linear_1363_105" x1="40" y1="80" x2="40" y2="0" gradientUnits="userSpaceOnUse">
<stop stop-color="#1F1F1F"/>
<stop offset="1" stop-color="#3F3F3F"/>
</linearGradient>
</defs>
</svg>
