<svg width="80" height="80" viewBox="0 0 80 80" fill="none" xmlns="http://www.w3.org/2000/svg">
<circle cx="40" cy="40" r="40" fill="url(#paint0_linear_1542_93)"/>
<path fill-rule="evenodd" clip-rule="evenodd" d="M43.945 25.8773C45.1191 24.7084 47.0239 24.7074 48.1989 25.8753L54.4792 32.1175C55.6442 33.2756 55.6555 35.1507 54.5056 36.3236L37.0515 54.1273C36.2968 54.8969 35.2611 55.3303 34.1804 55.3304L29.0095 55.3314C26.7288 55.331 24.9078 53.4401 25.0036 51.1732L25.2214 46.0052C25.2637 45.0066 25.6822 44.0599 26.3923 43.3529L43.945 25.8773ZM27.8103 44.763C27.4553 45.1165 27.2464 45.59 27.2253 46.0892L27.0065 51.2562C26.9586 52.3896 27.8693 53.3349 29.0095 53.3353L34.1794 53.3363C34.7199 53.3363 35.2385 53.1187 35.6159 52.7337L47.8239 40.2816L40.0622 32.5648L27.8103 44.763ZM46.7819 27.2865C46.3903 26.8971 45.7554 26.8978 45.364 27.2875L41.1247 31.5072L48.8737 39.2103L53.07 34.931C53.4533 34.54 53.4496 33.9147 53.0612 33.5287L46.7819 27.2865Z" fill="white"/>
<defs>
<linearGradient id="paint0_linear_1542_93" x1="40" y1="80" x2="40" y2="0" gradientUnits="userSpaceOnUse">
<stop stop-color="#1F1F1F"/>
<stop offset="1" stop-color="#3F3F3F"/>
</linearGradient>
</defs>
</svg>
