<svg width="310" height="129" viewBox="0 0 310 129" fill="none" xmlns="http://www.w3.org/2000/svg">
<g filter="url(#filter0_d_1363_498)">
<rect x="11.6" y="11.6" width="286.734" height="105" rx="20" fill="white" shape-rendering="crispEdges"/>
<path d="M33.576 45.76C32.7013 45.76 31.864 45.6373 31.064 45.392C30.264 45.136 29.6293 44.8106 29.16 44.416L29.88 42.8C30.328 43.152 30.8827 43.4453 31.544 43.68C32.2053 43.9146 32.8827 44.032 33.576 44.032C34.1627 44.032 34.6373 43.968 35 43.84C35.3627 43.712 35.6293 43.5413 35.8 43.328C35.9707 43.104 36.056 42.8533 36.056 42.576C36.056 42.2346 35.9333 41.9626 35.688 41.76C35.4427 41.5466 35.1227 41.3813 34.728 41.264C34.344 41.136 33.912 41.0186 33.432 40.912C32.9627 40.8053 32.488 40.6826 32.008 40.544C31.5387 40.3946 31.1067 40.208 30.712 39.984C30.328 39.7493 30.0133 39.44 29.768 39.056C29.5227 38.672 29.4 38.1813 29.4 37.584C29.4 36.976 29.56 36.4213 29.88 35.92C30.2107 35.408 30.7067 35.0026 31.368 34.704C32.04 34.3946 32.888 34.24 33.912 34.24C34.584 34.24 35.2507 34.3253 35.912 34.496C36.5733 34.6666 37.1493 34.912 37.64 35.232L36.984 36.848C36.4827 36.5493 35.9653 36.3306 35.432 36.192C34.8987 36.0426 34.3867 35.968 33.896 35.968C33.32 35.968 32.8507 36.0373 32.488 36.176C32.136 36.3146 31.8747 36.496 31.704 36.72C31.544 36.944 31.464 37.2 31.464 37.488C31.464 37.8293 31.5813 38.1066 31.816 38.32C32.0613 38.5226 32.376 38.6826 32.76 38.8C33.1547 38.9173 33.592 39.0346 34.072 39.152C34.552 39.2586 35.0267 39.3813 35.496 39.52C35.976 39.6586 36.408 39.84 36.792 40.064C37.1867 40.288 37.5013 40.592 37.736 40.976C37.9813 41.36 38.104 41.8453 38.104 42.432C38.104 43.0293 37.9387 43.584 37.608 44.096C37.288 44.5973 36.792 45.0026 36.12 45.312C35.448 45.6106 34.6 45.76 33.576 45.76ZM44.8225 36.96C45.5052 36.96 46.1132 37.0933 46.6465 37.36C47.1905 37.6266 47.6172 38.0373 47.9265 38.592C48.2358 39.136 48.3905 39.84 48.3905 40.704V45.6H46.3905V40.96C46.3905 40.2026 46.2092 39.6373 45.8465 39.264C45.4945 38.8906 44.9985 38.704 44.3585 38.704C43.8892 38.704 43.4732 38.8 43.1105 38.992C42.7478 39.184 42.4652 39.472 42.2625 39.856C42.0705 40.2293 41.9745 40.704 41.9745 41.28V45.6H39.9745V33.728H41.9745V39.36L41.5425 38.656C41.8412 38.112 42.2732 37.696 42.8385 37.408C43.4145 37.1093 44.0758 36.96 44.8225 36.96ZM56.1916 45.6V43.872L56.0796 43.504V40.48C56.0796 39.8933 55.9036 39.44 55.5516 39.12C55.1996 38.7893 54.6663 38.624 53.9516 38.624C53.4716 38.624 52.997 38.6986 52.5276 38.848C52.069 38.9973 51.6796 39.2053 51.3596 39.472L50.5756 38.016C51.0343 37.664 51.5783 37.4026 52.2076 37.232C52.8476 37.0506 53.509 36.96 54.1916 36.96C55.429 36.96 56.3836 37.2586 57.0556 37.856C57.7383 38.4426 58.0796 39.3546 58.0796 40.592V45.6H56.1916ZM53.5036 45.712C52.8636 45.712 52.3036 45.6053 51.8236 45.392C51.3436 45.168 50.9703 44.864 50.7036 44.48C50.4476 44.0853 50.3196 43.6426 50.3196 43.152C50.3196 42.672 50.4316 42.24 50.6556 41.856C50.8903 41.472 51.269 41.168 51.7916 40.944C52.3143 40.72 53.0076 40.608 53.8716 40.608H56.3516V41.936H54.0156C53.333 41.936 52.8743 42.048 52.6396 42.272C52.405 42.4853 52.2876 42.752 52.2876 43.072C52.2876 43.4346 52.4316 43.7226 52.7196 43.936C53.0076 44.1493 53.4076 44.256 53.9196 44.256C54.4103 44.256 54.8476 44.144 55.2316 43.92C55.6263 43.696 55.909 43.3653 56.0796 42.928L56.4156 44.128C56.2236 44.6293 55.877 45.0186 55.3756 45.296C54.885 45.5733 54.261 45.712 53.5036 45.712ZM60.6464 45.6V37.056H62.5504V39.408L62.3264 38.72C62.5824 38.144 62.9824 37.7066 63.5264 37.408C64.081 37.1093 64.769 36.96 65.5904 36.96V38.864C65.505 38.8426 65.425 38.832 65.3504 38.832C65.2757 38.8213 65.201 38.816 65.1264 38.816C64.369 38.816 63.7664 39.04 63.3184 39.488C62.8704 39.9253 62.6464 40.5813 62.6464 41.456V45.6H60.6464ZM71.2249 45.712C70.2755 45.712 69.4435 45.5253 68.7289 45.152C68.0249 44.768 67.4755 44.2453 67.0809 43.584C66.6969 42.9226 66.5049 42.1706 66.5049 41.328C66.5049 40.4746 66.6915 39.7226 67.0649 39.072C67.4489 38.4106 67.9715 37.8933 68.6329 37.52C69.3049 37.1466 70.0675 36.96 70.9209 36.96C71.7529 36.96 72.4942 37.1413 73.1449 37.504C73.7955 37.8666 74.3075 38.3786 74.6809 39.04C75.0542 39.7013 75.2409 40.48 75.2409 41.376C75.2409 41.4613 75.2355 41.5573 75.2249 41.664C75.2249 41.7706 75.2195 41.872 75.2089 41.968H68.0889V40.64H74.1529L73.3689 41.056C73.3795 40.5653 73.2782 40.1333 73.0649 39.76C72.8515 39.3866 72.5582 39.0933 72.1849 38.88C71.8222 38.6666 71.4009 38.56 70.9209 38.56C70.4302 38.56 69.9982 38.6666 69.6249 38.88C69.2622 39.0933 68.9742 39.392 68.7609 39.776C68.5582 40.1493 68.4569 40.592 68.4569 41.104V41.424C68.4569 41.936 68.5742 42.3893 68.8089 42.784C69.0435 43.1786 69.3742 43.4826 69.8009 43.696C70.2275 43.9093 70.7182 44.016 71.2729 44.016C71.7529 44.016 72.1849 43.9413 72.5689 43.792C72.9529 43.6426 73.2942 43.408 73.5929 43.088L74.6649 44.32C74.2809 44.768 73.7955 45.1146 73.2089 45.36C72.6329 45.5946 71.9715 45.712 71.2249 45.712ZM84.5279 45.6V41.168L84.9919 42.448L80.1279 34.4H82.3519L86.2559 40.88H85.0079L88.9439 34.4H90.9919L86.1279 42.448L86.6079 41.168V45.6H84.5279ZM95.0489 45.712C94.1742 45.712 93.3955 45.5253 92.7129 45.152C92.0302 44.768 91.4915 44.2453 91.0969 43.584C90.7022 42.9226 90.5049 42.1706 90.5049 41.328C90.5049 40.4746 90.7022 39.7226 91.0969 39.072C91.4915 38.4106 92.0302 37.8933 92.7129 37.52C93.3955 37.1466 94.1742 36.96 95.0489 36.96C95.9342 36.96 96.7182 37.1466 97.4009 37.52C98.0942 37.8933 98.6329 38.4053 99.0169 39.056C99.4115 39.7066 99.6089 40.464 99.6089 41.328C99.6089 42.1706 99.4115 42.9226 99.0169 43.584C98.6329 44.2453 98.0942 44.768 97.4009 45.152C96.7182 45.5253 95.9342 45.712 95.0489 45.712ZM95.0489 44C95.5395 44 95.9769 43.8933 96.3609 43.68C96.7449 43.4666 97.0435 43.1573 97.2569 42.752C97.4809 42.3466 97.5929 41.872 97.5929 41.328C97.5929 40.7733 97.4809 40.2986 97.2569 39.904C97.0435 39.4986 96.7449 39.1893 96.3609 38.976C95.9769 38.7626 95.5449 38.656 95.0649 38.656C94.5742 38.656 94.1369 38.7626 93.7529 38.976C93.3795 39.1893 93.0809 39.4986 92.8569 39.904C92.6329 40.2986 92.5209 40.7733 92.5209 41.328C92.5209 41.872 92.6329 42.3466 92.8569 42.752C93.0809 43.1573 93.3795 43.4666 93.7529 43.68C94.1369 43.8933 94.5689 44 95.0489 44ZM105.137 45.712C104.412 45.712 103.772 45.5786 103.217 45.312C102.663 45.0346 102.231 44.6186 101.921 44.064C101.612 43.4986 101.457 42.7893 101.457 41.936V37.056H103.457V41.664C103.457 42.432 103.628 43.008 103.969 43.392C104.321 43.7653 104.817 43.952 105.457 43.952C105.927 43.952 106.332 43.856 106.673 43.664C107.025 43.472 107.297 43.184 107.489 42.8C107.692 42.416 107.793 41.9413 107.793 41.376V37.056H109.793V45.6H107.889V43.296L108.225 44C107.937 44.5546 107.516 44.9813 106.961 45.28C106.407 45.568 105.799 45.712 105.137 45.712ZM112.412 45.6V37.056H114.316V39.408L114.092 38.72C114.348 38.144 114.748 37.7066 115.292 37.408C115.847 37.1093 116.535 36.96 117.356 36.96V38.864C117.271 38.8426 117.191 38.832 117.116 38.832C117.041 38.8213 116.967 38.816 116.892 38.816C116.135 38.816 115.532 39.04 115.084 39.488C114.636 39.9253 114.412 40.5813 114.412 41.456V45.6H112.412ZM123.745 45.6V34.4H125.457L132.481 43.024H131.633V34.4H133.697V45.6H131.985L124.961 36.976H125.809V45.6H123.745ZM140.346 45.712C139.471 45.712 138.692 45.5253 138.01 45.152C137.327 44.768 136.788 44.2453 136.394 43.584C135.999 42.9226 135.802 42.1706 135.802 41.328C135.802 40.4746 135.999 39.7226 136.394 39.072C136.788 38.4106 137.327 37.8933 138.01 37.52C138.692 37.1466 139.471 36.96 140.346 36.96C141.231 36.96 142.015 37.1466 142.698 37.52C143.391 37.8933 143.93 38.4053 144.314 39.056C144.708 39.7066 144.906 40.464 144.906 41.328C144.906 42.1706 144.708 42.9226 144.314 43.584C143.93 44.2453 143.391 44.768 142.698 45.152C142.015 45.5253 141.231 45.712 140.346 45.712ZM140.346 44C140.836 44 141.274 43.8933 141.658 43.68C142.042 43.4666 142.34 43.1573 142.554 42.752C142.778 42.3466 142.89 41.872 142.89 41.328C142.89 40.7733 142.778 40.2986 142.554 39.904C142.34 39.4986 142.042 39.1893 141.658 38.976C141.274 38.7626 140.842 38.656 140.362 38.656C139.871 38.656 139.434 38.7626 139.05 38.976C138.676 39.1893 138.378 39.4986 138.154 39.904C137.93 40.2986 137.818 40.7733 137.818 41.328C137.818 41.872 137.93 42.3466 138.154 42.752C138.378 43.1573 138.676 43.4666 139.05 43.68C139.434 43.8933 139.866 44 140.346 44ZM150.034 45.712C149.096 45.712 148.37 45.472 147.858 44.992C147.346 44.5013 147.09 43.7813 147.09 42.832V35.168H149.09V42.784C149.09 43.1893 149.192 43.504 149.394 43.728C149.608 43.952 149.901 44.064 150.274 44.064C150.722 44.064 151.096 43.9466 151.394 43.712L151.954 45.136C151.72 45.328 151.432 45.472 151.09 45.568C150.749 45.664 150.397 45.712 150.034 45.712ZM145.682 38.72V37.12H151.378V38.72H145.682ZM157.334 45.712C156.385 45.712 155.553 45.5253 154.838 45.152C154.134 44.768 153.585 44.2453 153.19 43.584C152.806 42.9226 152.614 42.1706 152.614 41.328C152.614 40.4746 152.801 39.7226 153.174 39.072C153.558 38.4106 154.081 37.8933 154.742 37.52C155.414 37.1466 156.177 36.96 157.03 36.96C157.862 36.96 158.604 37.1413 159.254 37.504C159.905 37.8666 160.417 38.3786 160.79 39.04C161.164 39.7013 161.35 40.48 161.35 41.376C161.35 41.4613 161.345 41.5573 161.334 41.664C161.334 41.7706 161.329 41.872 161.318 41.968H154.198V40.64H160.262L159.478 41.056C159.489 40.5653 159.388 40.1333 159.174 39.76C158.961 39.3866 158.668 39.0933 158.294 38.88C157.932 38.6666 157.51 38.56 157.03 38.56C156.54 38.56 156.108 38.6666 155.734 38.88C155.372 39.0933 155.084 39.392 154.87 39.776C154.668 40.1493 154.566 40.592 154.566 41.104V41.424C154.566 41.936 154.684 42.3893 154.918 42.784C155.153 43.1786 155.484 43.4826 155.91 43.696C156.337 43.9093 156.828 44.016 157.382 44.016C157.862 44.016 158.294 43.9413 158.678 43.792C159.062 43.6426 159.404 43.408 159.702 43.088L160.774 44.32C160.39 44.768 159.905 45.1146 159.318 45.36C158.742 45.5946 158.081 45.712 157.334 45.712ZM165.911 45.712C165.197 45.712 164.509 45.6213 163.847 45.44C163.197 45.248 162.679 45.0186 162.295 44.752L163.063 43.232C163.447 43.4773 163.906 43.68 164.439 43.84C164.973 44 165.506 44.08 166.039 44.08C166.669 44.08 167.122 43.9946 167.399 43.824C167.687 43.6533 167.831 43.424 167.831 43.136C167.831 42.9013 167.735 42.7253 167.543 42.608C167.351 42.48 167.101 42.384 166.791 42.32C166.482 42.256 166.135 42.1973 165.751 42.144C165.378 42.0906 164.999 42.0213 164.615 41.936C164.242 41.84 163.901 41.7066 163.591 41.536C163.282 41.3546 163.031 41.1146 162.839 40.816C162.647 40.5173 162.551 40.1226 162.551 39.632C162.551 39.088 162.706 38.6186 163.015 38.224C163.325 37.8186 163.757 37.5093 164.311 37.296C164.877 37.072 165.543 36.96 166.311 36.96C166.887 36.96 167.469 37.024 168.055 37.152C168.642 37.28 169.127 37.4613 169.511 37.696L168.743 39.216C168.338 38.9706 167.927 38.8053 167.511 38.72C167.106 38.624 166.701 38.576 166.295 38.576C165.687 38.576 165.234 38.6666 164.935 38.848C164.647 39.0293 164.503 39.2586 164.503 39.536C164.503 39.792 164.599 39.984 164.791 40.112C164.983 40.24 165.234 40.3413 165.543 40.416C165.853 40.4906 166.194 40.5546 166.567 40.608C166.951 40.6506 167.33 40.72 167.703 40.816C168.077 40.912 168.418 41.0453 168.727 41.216C169.047 41.376 169.303 41.6053 169.495 41.904C169.687 42.2026 169.783 42.592 169.783 43.072C169.783 43.6053 169.623 44.0693 169.303 44.464C168.994 44.8586 168.551 45.168 167.975 45.392C167.399 45.6053 166.711 45.712 165.911 45.712Z" fill="#1F1F1F"/>
<path d="M32.617 72.7706C31.9237 72.7706 31.2607 72.6666 30.628 72.4586C29.9953 72.242 29.497 71.9646 29.133 71.6266L29.614 70.6126C29.9607 70.916 30.4027 71.1673 30.94 71.3666C31.4773 71.566 32.0363 71.6656 32.617 71.6656C33.1457 71.6656 33.5747 71.605 33.904 71.4836C34.2333 71.3623 34.476 71.1976 34.632 70.9896C34.788 70.773 34.866 70.5303 34.866 70.2616C34.866 69.9496 34.762 69.6983 34.554 69.5076C34.3547 69.317 34.0903 69.1653 33.761 69.0526C33.4403 68.9313 33.085 68.8273 32.695 68.7406C32.305 68.654 31.9107 68.5543 31.512 68.4416C31.122 68.3203 30.7623 68.1686 30.433 67.9866C30.1123 67.8046 29.8523 67.562 29.653 67.2586C29.4537 66.9466 29.354 66.548 29.354 66.0626C29.354 65.5946 29.4753 65.1656 29.718 64.7756C29.9693 64.377 30.3507 64.0606 30.862 63.8266C31.382 63.584 32.0407 63.4626 32.838 63.4626C33.3667 63.4626 33.891 63.532 34.411 63.6706C34.931 63.8093 35.3817 64.0086 35.763 64.2686L35.334 65.3086C34.944 65.0486 34.5323 64.8623 34.099 64.7496C33.6657 64.6283 33.2453 64.5676 32.838 64.5676C32.3267 64.5676 31.9063 64.6326 31.577 64.7626C31.2477 64.8926 31.005 65.066 30.849 65.2826C30.7017 65.4993 30.628 65.742 30.628 66.0106C30.628 66.3313 30.7277 66.587 30.927 66.7776C31.135 66.9683 31.3993 67.12 31.72 67.2326C32.0493 67.3453 32.409 67.4493 32.799 67.5446C33.189 67.6313 33.579 67.731 33.969 67.8436C34.3677 67.9563 34.7273 68.1036 35.048 68.2856C35.3773 68.4676 35.6417 68.7103 35.841 69.0136C36.0403 69.317 36.14 69.707 36.14 70.1836C36.14 70.643 36.0143 71.072 35.763 71.4706C35.5117 71.8606 35.1217 72.177 34.593 72.4196C34.073 72.6536 33.4143 72.7706 32.617 72.7706ZM41.5362 65.7116C42.0996 65.7116 42.5936 65.82 43.0182 66.0366C43.4516 66.2533 43.7896 66.5826 44.0322 67.0246C44.2749 67.4666 44.3962 68.0256 44.3962 68.7016V72.6666H43.1482V68.8446C43.1482 68.1773 42.9836 67.6746 42.6542 67.3366C42.3336 66.9986 41.8786 66.8296 41.2892 66.8296C40.8472 66.8296 40.4616 66.9163 40.1322 67.0896C39.8029 67.263 39.5472 67.5186 39.3652 67.8566C39.1919 68.1946 39.1052 68.615 39.1052 69.1176V72.6666H37.8572V63.0206H39.1052V67.6356L38.8582 67.1416C39.0836 66.691 39.4302 66.34 39.8982 66.0886C40.3662 65.8373 40.9122 65.7116 41.5362 65.7116ZM50.9829 72.6666V71.2106L50.9179 70.9376V68.4546C50.9179 67.926 50.7619 67.5186 50.4499 67.2326C50.1465 66.938 49.6872 66.7906 49.0719 66.7906C48.6645 66.7906 48.2659 66.86 47.8759 66.9986C47.4859 67.1286 47.1565 67.3063 46.8879 67.5316L46.3679 66.5956C46.7232 66.3096 47.1479 66.093 47.6419 65.9456C48.1445 65.7896 48.6689 65.7116 49.2149 65.7116C50.1595 65.7116 50.8875 65.9413 51.3989 66.4006C51.9102 66.86 52.1659 67.562 52.1659 68.5066V72.6666H50.9829ZM48.7209 72.7446C48.2095 72.7446 47.7589 72.658 47.3689 72.4846C46.9875 72.3113 46.6929 72.073 46.4849 71.7696C46.2769 71.4576 46.1729 71.1066 46.1729 70.7166C46.1729 70.344 46.2595 70.006 46.4329 69.7026C46.6149 69.3993 46.9052 69.1566 47.3039 68.9746C47.7112 68.7926 48.2572 68.7016 48.9419 68.7016H51.1259V69.5986H48.9939C48.3699 69.5986 47.9495 69.7026 47.7329 69.9106C47.5162 70.1186 47.4079 70.37 47.4079 70.6646C47.4079 71.0026 47.5422 71.2756 47.8109 71.4836C48.0795 71.683 48.4522 71.7826 48.9289 71.7826C49.3969 71.7826 49.8042 71.6786 50.1509 71.4706C50.5062 71.2626 50.7619 70.9593 50.9179 70.5606L51.1649 71.4186C51.0002 71.826 50.7099 72.151 50.2939 72.3936C49.8779 72.6276 49.3535 72.7446 48.7209 72.7446ZM54.4754 72.6666V65.7766H55.6714V67.6486L55.5544 67.1806C55.7451 66.704 56.0657 66.34 56.5164 66.0886C56.9671 65.8373 57.5217 65.7116 58.1804 65.7116V66.9206C58.1284 66.912 58.0764 66.9076 58.0244 66.9076C57.9811 66.9076 57.9377 66.9076 57.8944 66.9076C57.2271 66.9076 56.6984 67.107 56.3084 67.5056C55.9184 67.9043 55.7234 68.4806 55.7234 69.2346V72.6666H54.4754ZM62.7231 72.7446C61.9864 72.7446 61.3364 72.593 60.7731 72.2896C60.2184 71.9863 59.7851 71.5703 59.4731 71.0416C59.1697 70.513 59.0181 69.9063 59.0181 69.2216C59.0181 68.537 59.1654 67.9303 59.4601 67.4016C59.7634 66.873 60.1751 66.4613 60.6951 66.1666C61.2237 65.8633 61.8174 65.7116 62.4761 65.7116C63.1434 65.7116 63.7327 65.859 64.2441 66.1536C64.7554 66.4483 65.1541 66.8643 65.4401 67.4016C65.7347 67.9303 65.8821 68.55 65.8821 69.2606C65.8821 69.3126 65.8777 69.3733 65.8691 69.4426C65.8691 69.512 65.8647 69.577 65.8561 69.6376H59.9931V68.7406H65.2061L64.6991 69.0526C64.7077 68.6106 64.6167 68.2163 64.4261 67.8696C64.2354 67.523 63.9711 67.2543 63.6331 67.0636C63.3037 66.8643 62.9181 66.7646 62.4761 66.7646C62.0427 66.7646 61.6571 66.8643 61.3191 67.0636C60.9811 67.2543 60.7167 67.5273 60.5261 67.8826C60.3354 68.2293 60.2401 68.628 60.2401 69.0786V69.2866C60.2401 69.746 60.3441 70.1576 60.5521 70.5216C60.7687 70.877 61.0677 71.1543 61.4491 71.3536C61.8304 71.553 62.2681 71.6526 62.7621 71.6526C63.1694 71.6526 63.5377 71.5833 63.8671 71.4446C64.2051 71.306 64.4997 71.098 64.7511 70.8206L65.4401 71.6266C65.1281 71.9906 64.7381 72.268 64.2701 72.4586C63.8107 72.6493 63.2951 72.7446 62.7231 72.7446ZM71.4052 75.2666C71.0759 75.2666 70.7552 75.2103 70.4432 75.0976C70.1312 74.9936 69.8626 74.8376 69.6372 74.6296L70.1702 73.6936C70.3436 73.8583 70.5342 73.984 70.7422 74.0706C70.9502 74.1573 71.1712 74.2006 71.4052 74.2006C71.7086 74.2006 71.9599 74.1226 72.1592 73.9666C72.3586 73.8106 72.5449 73.5333 72.7182 73.1346L73.1472 72.1856L73.2772 72.0296L75.9812 65.7766H77.2032L73.8622 73.3556C73.6629 73.841 73.4376 74.2223 73.1862 74.4996C72.9436 74.777 72.6749 74.972 72.3802 75.0846C72.0856 75.206 71.7606 75.2666 71.4052 75.2666ZM73.0432 72.8876L69.8972 65.7766H71.1972L73.8752 71.9126L73.0432 72.8876ZM81.1285 72.7446C80.4352 72.7446 79.8199 72.593 79.2825 72.2896C78.7452 71.9863 78.3205 71.5703 78.0085 71.0416C77.6965 70.5043 77.5405 69.8976 77.5405 69.2216C77.5405 68.537 77.6965 67.9303 78.0085 67.4016C78.3205 66.873 78.7452 66.4613 79.2825 66.1666C79.8199 65.8633 80.4352 65.7116 81.1285 65.7116C81.8132 65.7116 82.4242 65.8633 82.9615 66.1666C83.5075 66.4613 83.9322 66.873 84.2355 67.4016C84.5475 67.9216 84.7035 68.5283 84.7035 69.2216C84.7035 69.9063 84.5475 70.513 84.2355 71.0416C83.9322 71.5703 83.5075 71.9863 82.9615 72.2896C82.4242 72.593 81.8132 72.7446 81.1285 72.7446ZM81.1285 71.6526C81.5705 71.6526 81.9649 71.553 82.3115 71.3536C82.6669 71.1543 82.9442 70.8726 83.1435 70.5086C83.3429 70.136 83.4425 69.707 83.4425 69.2216C83.4425 68.7276 83.3429 68.303 83.1435 67.9476C82.9442 67.5836 82.6669 67.302 82.3115 67.1026C81.9649 66.9033 81.5705 66.8036 81.1285 66.8036C80.6865 66.8036 80.2922 66.9033 79.9455 67.1026C79.5989 67.302 79.3215 67.5836 79.1135 67.9476C78.9055 68.303 78.8015 68.7276 78.8015 69.2216C78.8015 69.707 78.9055 70.136 79.1135 70.5086C79.3215 70.8726 79.5989 71.1543 79.9455 71.3536C80.2922 71.553 80.6865 71.6526 81.1285 71.6526ZM89.3285 72.7446C88.7392 72.7446 88.2192 72.6363 87.7685 72.4196C87.3265 72.203 86.9798 71.8736 86.7285 71.4316C86.4858 70.981 86.3645 70.4176 86.3645 69.7416V65.7766H87.6125V69.5986C87.6125 70.2746 87.7728 70.7816 88.0935 71.1196C88.4228 71.4576 88.8822 71.6266 89.4715 71.6266C89.9048 71.6266 90.2818 71.54 90.6025 71.3666C90.9232 71.1846 91.1702 70.9246 91.3435 70.5866C91.5168 70.24 91.6035 69.824 91.6035 69.3386V65.7766H92.8515V72.6666H91.6685V70.8076L91.8635 71.3016C91.6382 71.761 91.3002 72.1163 90.8495 72.3676C90.3988 72.619 89.8918 72.7446 89.3285 72.7446ZM95.2273 72.6666V65.7766H96.4233V67.6486L96.3063 67.1806C96.497 66.704 96.8177 66.34 97.2683 66.0886C97.719 65.8373 98.2737 65.7116 98.9323 65.7116V66.9206C98.8803 66.912 98.8283 66.9076 98.7763 66.9076C98.733 66.9076 98.6897 66.9076 98.6463 66.9076C97.979 66.9076 97.4503 67.107 97.0603 67.5056C96.6703 67.9043 96.4753 68.4806 96.4753 69.2346V72.6666H95.2273ZM107.73 65.7116C108.293 65.7116 108.787 65.82 109.212 66.0366C109.645 66.2533 109.983 66.5826 110.226 67.0246C110.468 67.4666 110.59 68.0256 110.59 68.7016V72.6666H109.342V68.8446C109.342 68.1773 109.177 67.6746 108.848 67.3366C108.527 66.9986 108.072 66.8296 107.483 66.8296C107.041 66.8296 106.655 66.9163 106.326 67.0896C105.996 67.263 105.741 67.5186 105.559 67.8566C105.385 68.1946 105.299 68.615 105.299 69.1176V72.6666H104.051V65.7766H105.247V67.6356L105.052 67.1416C105.277 66.691 105.624 66.34 106.092 66.0886C106.56 65.8373 107.106 65.7116 107.73 65.7116ZM115.85 72.7446C115.157 72.7446 114.542 72.593 114.004 72.2896C113.467 71.9863 113.042 71.5703 112.73 71.0416C112.418 70.5043 112.262 69.8976 112.262 69.2216C112.262 68.537 112.418 67.9303 112.73 67.4016C113.042 66.873 113.467 66.4613 114.004 66.1666C114.542 65.8633 115.157 65.7116 115.85 65.7116C116.535 65.7116 117.146 65.8633 117.683 66.1666C118.229 66.4613 118.654 66.873 118.957 67.4016C119.269 67.9216 119.425 68.5283 119.425 69.2216C119.425 69.9063 119.269 70.513 118.957 71.0416C118.654 71.5703 118.229 71.9863 117.683 72.2896C117.146 72.593 116.535 72.7446 115.85 72.7446ZM115.85 71.6526C116.292 71.6526 116.687 71.553 117.033 71.3536C117.389 71.1543 117.666 70.8726 117.865 70.5086C118.065 70.136 118.164 69.707 118.164 69.2216C118.164 68.7276 118.065 68.303 117.865 67.9476C117.666 67.5836 117.389 67.302 117.033 67.1026C116.687 66.9033 116.292 66.8036 115.85 66.8036C115.408 66.8036 115.014 66.9033 114.667 67.1026C114.321 67.302 114.043 67.5836 113.835 67.9476C113.627 68.303 113.523 68.7276 113.523 69.2216C113.523 69.707 113.627 70.136 113.835 70.5086C114.043 70.8726 114.321 71.1543 114.667 71.3536C115.014 71.553 115.408 71.6526 115.85 71.6526ZM123.517 72.7446C122.824 72.7446 122.287 72.5583 121.905 72.1856C121.524 71.813 121.333 71.28 121.333 70.5866V64.2686H122.581V70.5346C122.581 70.9073 122.672 71.1933 122.854 71.3926C123.045 71.592 123.314 71.6916 123.66 71.6916C124.05 71.6916 124.375 71.5833 124.635 71.3666L125.025 72.2636C124.835 72.4283 124.605 72.5496 124.336 72.6276C124.076 72.7056 123.803 72.7446 123.517 72.7446ZM120.163 66.8036V65.7766H124.557V66.8036H120.163ZM129.373 72.7446C128.637 72.7446 127.987 72.593 127.423 72.2896C126.869 71.9863 126.435 71.5703 126.123 71.0416C125.82 70.513 125.668 69.9063 125.668 69.2216C125.668 68.537 125.816 67.9303 126.11 67.4016C126.414 66.873 126.825 66.4613 127.345 66.1666C127.874 65.8633 128.468 65.7116 129.126 65.7116C129.794 65.7116 130.383 65.859 130.894 66.1536C131.406 66.4483 131.804 66.8643 132.09 67.4016C132.385 67.9303 132.532 68.55 132.532 69.2606C132.532 69.3126 132.528 69.3733 132.519 69.4426C132.519 69.512 132.515 69.577 132.506 69.6376H126.643V68.7406H131.856L131.349 69.0526C131.358 68.6106 131.267 68.2163 131.076 67.8696C130.886 67.523 130.621 67.2543 130.283 67.0636C129.954 66.8643 129.568 66.7646 129.126 66.7646C128.693 66.7646 128.307 66.8643 127.969 67.0636C127.631 67.2543 127.367 67.5273 127.176 67.8826C126.986 68.2293 126.89 68.628 126.89 69.0786V69.2866C126.89 69.746 126.994 70.1576 127.202 70.5216C127.419 70.877 127.718 71.1543 128.099 71.3536C128.481 71.553 128.918 71.6526 129.412 71.6526C129.82 71.6526 130.188 71.5833 130.517 71.4446C130.855 71.306 131.15 71.098 131.401 70.8206L132.09 71.6266C131.778 71.9906 131.388 72.268 130.92 72.4586C130.461 72.6493 129.945 72.7446 129.373 72.7446ZM136.241 72.7446C135.669 72.7446 135.123 72.6666 134.603 72.5106C134.092 72.3546 133.689 72.164 133.394 71.9386L133.914 70.9506C134.209 71.15 134.573 71.319 135.006 71.4576C135.44 71.5963 135.882 71.6656 136.332 71.6656C136.913 71.6656 137.329 71.5833 137.58 71.4186C137.84 71.254 137.97 71.0243 137.97 70.7296C137.97 70.513 137.892 70.344 137.736 70.2226C137.58 70.1013 137.372 70.0103 137.112 69.9496C136.861 69.889 136.579 69.837 136.267 69.7936C135.955 69.7416 135.643 69.681 135.331 69.6116C135.019 69.5336 134.733 69.4296 134.473 69.2996C134.213 69.161 134.005 68.9746 133.849 68.7406C133.693 68.498 133.615 68.1773 133.615 67.7786C133.615 67.3626 133.732 66.9986 133.966 66.6866C134.2 66.3746 134.53 66.1363 134.954 65.9716C135.388 65.7983 135.899 65.7116 136.488 65.7116C136.939 65.7116 137.394 65.768 137.853 65.8806C138.321 65.9846 138.703 66.1363 138.997 66.3356L138.464 67.3236C138.152 67.1156 137.827 66.9726 137.489 66.8946C137.151 66.8166 136.813 66.7776 136.475 66.7776C135.929 66.7776 135.522 66.8686 135.253 67.0506C134.985 67.224 134.85 67.4493 134.85 67.7266C134.85 67.9606 134.928 68.1426 135.084 68.2726C135.249 68.394 135.457 68.4893 135.708 68.5586C135.968 68.628 136.254 68.6886 136.566 68.7406C136.878 68.784 137.19 68.8446 137.502 68.9226C137.814 68.992 138.096 69.0916 138.347 69.2216C138.607 69.3516 138.815 69.5336 138.971 69.7676C139.136 70.0016 139.218 70.3136 139.218 70.7036C139.218 71.1196 139.097 71.4793 138.854 71.7826C138.612 72.086 138.269 72.3243 137.827 72.4976C137.385 72.6623 136.857 72.7446 136.241 72.7446ZM147.22 72.7446C146.527 72.7446 145.912 72.593 145.374 72.2896C144.837 71.9863 144.412 71.5703 144.1 71.0416C143.788 70.5043 143.632 69.8976 143.632 69.2216C143.632 68.537 143.788 67.9303 144.1 67.4016C144.412 66.873 144.837 66.4613 145.374 66.1666C145.912 65.8633 146.527 65.7116 147.22 65.7116C147.905 65.7116 148.516 65.8633 149.053 66.1666C149.599 66.4613 150.024 66.873 150.327 67.4016C150.639 67.9216 150.795 68.5283 150.795 69.2216C150.795 69.9063 150.639 70.513 150.327 71.0416C150.024 71.5703 149.599 71.9863 149.053 72.2896C148.516 72.593 147.905 72.7446 147.22 72.7446ZM147.22 71.6526C147.662 71.6526 148.057 71.553 148.403 71.3536C148.759 71.1543 149.036 70.8726 149.235 70.5086C149.435 70.136 149.534 69.707 149.534 69.2216C149.534 68.7276 149.435 68.303 149.235 67.9476C149.036 67.5836 148.759 67.302 148.403 67.1026C148.057 66.9033 147.662 66.8036 147.22 66.8036C146.778 66.8036 146.384 66.9033 146.037 67.1026C145.691 67.302 145.413 67.5836 145.205 67.9476C144.997 68.303 144.893 68.7276 144.893 69.2216C144.893 69.707 144.997 70.136 145.205 70.5086C145.413 70.8726 145.691 71.1543 146.037 71.3536C146.384 71.553 146.778 71.6526 147.22 71.6526ZM156.2 65.7116C156.764 65.7116 157.258 65.82 157.682 66.0366C158.116 66.2533 158.454 66.5826 158.696 67.0246C158.939 67.4666 159.06 68.0256 159.06 68.7016V72.6666H157.812V68.8446C157.812 68.1773 157.648 67.6746 157.318 67.3366C156.998 66.9986 156.543 66.8296 155.953 66.8296C155.511 66.8296 155.126 66.9163 154.796 67.0896C154.467 67.263 154.211 67.5186 154.029 67.8566C153.856 68.1946 153.769 68.615 153.769 69.1176V72.6666H152.521V65.7766H153.717V67.6356L153.522 67.1416C153.748 66.691 154.094 66.34 154.562 66.0886C155.03 65.8373 155.576 65.7116 156.2 65.7116ZM167.695 72.7706C167.002 72.7706 166.339 72.6666 165.706 72.4586C165.073 72.242 164.575 71.9646 164.211 71.6266L164.692 70.6126C165.039 70.916 165.481 71.1673 166.018 71.3666C166.555 71.566 167.114 71.6656 167.695 71.6656C168.224 71.6656 168.653 71.605 168.982 71.4836C169.311 71.3623 169.554 71.1976 169.71 70.9896C169.866 70.773 169.944 70.5303 169.944 70.2616C169.944 69.9496 169.84 69.6983 169.632 69.5076C169.433 69.317 169.168 69.1653 168.839 69.0526C168.518 68.9313 168.163 68.8273 167.773 68.7406C167.383 68.654 166.989 68.5543 166.59 68.4416C166.2 68.3203 165.84 68.1686 165.511 67.9866C165.19 67.8046 164.93 67.562 164.731 67.2586C164.532 66.9466 164.432 66.548 164.432 66.0626C164.432 65.5946 164.553 65.1656 164.796 64.7756C165.047 64.377 165.429 64.0606 165.94 63.8266C166.46 63.584 167.119 63.4626 167.916 63.4626C168.445 63.4626 168.969 63.532 169.489 63.6706C170.009 63.8093 170.46 64.0086 170.841 64.2686L170.412 65.3086C170.022 65.0486 169.61 64.8623 169.177 64.7496C168.744 64.6283 168.323 64.5676 167.916 64.5676C167.405 64.5676 166.984 64.6326 166.655 64.7626C166.326 64.8926 166.083 65.066 165.927 65.2826C165.78 65.4993 165.706 65.742 165.706 66.0106C165.706 66.3313 165.806 66.587 166.005 66.7776C166.213 66.9683 166.477 67.12 166.798 67.2326C167.127 67.3453 167.487 67.4493 167.877 67.5446C168.267 67.6313 168.657 67.731 169.047 67.8436C169.446 67.9563 169.805 68.1036 170.126 68.2856C170.455 68.4676 170.72 68.7103 170.919 69.0136C171.118 69.317 171.218 69.707 171.218 70.1836C171.218 70.643 171.092 71.072 170.841 71.4706C170.59 71.8606 170.2 72.177 169.671 72.4196C169.151 72.6536 168.492 72.7706 167.695 72.7706ZM175.301 72.7446C174.608 72.7446 174.071 72.5583 173.689 72.1856C173.308 71.813 173.117 71.28 173.117 70.5866V64.2686H174.365V70.5346C174.365 70.9073 174.456 71.1933 174.638 71.3926C174.829 71.592 175.098 71.6916 175.444 71.6916C175.834 71.6916 176.159 71.5833 176.419 71.3666L176.809 72.2636C176.619 72.4283 176.389 72.5496 176.12 72.6276C175.86 72.7056 175.587 72.7446 175.301 72.7446ZM171.947 66.8036V65.7766H176.341V66.8036H171.947ZM182.595 72.6666V71.2106L182.53 70.9376V68.4546C182.53 67.926 182.374 67.5186 182.062 67.2326C181.759 66.938 181.299 66.7906 180.684 66.7906C180.277 66.7906 179.878 66.86 179.488 66.9986C179.098 67.1286 178.769 67.3063 178.5 67.5316L177.98 66.5956C178.335 66.3096 178.76 66.093 179.254 65.9456C179.757 65.7896 180.281 65.7116 180.827 65.7116C181.772 65.7116 182.5 65.9413 183.011 66.4006C183.522 66.86 183.778 67.562 183.778 68.5066V72.6666H182.595ZM180.333 72.7446C179.822 72.7446 179.371 72.658 178.981 72.4846C178.6 72.3113 178.305 72.073 178.097 71.7696C177.889 71.4576 177.785 71.1066 177.785 70.7166C177.785 70.344 177.872 70.006 178.045 69.7026C178.227 69.3993 178.517 69.1566 178.916 68.9746C179.323 68.7926 179.869 68.7016 180.554 68.7016H182.738V69.5986H180.606C179.982 69.5986 179.562 69.7026 179.345 69.9106C179.128 70.1186 179.02 70.37 179.02 70.6646C179.02 71.0026 179.154 71.2756 179.423 71.4836C179.692 71.683 180.064 71.7826 180.541 71.7826C181.009 71.7826 181.416 71.6786 181.763 71.4706C182.118 71.2626 182.374 70.9593 182.53 70.5606L182.777 71.4186C182.612 71.826 182.322 72.151 181.906 72.3936C181.49 72.6276 180.966 72.7446 180.333 72.7446ZM189.091 72.7446C188.389 72.7446 187.76 72.593 187.206 72.2896C186.66 71.9863 186.231 71.5703 185.919 71.0416C185.607 70.513 185.451 69.9063 185.451 69.2216C185.451 68.537 185.607 67.9303 185.919 67.4016C186.231 66.873 186.66 66.4613 187.206 66.1666C187.76 65.8633 188.389 65.7116 189.091 65.7116C189.715 65.7116 190.269 65.8373 190.755 66.0886C191.249 66.3313 191.63 66.6953 191.899 67.1806L190.95 67.7916C190.724 67.4536 190.447 67.2066 190.118 67.0506C189.797 66.886 189.45 66.8036 189.078 66.8036C188.627 66.8036 188.224 66.9033 187.869 67.1026C187.513 67.302 187.232 67.5836 187.024 67.9476C186.816 68.303 186.712 68.7276 186.712 69.2216C186.712 69.7156 186.816 70.1446 187.024 70.5086C187.232 70.8726 187.513 71.1543 187.869 71.3536C188.224 71.553 188.627 71.6526 189.078 71.6526C189.45 71.6526 189.797 71.5746 190.118 71.4186C190.447 71.254 190.724 71.0026 190.95 70.6646L191.899 71.2626C191.63 71.7393 191.249 72.1076 190.755 72.3676C190.269 72.619 189.715 72.7446 189.091 72.7446ZM194.44 71.0026L194.466 69.4036L198.431 65.7766H199.939L196.897 68.7666L196.221 69.3386L194.44 71.0026ZM193.426 72.6666V63.0206H194.674V72.6666H193.426ZM198.691 72.6666L195.987 69.3126L196.793 68.3116L200.225 72.6666H198.691ZM205.586 72.6666V71.2106L205.521 70.9376V68.4546C205.521 67.926 205.365 67.5186 205.053 67.2326C204.75 66.938 204.291 66.7906 203.675 66.7906C203.268 66.7906 202.869 66.86 202.479 66.9986C202.089 67.1286 201.76 67.3063 201.491 67.5316L200.971 66.5956C201.327 66.3096 201.751 66.093 202.245 65.9456C202.748 65.7896 203.272 65.7116 203.818 65.7116C204.763 65.7116 205.491 65.9413 206.002 66.4006C206.514 66.86 206.769 67.562 206.769 68.5066V72.6666H205.586ZM203.324 72.7446C202.813 72.7446 202.362 72.658 201.972 72.4846C201.591 72.3113 201.296 72.073 201.088 71.7696C200.88 71.4576 200.776 71.1066 200.776 70.7166C200.776 70.344 200.863 70.006 201.036 69.7026C201.218 69.3993 201.509 69.1566 201.907 68.9746C202.315 68.7926 202.861 68.7016 203.545 68.7016H205.729V69.5986H203.597C202.973 69.5986 202.553 69.7026 202.336 69.9106C202.12 70.1186 202.011 70.37 202.011 70.6646C202.011 71.0026 202.146 71.2756 202.414 71.4836C202.683 71.683 203.056 71.7826 203.532 71.7826C204 71.7826 204.408 71.6786 204.754 71.4706C205.11 71.2626 205.365 70.9593 205.521 70.5606L205.768 71.4186C205.604 71.826 205.313 72.151 204.897 72.3936C204.481 72.6276 203.957 72.7446 203.324 72.7446ZM216.847 72.6666V71.2106L216.782 70.9376V68.4546C216.782 67.926 216.626 67.5186 216.314 67.2326C216.011 66.938 215.551 66.7906 214.936 66.7906C214.529 66.7906 214.13 66.86 213.74 66.9986C213.35 67.1286 213.021 67.3063 212.752 67.5316L212.232 66.5956C212.587 66.3096 213.012 66.093 213.506 65.9456C214.009 65.7896 214.533 65.7116 215.079 65.7116C216.024 65.7116 216.752 65.9413 217.263 66.4006C217.774 66.86 218.03 67.562 218.03 68.5066V72.6666H216.847ZM214.585 72.7446C214.074 72.7446 213.623 72.658 213.233 72.4846C212.852 72.3113 212.557 72.073 212.349 71.7696C212.141 71.4576 212.037 71.1066 212.037 70.7166C212.037 70.344 212.124 70.006 212.297 69.7026C212.479 69.3993 212.769 69.1566 213.168 68.9746C213.575 68.7926 214.121 68.7016 214.806 68.7016H216.99V69.5986H214.858C214.234 69.5986 213.814 69.7026 213.597 69.9106C213.38 70.1186 213.272 70.37 213.272 70.6646C213.272 71.0026 213.406 71.2756 213.675 71.4836C213.944 71.683 214.316 71.7826 214.793 71.7826C215.261 71.7826 215.668 71.6786 216.015 71.4706C216.37 71.2626 216.626 70.9593 216.782 70.5606L217.029 71.4186C216.864 71.826 216.574 72.151 216.158 72.3936C215.742 72.6276 215.218 72.7446 214.585 72.7446ZM224.019 65.7116C224.582 65.7116 225.076 65.82 225.501 66.0366C225.934 66.2533 226.272 66.5826 226.515 67.0246C226.757 67.4666 226.879 68.0256 226.879 68.7016V72.6666H225.631V68.8446C225.631 68.1773 225.466 67.6746 225.137 67.3366C224.816 66.9986 224.361 66.8296 223.772 66.8296C223.33 66.8296 222.944 66.9163 222.615 67.0896C222.285 67.263 222.03 67.5186 221.848 67.8566C221.674 68.1946 221.588 68.615 221.588 69.1176V72.6666H220.34V65.7766H221.536V67.6356L221.341 67.1416C221.566 66.691 221.913 66.34 222.381 66.0886C222.849 65.8373 223.395 65.7116 224.019 65.7116ZM232.035 72.7446C231.368 72.7446 230.77 72.5973 230.241 72.3026C229.721 72.008 229.31 71.5963 229.006 71.0676C228.703 70.539 228.551 69.9236 228.551 69.2216C228.551 68.5196 228.703 67.9086 229.006 67.3886C229.31 66.86 229.721 66.4483 230.241 66.1536C230.77 65.859 231.368 65.7116 232.035 65.7116C232.616 65.7116 233.14 65.8416 233.608 66.1016C234.076 66.3616 234.449 66.7516 234.726 67.2716C235.012 67.7916 235.155 68.4416 235.155 69.2216C235.155 70.0016 235.017 70.6516 234.739 71.1716C234.471 71.6916 234.102 72.086 233.634 72.3546C233.166 72.6146 232.633 72.7446 232.035 72.7446ZM232.139 71.6526C232.573 71.6526 232.963 71.553 233.309 71.3536C233.665 71.1543 233.942 70.8726 234.141 70.5086C234.349 70.136 234.453 69.707 234.453 69.2216C234.453 68.7276 234.349 68.303 234.141 67.9476C233.942 67.5836 233.665 67.302 233.309 67.1026C232.963 66.9033 232.573 66.8036 232.139 66.8036C231.697 66.8036 231.303 66.9033 230.956 67.1026C230.61 67.302 230.332 67.5836 230.124 67.9476C229.916 68.303 229.812 68.7276 229.812 69.2216C229.812 69.707 229.916 70.136 230.124 70.5086C230.332 70.8726 230.61 71.1543 230.956 71.3536C231.303 71.553 231.697 71.6526 232.139 71.6526ZM234.492 72.6666V70.8076L234.57 69.2086L234.44 67.6096V63.0206H235.688V72.6666H234.492ZM245.22 65.7116C245.783 65.7116 246.277 65.82 246.702 66.0366C247.135 66.2533 247.473 66.5826 247.716 67.0246C247.958 67.4666 248.08 68.0256 248.08 68.7016V72.6666H246.832V68.8446C246.832 68.1773 246.667 67.6746 246.338 67.3366C246.017 66.9986 245.562 66.8296 244.973 66.8296C244.531 66.8296 244.145 66.9163 243.816 67.0896C243.486 67.263 243.231 67.5186 243.049 67.8566C242.875 68.1946 242.789 68.615 242.789 69.1176V72.6666H241.541V63.0206H242.789V67.6356L242.542 67.1416C242.767 66.691 243.114 66.34 243.582 66.0886C244.05 65.8373 244.596 65.7116 245.22 65.7116ZM253.457 72.7446C252.721 72.7446 252.071 72.593 251.507 72.2896C250.953 71.9863 250.519 71.5703 250.207 71.0416C249.904 70.513 249.752 69.9063 249.752 69.2216C249.752 68.537 249.9 67.9303 250.194 67.4016C250.498 66.873 250.909 66.4613 251.429 66.1666C251.958 65.8633 252.552 65.7116 253.21 65.7116C253.878 65.7116 254.467 65.859 254.978 66.1536C255.49 66.4483 255.888 66.8643 256.174 67.4016C256.469 67.9303 256.616 68.55 256.616 69.2606C256.616 69.3126 256.612 69.3733 256.603 69.4426C256.603 69.512 256.599 69.577 256.59 69.6376H250.727V68.7406H255.94L255.433 69.0526C255.442 68.6106 255.351 68.2163 255.16 67.8696C254.97 67.523 254.705 67.2543 254.367 67.0636C254.038 66.8643 253.652 66.7646 253.21 66.7646C252.777 66.7646 252.391 66.8643 252.053 67.0636C251.715 67.2543 251.451 67.5273 251.26 67.8826C251.07 68.2293 250.974 68.628 250.974 69.0786V69.2866C250.974 69.746 251.078 70.1576 251.286 70.5216C251.503 70.877 251.802 71.1543 252.183 71.3536C252.565 71.553 253.002 71.6526 253.496 71.6526C253.904 71.6526 254.272 71.5833 254.601 71.4446C254.939 71.306 255.234 71.098 255.485 70.8206L256.174 71.6266C255.862 71.9906 255.472 72.268 255.004 72.4586C254.545 72.6493 254.029 72.7446 253.457 72.7446ZM258.349 72.6666V63.0206H259.597V72.6666H258.349ZM265.633 72.7446C265.061 72.7446 264.537 72.6146 264.06 72.3546C263.592 72.086 263.215 71.6916 262.929 71.1716C262.652 70.6516 262.513 70.0016 262.513 69.2216C262.513 68.4416 262.648 67.7916 262.916 67.2716C263.194 66.7516 263.566 66.3616 264.034 66.1016C264.511 65.8416 265.044 65.7116 265.633 65.7116C266.309 65.7116 266.907 65.859 267.427 66.1536C267.947 66.4483 268.359 66.86 268.662 67.3886C268.966 67.9086 269.117 68.5196 269.117 69.2216C269.117 69.9236 268.966 70.539 268.662 71.0676C268.359 71.5963 267.947 72.008 267.427 72.3026C266.907 72.5973 266.309 72.7446 265.633 72.7446ZM261.98 75.1886V65.7766H263.176V67.6356L263.098 69.2346L263.228 70.8336V75.1886H261.98ZM265.529 71.6526C265.971 71.6526 266.366 71.553 266.712 71.3536C267.068 71.1543 267.345 70.8726 267.544 70.5086C267.752 70.136 267.856 69.707 267.856 69.2216C267.856 68.7276 267.752 68.303 267.544 67.9476C267.345 67.5836 267.068 67.302 266.712 67.1026C266.366 66.9033 265.971 66.8036 265.529 66.8036C265.096 66.8036 264.702 66.9033 264.346 67.1026C264 67.302 263.722 67.5836 263.514 67.9476C263.315 68.303 263.215 68.7276 263.215 69.2216C263.215 69.707 263.315 70.136 263.514 70.5086C263.722 70.8726 264 71.1543 264.346 71.3536C264.702 71.553 265.096 71.6526 265.529 71.6526ZM32.734 92.7446C32.0407 92.7446 31.4253 92.593 30.888 92.2896C30.3507 91.9863 29.926 91.5703 29.614 91.0416C29.302 90.5043 29.146 89.8976 29.146 89.2216C29.146 88.537 29.302 87.9303 29.614 87.4016C29.926 86.873 30.3507 86.4613 30.888 86.1666C31.4253 85.8633 32.0407 85.7116 32.734 85.7116C33.4187 85.7116 34.0297 85.8633 34.567 86.1666C35.113 86.4613 35.5377 86.873 35.841 87.4016C36.153 87.9216 36.309 88.5283 36.309 89.2216C36.309 89.9063 36.153 90.513 35.841 91.0416C35.5377 91.5703 35.113 91.9863 34.567 92.2896C34.0297 92.593 33.4187 92.7446 32.734 92.7446ZM32.734 91.6526C33.176 91.6526 33.5703 91.553 33.917 91.3536C34.2723 91.1543 34.5497 90.8726 34.749 90.5086C34.9483 90.136 35.048 89.707 35.048 89.2216C35.048 88.7276 34.9483 88.303 34.749 87.9476C34.5497 87.5836 34.2723 87.302 33.917 87.1026C33.5703 86.9033 33.176 86.8036 32.734 86.8036C32.292 86.8036 31.8977 86.9033 31.551 87.1026C31.2043 87.302 30.927 87.5836 30.719 87.9476C30.511 88.303 30.407 88.7276 30.407 89.2216C30.407 89.707 30.511 90.136 30.719 90.5086C30.927 90.8726 31.2043 91.1543 31.551 91.3536C31.8977 91.553 32.292 91.6526 32.734 91.6526ZM40.401 92.7446C39.7076 92.7446 39.1703 92.5583 38.789 92.1856C38.4076 91.813 38.217 91.28 38.217 90.5866V84.2686H39.465V90.5346C39.465 90.9073 39.556 91.1933 39.738 91.3926C39.9286 91.592 40.1973 91.6916 40.544 91.6916C40.934 91.6916 41.259 91.5833 41.519 91.3666L41.909 92.2636C41.7183 92.4283 41.4886 92.5496 41.22 92.6276C40.96 92.7056 40.687 92.7446 40.401 92.7446ZM37.047 86.8036V85.7766H41.441V86.8036H37.047ZM47.0968 85.7116C47.6601 85.7116 48.1541 85.82 48.5788 86.0366C49.0121 86.2533 49.3501 86.5826 49.5928 87.0246C49.8354 87.4666 49.9568 88.0256 49.9568 88.7016V92.6666H48.7088V88.8446C48.7088 88.1773 48.5441 87.6746 48.2148 87.3366C47.8941 86.9986 47.4391 86.8296 46.8498 86.8296C46.4078 86.8296 46.0221 86.9163 45.6928 87.0896C45.3634 87.263 45.1078 87.5186 44.9258 87.8566C44.7524 88.1946 44.6658 88.615 44.6658 89.1176V92.6666H43.4178V83.0206H44.6658V87.6356L44.4188 87.1416C44.6441 86.691 44.9908 86.34 45.4588 86.0886C45.9268 85.8373 46.4728 85.7116 47.0968 85.7116ZM55.3344 92.7446C54.5977 92.7446 53.9477 92.593 53.3844 92.2896C52.8297 91.9863 52.3964 91.5703 52.0844 91.0416C51.7811 90.513 51.6294 89.9063 51.6294 89.2216C51.6294 88.537 51.7767 87.9303 52.0714 87.4016C52.3747 86.873 52.7864 86.4613 53.3064 86.1666C53.8351 85.8633 54.4287 85.7116 55.0874 85.7116C55.7547 85.7116 56.3441 85.859 56.8554 86.1536C57.3667 86.4483 57.7654 86.8643 58.0514 87.4016C58.3461 87.9303 58.4934 88.55 58.4934 89.2606C58.4934 89.3126 58.4891 89.3733 58.4804 89.4426C58.4804 89.512 58.4761 89.577 58.4674 89.6376H52.6044V88.7406H57.8174L57.3104 89.0526C57.3191 88.6106 57.2281 88.2163 57.0374 87.8696C56.8467 87.523 56.5824 87.2543 56.2444 87.0636C55.9151 86.8643 55.5294 86.7646 55.0874 86.7646C54.6541 86.7646 54.2684 86.8643 53.9304 87.0636C53.5924 87.2543 53.3281 87.5273 53.1374 87.8826C52.9467 88.2293 52.8514 88.628 52.8514 89.0786V89.2866C52.8514 89.746 52.9554 90.1576 53.1634 90.5216C53.3801 90.877 53.6791 91.1543 54.0604 91.3536C54.4417 91.553 54.8794 91.6526 55.3734 91.6526C55.7807 91.6526 56.1491 91.5833 56.4784 91.4446C56.8164 91.306 57.1111 91.098 57.3624 90.8206L58.0514 91.6266C57.7394 91.9906 57.3494 92.268 56.8814 92.4586C56.4221 92.6493 55.9064 92.7446 55.3344 92.7446ZM60.2264 92.6666V85.7766H61.4224V87.6486L61.3054 87.1806C61.496 86.704 61.8167 86.34 62.2674 86.0886C62.718 85.8373 63.2727 85.7116 63.9314 85.7116V86.9206C63.8794 86.912 63.8274 86.9076 63.7754 86.9076C63.732 86.9076 63.6887 86.9076 63.6454 86.9076C62.978 86.9076 62.4494 87.107 62.0594 87.5056C61.6694 87.9043 61.4744 88.4806 61.4744 89.2346V92.6666H60.2264ZM71.0256 92.7446C70.4536 92.7446 69.9076 92.6666 69.3876 92.5106C68.8763 92.3546 68.4733 92.164 68.1786 91.9386L68.6986 90.9506C68.9933 91.15 69.3573 91.319 69.7906 91.4576C70.2239 91.5963 70.6659 91.6656 71.1166 91.6656C71.6973 91.6656 72.1133 91.5833 72.3646 91.4186C72.6246 91.254 72.7546 91.0243 72.7546 90.7296C72.7546 90.513 72.6766 90.344 72.5206 90.2226C72.3646 90.1013 72.1566 90.0103 71.8966 89.9496C71.6453 89.889 71.3636 89.837 71.0516 89.7936C70.7396 89.7416 70.4276 89.681 70.1156 89.6116C69.8036 89.5336 69.5176 89.4296 69.2576 89.2996C68.9976 89.161 68.7896 88.9746 68.6336 88.7406C68.4776 88.498 68.3996 88.1773 68.3996 87.7786C68.3996 87.3626 68.5166 86.9986 68.7506 86.6866C68.9846 86.3746 69.3139 86.1363 69.7386 85.9716C70.1719 85.7983 70.6833 85.7116 71.2726 85.7116C71.7233 85.7116 72.1783 85.768 72.6376 85.8806C73.1056 85.9846 73.4869 86.1363 73.7816 86.3356L73.2486 87.3236C72.9366 87.1156 72.6116 86.9726 72.2736 86.8946C71.9356 86.8166 71.5976 86.7776 71.2596 86.7776C70.7136 86.7776 70.3063 86.8686 70.0376 87.0506C69.7689 87.224 69.6346 87.4493 69.6346 87.7266C69.6346 87.9606 69.7126 88.1426 69.8686 88.2726C70.0333 88.394 70.2413 88.4893 70.4926 88.5586C70.7526 88.628 71.0386 88.6886 71.3506 88.7406C71.6626 88.784 71.9746 88.8446 72.2866 88.9226C72.5986 88.992 72.8803 89.0916 73.1316 89.2216C73.3916 89.3516 73.5996 89.5336 73.7556 89.7676C73.9203 90.0016 74.0026 90.3136 74.0026 90.7036C74.0026 91.1196 73.8813 91.4793 73.6386 91.7826C73.3959 92.086 73.0536 92.3243 72.6116 92.4976C72.1696 92.6623 71.6409 92.7446 71.0256 92.7446ZM77.9283 92.7446C77.235 92.7446 76.6976 92.5583 76.3163 92.1856C75.935 91.813 75.7443 91.28 75.7443 90.5866V84.2686H76.9923V90.5346C76.9923 90.9073 77.0833 91.1933 77.2653 91.3926C77.456 91.592 77.7246 91.6916 78.0713 91.6916C78.4613 91.6916 78.7863 91.5833 79.0463 91.3666L79.4363 92.2636C79.2456 92.4283 79.016 92.5496 78.7473 92.6276C78.4873 92.7056 78.2143 92.7446 77.9283 92.7446ZM74.5743 86.8036V85.7766H78.9683V86.8036H74.5743ZM83.8441 92.7446C83.2548 92.7446 82.7348 92.6363 82.2841 92.4196C81.8421 92.203 81.4954 91.8736 81.2441 91.4316C81.0014 90.981 80.8801 90.4176 80.8801 89.7416V85.7766H82.1281V89.5986C82.1281 90.2746 82.2884 90.7816 82.6091 91.1196C82.9384 91.4576 83.3978 91.6266 83.9871 91.6266C84.4204 91.6266 84.7974 91.54 85.1181 91.3666C85.4388 91.1846 85.6858 90.9246 85.8591 90.5866C86.0324 90.24 86.1191 89.824 86.1191 89.3386V85.7766H87.3671V92.6666H86.1841V90.8076L86.3791 91.3016C86.1538 91.761 85.8158 92.1163 85.3651 92.3676C84.9144 92.619 84.4074 92.7446 83.8441 92.7446ZM92.59 92.7446C91.9226 92.7446 91.3246 92.5973 90.796 92.3026C90.276 92.008 89.8643 91.5963 89.561 91.0676C89.2576 90.539 89.106 89.9236 89.106 89.2216C89.106 88.5196 89.2576 87.9086 89.561 87.3886C89.8643 86.86 90.276 86.4483 90.796 86.1536C91.3246 85.859 91.9226 85.7116 92.59 85.7116C93.1706 85.7116 93.695 85.8416 94.163 86.1016C94.631 86.3616 95.0036 86.7516 95.281 87.2716C95.567 87.7916 95.71 88.4416 95.71 89.2216C95.71 90.0016 95.5713 90.6516 95.294 91.1716C95.0253 91.6916 94.657 92.086 94.189 92.3546C93.721 92.6146 93.188 92.7446 92.59 92.7446ZM92.694 91.6526C93.1273 91.6526 93.5173 91.553 93.864 91.3536C94.2193 91.1543 94.4966 90.8726 94.696 90.5086C94.904 90.136 95.008 89.707 95.008 89.2216C95.008 88.7276 94.904 88.303 94.696 87.9476C94.4966 87.5836 94.2193 87.302 93.864 87.1026C93.5173 86.9033 93.1273 86.8036 92.694 86.8036C92.252 86.8036 91.8576 86.9033 91.511 87.1026C91.1643 87.302 90.887 87.5836 90.679 87.9476C90.471 88.303 90.367 88.7276 90.367 89.2216C90.367 89.707 90.471 90.136 90.679 90.5086C90.887 90.8726 91.1643 91.1543 91.511 91.3536C91.8576 91.553 92.252 91.6526 92.694 91.6526ZM95.047 92.6666V90.8076L95.125 89.2086L94.995 87.6096V83.0206H96.243V92.6666H95.047ZM101.672 92.7446C100.936 92.7446 100.286 92.593 99.7223 92.2896C99.1676 91.9863 98.7343 91.5703 98.4223 91.0416C98.119 90.513 97.9673 89.9063 97.9673 89.2216C97.9673 88.537 98.1146 87.9303 98.4093 87.4016C98.7126 86.873 99.1243 86.4613 99.6443 86.1666C100.173 85.8633 100.767 85.7116 101.425 85.7116C102.093 85.7116 102.682 85.859 103.193 86.1536C103.705 86.4483 104.103 86.8643 104.389 87.4016C104.684 87.9303 104.831 88.55 104.831 89.2606C104.831 89.3126 104.827 89.3733 104.818 89.4426C104.818 89.512 104.814 89.577 104.805 89.6376H98.9423V88.7406H104.155L103.648 89.0526C103.657 88.6106 103.566 88.2163 103.375 87.8696C103.185 87.523 102.92 87.2543 102.582 87.0636C102.253 86.8643 101.867 86.7646 101.425 86.7646C100.992 86.7646 100.606 86.8643 100.268 87.0636C99.9303 87.2543 99.666 87.5273 99.4753 87.8826C99.2846 88.2293 99.1893 88.628 99.1893 89.0786V89.2866C99.1893 89.746 99.2933 90.1576 99.5013 90.5216C99.718 90.877 100.017 91.1543 100.398 91.3536C100.78 91.553 101.217 91.6526 101.711 91.6526C102.119 91.6526 102.487 91.5833 102.816 91.4446C103.154 91.306 103.449 91.098 103.7 90.8206L104.389 91.6266C104.077 91.9906 103.687 92.268 103.219 92.4586C102.76 92.6493 102.244 92.7446 101.672 92.7446ZM110.243 85.7116C110.807 85.7116 111.301 85.82 111.725 86.0366C112.159 86.2533 112.497 86.5826 112.739 87.0246C112.982 87.4666 113.103 88.0256 113.103 88.7016V92.6666H111.855V88.8446C111.855 88.1773 111.691 87.6746 111.361 87.3366C111.041 86.9986 110.586 86.8296 109.996 86.8296C109.554 86.8296 109.169 86.9163 108.839 87.0896C108.51 87.263 108.254 87.5186 108.072 87.8566C107.899 88.1946 107.812 88.615 107.812 89.1176V92.6666H106.564V85.7766H107.76V87.6356L107.565 87.1416C107.791 86.691 108.137 86.34 108.605 86.0886C109.073 85.8373 109.619 85.7116 110.243 85.7116ZM117.779 92.7446C117.086 92.7446 116.548 92.5583 116.167 92.1856C115.786 91.813 115.595 91.28 115.595 90.5866V84.2686H116.843V90.5346C116.843 90.9073 116.934 91.1933 117.116 91.3926C117.307 91.592 117.575 91.6916 117.922 91.6916C118.312 91.6916 118.637 91.5833 118.897 91.3666L119.287 92.2636C119.096 92.4283 118.867 92.5496 118.598 92.6276C118.338 92.7056 118.065 92.7446 117.779 92.7446ZM114.425 86.8036V85.7766H118.819V86.8036H114.425ZM122.772 92.7446C122.2 92.7446 121.654 92.6666 121.134 92.5106C120.622 92.3546 120.219 92.164 119.925 91.9386L120.445 90.9506C120.739 91.15 121.103 91.319 121.537 91.4576C121.97 91.5963 122.412 91.6656 122.863 91.6656C123.443 91.6656 123.859 91.5833 124.111 91.4186C124.371 91.254 124.501 91.0243 124.501 90.7296C124.501 90.513 124.423 90.344 124.267 90.2226C124.111 90.1013 123.903 90.0103 123.643 89.9496C123.391 89.889 123.11 89.837 122.798 89.7936C122.486 89.7416 122.174 89.681 121.862 89.6116C121.55 89.5336 121.264 89.4296 121.004 89.2996C120.744 89.161 120.536 88.9746 120.38 88.7406C120.224 88.498 120.146 88.1773 120.146 87.7786C120.146 87.3626 120.263 86.9986 120.497 86.6866C120.731 86.3746 121.06 86.1363 121.485 85.9716C121.918 85.7983 122.429 85.7116 123.019 85.7116C123.469 85.7116 123.924 85.768 124.384 85.8806C124.852 85.9846 125.233 86.1363 125.528 86.3356L124.995 87.3236C124.683 87.1156 124.358 86.9726 124.02 86.8946C123.682 86.8166 123.344 86.7776 123.006 86.7776C122.46 86.7776 122.052 86.8686 121.784 87.0506C121.515 87.224 121.381 87.4493 121.381 87.7266C121.381 87.9606 121.459 88.1426 121.615 88.2726C121.779 88.394 121.987 88.4893 122.239 88.5586C122.499 88.628 122.785 88.6886 123.097 88.7406C123.409 88.784 123.721 88.8446 124.033 88.9226C124.345 88.992 124.626 89.0916 124.878 89.2216C125.138 89.3516 125.346 89.5336 125.502 89.7676C125.666 90.0016 125.749 90.3136 125.749 90.7036C125.749 91.1196 125.627 91.4793 125.385 91.7826C125.142 92.086 124.8 92.3243 124.358 92.4976C123.916 92.6623 123.387 92.7446 122.772 92.7446ZM132.776 92.7446C132.204 92.7446 131.658 92.6666 131.138 92.5106C130.626 92.3546 130.223 92.164 129.929 91.9386L130.449 90.9506C130.743 91.15 131.107 91.319 131.541 91.4576C131.974 91.5963 132.416 91.6656 132.867 91.6656C133.447 91.6656 133.863 91.5833 134.115 91.4186C134.375 91.254 134.505 91.0243 134.505 90.7296C134.505 90.513 134.427 90.344 134.271 90.2226C134.115 90.1013 133.907 90.0103 133.647 89.9496C133.395 89.889 133.114 89.837 132.802 89.7936C132.49 89.7416 132.178 89.681 131.866 89.6116C131.554 89.5336 131.268 89.4296 131.008 89.2996C130.748 89.161 130.54 88.9746 130.384 88.7406C130.228 88.498 130.15 88.1773 130.15 87.7786C130.15 87.3626 130.267 86.9986 130.501 86.6866C130.735 86.3746 131.064 86.1363 131.489 85.9716C131.922 85.7983 132.433 85.7116 133.023 85.7116C133.473 85.7116 133.928 85.768 134.388 85.8806C134.856 85.9846 135.237 86.1363 135.532 86.3356L134.999 87.3236C134.687 87.1156 134.362 86.9726 134.024 86.8946C133.686 86.8166 133.348 86.7776 133.01 86.7776C132.464 86.7776 132.056 86.8686 131.788 87.0506C131.519 87.224 131.385 87.4493 131.385 87.7266C131.385 87.9606 131.463 88.1426 131.619 88.2726C131.783 88.394 131.991 88.4893 132.243 88.5586C132.503 88.628 132.789 88.6886 133.101 88.7406C133.413 88.784 133.725 88.8446 134.037 88.9226C134.349 88.992 134.63 89.0916 134.882 89.2216C135.142 89.3516 135.35 89.5336 135.506 89.7676C135.67 90.0016 135.753 90.3136 135.753 90.7036C135.753 91.1196 135.631 91.4793 135.389 91.7826C135.146 92.086 134.804 92.3243 134.362 92.4976C133.92 92.6623 133.391 92.7446 132.776 92.7446ZM139.678 92.7446C138.985 92.7446 138.448 92.5583 138.066 92.1856C137.685 91.813 137.494 91.28 137.494 90.5866V84.2686H138.742V90.5346C138.742 90.9073 138.833 91.1933 139.015 91.3926C139.206 91.592 139.475 91.6916 139.821 91.6916C140.211 91.6916 140.536 91.5833 140.796 91.3666L141.186 92.2636C140.996 92.4283 140.766 92.5496 140.497 92.6276C140.237 92.7056 139.964 92.7446 139.678 92.7446ZM136.324 86.8036V85.7766H140.718V86.8036H136.324ZM145.594 92.7446C145.005 92.7446 144.485 92.6363 144.034 92.4196C143.592 92.203 143.245 91.8736 142.994 91.4316C142.751 90.981 142.63 90.4176 142.63 89.7416V85.7766H143.878V89.5986C143.878 90.2746 144.038 90.7816 144.359 91.1196C144.688 91.4576 145.148 91.6266 145.737 91.6266C146.17 91.6266 146.547 91.54 146.868 91.3666C147.189 91.1846 147.436 90.9246 147.609 90.5866C147.782 90.24 147.869 89.824 147.869 89.3386V85.7766H149.117V92.6666H147.934V90.8076L148.129 91.3016C147.904 91.761 147.566 92.1163 147.115 92.3676C146.664 92.619 146.157 92.7446 145.594 92.7446ZM154.34 92.7446C153.673 92.7446 153.075 92.5973 152.546 92.3026C152.026 92.008 151.614 91.5963 151.311 91.0676C151.008 90.539 150.856 89.9236 150.856 89.2216C150.856 88.5196 151.008 87.9086 151.311 87.3886C151.614 86.86 152.026 86.4483 152.546 86.1536C153.075 85.859 153.673 85.7116 154.34 85.7116C154.921 85.7116 155.445 85.8416 155.913 86.1016C156.381 86.3616 156.754 86.7516 157.031 87.2716C157.317 87.7916 157.46 88.4416 157.46 89.2216C157.46 90.0016 157.321 90.6516 157.044 91.1716C156.775 91.6916 156.407 92.086 155.939 92.3546C155.471 92.6146 154.938 92.7446 154.34 92.7446ZM154.444 91.6526C154.877 91.6526 155.267 91.553 155.614 91.3536C155.969 91.1543 156.247 90.8726 156.446 90.5086C156.654 90.136 156.758 89.707 156.758 89.2216C156.758 88.7276 156.654 88.303 156.446 87.9476C156.247 87.5836 155.969 87.302 155.614 87.1026C155.267 86.9033 154.877 86.8036 154.444 86.8036C154.002 86.8036 153.608 86.9033 153.261 87.1026C152.914 87.302 152.637 87.5836 152.429 87.9476C152.221 88.303 152.117 88.7276 152.117 89.2216C152.117 89.707 152.221 90.136 152.429 90.5086C152.637 90.8726 152.914 91.1543 153.261 91.3536C153.608 91.553 154.002 91.6526 154.444 91.6526ZM156.797 92.6666V90.8076L156.875 89.2086L156.745 87.6096V83.0206H157.993V92.6666H156.797ZM160.653 95.2666C160.324 95.2666 160.003 95.2103 159.691 95.0976C159.379 94.9936 159.111 94.8376 158.885 94.6296L159.418 93.6936C159.592 93.8583 159.782 93.984 159.99 94.0706C160.198 94.1573 160.419 94.2006 160.653 94.2006C160.957 94.2006 161.208 94.1226 161.407 93.9666C161.607 93.8106 161.793 93.5333 161.966 93.1346L162.395 92.1856L162.525 92.0296L165.229 85.7766H166.451L163.11 93.3556C162.911 93.841 162.686 94.2223 162.434 94.4996C162.192 94.777 161.923 94.972 161.628 95.0846C161.334 95.206 161.009 95.2666 160.653 95.2666ZM162.291 92.8876L159.145 85.7766H160.445L163.123 91.9126L162.291 92.8876ZM174.76 92.7446C174.171 92.7446 173.638 92.6146 173.161 92.3546C172.693 92.086 172.321 91.6916 172.043 91.1716C171.775 90.6516 171.64 90.0016 171.64 89.2216C171.64 88.4416 171.779 87.7916 172.056 87.2716C172.342 86.7516 172.719 86.3616 173.187 86.1016C173.664 85.8416 174.188 85.7116 174.76 85.7116C175.436 85.7116 176.034 85.859 176.554 86.1536C177.074 86.4483 177.486 86.86 177.789 87.3886C178.093 87.9086 178.244 88.5196 178.244 89.2216C178.244 89.9236 178.093 90.539 177.789 91.0676C177.486 91.5963 177.074 92.008 176.554 92.3026C176.034 92.5973 175.436 92.7446 174.76 92.7446ZM171.107 92.6666V83.0206H172.355V87.6096L172.225 89.2086L172.303 90.8076V92.6666H171.107ZM174.656 91.6526C175.098 91.6526 175.493 91.553 175.839 91.3536C176.195 91.1543 176.472 90.8726 176.671 90.5086C176.879 90.136 176.983 89.707 176.983 89.2216C176.983 88.7276 176.879 88.303 176.671 87.9476C176.472 87.5836 176.195 87.302 175.839 87.1026C175.493 86.9033 175.098 86.8036 174.656 86.8036C174.223 86.8036 173.829 86.9033 173.473 87.1026C173.127 87.302 172.849 87.5836 172.641 87.9476C172.442 88.303 172.342 88.7276 172.342 89.2216C172.342 89.707 172.442 90.136 172.641 90.5086C172.849 90.8726 173.127 91.1543 173.473 91.3536C173.829 91.553 174.223 91.6526 174.656 91.6526ZM183.037 92.7446C182.3 92.7446 181.65 92.593 181.087 92.2896C180.532 91.9863 180.099 91.5703 179.787 91.0416C179.483 90.513 179.332 89.9063 179.332 89.2216C179.332 88.537 179.479 87.9303 179.774 87.4016C180.077 86.873 180.489 86.4613 181.009 86.1666C181.537 85.8633 182.131 85.7116 182.79 85.7116C183.457 85.7116 184.046 85.859 184.558 86.1536C185.069 86.4483 185.468 86.8643 185.754 87.4016C186.048 87.9303 186.196 88.55 186.196 89.2606C186.196 89.3126 186.191 89.3733 186.183 89.4426C186.183 89.512 186.178 89.577 186.17 89.6376H180.307V88.7406H185.52L185.013 89.0526C185.021 88.6106 184.93 88.2163 184.74 87.8696C184.549 87.523 184.285 87.2543 183.947 87.0636C183.617 86.8643 183.232 86.7646 182.79 86.7646C182.356 86.7646 181.971 86.8643 181.633 87.0636C181.295 87.2543 181.03 87.5273 180.84 87.8826C180.649 88.2293 180.554 88.628 180.554 89.0786V89.2866C180.554 89.746 180.658 90.1576 180.866 90.5216C181.082 90.877 181.381 91.1543 181.763 91.3536C182.144 91.553 182.582 91.6526 183.076 91.6526C183.483 91.6526 183.851 91.5833 184.181 91.4446C184.519 91.306 184.813 91.098 185.065 90.8206L185.754 91.6266C185.442 91.9906 185.052 92.268 184.584 92.4586C184.124 92.6493 183.609 92.7446 183.037 92.7446ZM190.295 92.7446C189.601 92.7446 189.064 92.5583 188.683 92.1856C188.301 91.813 188.111 91.28 188.111 90.5866V84.2686H189.359V90.5346C189.359 90.9073 189.45 91.1933 189.632 91.3926C189.822 91.592 190.091 91.6916 190.438 91.6916C190.828 91.6916 191.153 91.5833 191.413 91.3666L191.803 92.2636C191.612 92.4283 191.382 92.5496 191.114 92.6276C190.854 92.7056 190.581 92.7446 190.295 92.7446ZM186.941 86.8036V85.7766H191.335V86.8036H186.941ZM195.512 92.7446C194.819 92.7446 194.282 92.5583 193.9 92.1856C193.519 91.813 193.328 91.28 193.328 90.5866V84.2686H194.576V90.5346C194.576 90.9073 194.667 91.1933 194.849 91.3926C195.04 91.592 195.309 91.6916 195.655 91.6916C196.045 91.6916 196.37 91.5833 196.63 91.3666L197.02 92.2636C196.83 92.4283 196.6 92.5496 196.331 92.6276C196.071 92.7056 195.798 92.7446 195.512 92.7446ZM192.158 86.8036V85.7766H196.552V86.8036H192.158ZM201.369 92.7446C200.632 92.7446 199.982 92.593 199.419 92.2896C198.864 91.9863 198.431 91.5703 198.119 91.0416C197.815 90.513 197.664 89.9063 197.664 89.2216C197.664 88.537 197.811 87.9303 198.106 87.4016C198.409 86.873 198.821 86.4613 199.341 86.1666C199.869 85.8633 200.463 85.7116 201.122 85.7116C201.789 85.7116 202.378 85.859 202.89 86.1536C203.401 86.4483 203.8 86.8643 204.086 87.4016C204.38 87.9303 204.528 88.55 204.528 89.2606C204.528 89.3126 204.523 89.3733 204.515 89.4426C204.515 89.512 204.51 89.577 204.502 89.6376H198.639V88.7406H203.852L203.345 89.0526C203.353 88.6106 203.262 88.2163 203.072 87.8696C202.881 87.523 202.617 87.2543 202.279 87.0636C201.949 86.8643 201.564 86.7646 201.122 86.7646C200.688 86.7646 200.303 86.8643 199.965 87.0636C199.627 87.2543 199.362 87.5273 199.172 87.8826C198.981 88.2293 198.886 88.628 198.886 89.0786V89.2866C198.886 89.746 198.99 90.1576 199.198 90.5216C199.414 90.877 199.713 91.1543 200.095 91.3536C200.476 91.553 200.914 91.6526 201.408 91.6526C201.815 91.6526 202.183 91.5833 202.513 91.4446C202.851 91.306 203.145 91.098 203.397 90.8206L204.086 91.6266C203.774 91.9906 203.384 92.268 202.916 92.4586C202.456 92.6493 201.941 92.7446 201.369 92.7446ZM206.261 92.6666V85.7766H207.457V87.6486L207.34 87.1806C207.53 86.704 207.851 86.34 208.302 86.0886C208.752 85.8373 209.307 85.7116 209.966 85.7116V86.9206C209.914 86.912 209.862 86.9076 209.81 86.9076C209.766 86.9076 209.723 86.9076 209.68 86.9076C209.012 86.9076 208.484 87.107 208.094 87.5056C207.704 87.9043 207.509 88.4806 207.509 89.2346V92.6666H206.261ZM211.765 92.7446C211.522 92.7446 211.314 92.6623 211.141 92.4976C210.967 92.3243 210.881 92.1076 210.881 91.8476C210.881 91.5876 210.967 91.3753 211.141 91.2106C211.314 91.046 211.522 90.9636 211.765 90.9636C211.999 90.9636 212.198 91.046 212.363 91.2106C212.536 91.3753 212.623 91.5876 212.623 91.8476C212.623 92.1076 212.536 92.3243 212.363 92.4976C212.198 92.6623 211.999 92.7446 211.765 92.7446Z" fill="#AEAEAE"/>
</g>
<defs>
<filter id="filter0_d_1363_498" x="5.72205e-06" y="-2.47955e-05" width="309.934" height="128.2" filterUnits="userSpaceOnUse" color-interpolation-filters="sRGB">
<feFlood flood-opacity="0" result="BackgroundImageFix"/>
<feColorMatrix in="SourceAlpha" type="matrix" values="0 0 0 0 0 0 0 0 0 0 0 0 0 0 0 0 0 0 127 0" result="hardAlpha"/>
<feOffset/>
<feGaussianBlur stdDeviation="5.8"/>
<feComposite in2="hardAlpha" operator="out"/>
<feColorMatrix type="matrix" values="0 0 0 0 0.135799 0 0 0 0 0.135799 0 0 0 0 0.135799 0 0 0 0.1 0"/>
<feBlend mode="normal" in2="BackgroundImageFix" result="effect1_dropShadow_1363_498"/>
<feBlend mode="normal" in="SourceGraphic" in2="effect1_dropShadow_1363_498" result="shape"/>
</filter>
</defs>
</svg>
